<?xml version="1.0" encoding="UTF-8"?>
<svg id="Layer_1" data-name="Layer 1" xmlns="http://www.w3.org/2000/svg" viewBox="0 0 679 104">
  <defs>
    <style>
      .cls-1 {
        fill: #ffab01;
        font-family: BodoniURW-Bol, 'Bodoni URW';
        font-size: 57px;
      }

      .cls-2 {
        letter-spacing: .02em;
      }

      .cls-3, .cls-4 {
        fill: #f7f3e7;
      }

      .cls-5 {
        fill: #016241;
      }

      .cls-6 {
        fill: #8c8a83;
      }

      .cls-6, .cls-4, .cls-7 {
        stroke: #000;
        stroke-miterlimit: 10;
      }

      .cls-8 {
        letter-spacing: 0em;
      }

      .cls-7 {
        fill: none;
      }

      .cls-9 {
        letter-spacing: 0em;
      }

      .cls-10 {
        letter-spacing: -.01em;
      }
    </style>
  </defs>
  <g>
    <rect class="cls-5" x="20.5" y="30.5" width="649" height="52" rx="11.5" ry="11.5"/>
    <path class="cls-3" d="m658,31c6.07,0,11,4.93,11,11v29c0,6.07-4.93,11-11,11H32c-6.07,0-11-4.93-11-11v-29c0-6.07,4.93-11,11-11h626m0-1H32c-6.6,0-12,5.4-12,12v29c0,6.6,5.4,12,12,12h626c6.6,0,12-5.4,12-12v-29c0-6.6-5.4-12-12-12h0Z"/>
  </g>
  <g>
    <path class="cls-4" d="m71.89,35.79l34.02,39.89,48.68-9.97-32.85-38.71s0-15.25-7.04-12.9l-47.58,13.59c-1.33.38-2.48,1.24-3.19,2.44-1.41,2.39-2.04,6.07,7.95,5.67Z"/>
    <path class="cls-6" d="m68.96,46.93l33.32,38.07,53.96-10.56-1.37-7.58c-.16-.65-.79-1.05-1.45-.92l-47.52,9.73-34.02-39.89s-8.69-.14-8.74-2.71l-.05,10.26c0,.85.39,1.65,1.07,2.17,1.23.95,3.26,2.19,4.79,1.42Z"/>
    <circle class="cls-4" cx="83.62" cy="34.61" r=".59"/>
    <path class="cls-4" d="m91.25,31.09v.59-1.17.59Z"/>
    <circle class="cls-4" cx="97.7" cy="35.79" r=".59"/>
    <circle class="cls-4" cx="97.7" cy="29.92" r=".59"/>
    <circle class="cls-4" cx="90.66" cy="40.48" r=".59"/>
    <path class="cls-4" d="m102.98,43.41h-1.17,1.17Z"/>
    <circle class="cls-4" cx="103.56" cy="40.48" r=".59"/>
    <path class="cls-4" d="m115.88,35.2h-1.17,1.17Z"/>
  </g>
  <polygon points="10 51.54 57.5 37.5 76.5 51.5 10 51.54"/>
  <path class="cls-4" d="m76.5,51.5l5.5,38.5-67,5.07v-24.49s8.5-7.09-.5-10.09l-4.04-8.05c-.21-.42.09-.91.56-.91l65.48-.04Z"/>
  <circle class="cls-7" cx="66" cy="65" r="6.5"/>
  <path class="cls-7" d="m57.5,79.5c0,1.66-1.34,4-3,4s-3-2.34-3-4,1.34-3,3-3,3,1.34,3,3Z"/>
  <circle class="cls-7" cx="30.5" cy="60.5" r="3"/>
  <path class="cls-7" d="m42.5,69.5c0,1.66-.79,4-3,4s-5-1.34-5-3,1.79-4,4-4,4,1.34,4,3Z"/>
  <circle class="cls-7" cx="24.5" cy="81.5" r="5"/>
  <path d="m29.5,81.5c0,2.76-2.24,5-5,5-.52,0,.48.14,0,0,2.03-.64,3-2.76,3-5s-.97-4.36-3-5c.48-.14-.52,0,0,0,2.76,0,5,2.24,5,5Z"/>
  <path d="m72.5,65c0,3.59-2.91,6.5-6.5,6.5-.52,0-.02.12-.5,0,2.87-.67,4-3.43,4-6.5s-1.13-5.83-4-6.5c.48-.12-.02,0,.5,0,3.59,0,6.5,2.91,6.5,6.5Z"/>
  <g>
    <path class="cls-4" d="m86,26l29,34,41.5-8.5-28-33s0-13-6-11l-40.56,11.59c-1.14.32-2.12,1.06-2.72,2.08-1.21,2.04-1.74,5.18,6.78,4.84Z"/>
    <path class="cls-6" d="m83.5,35.5l29,33,45.93-9-1.69-7.01c-.13-.55-.68-.9-1.23-.78l-40.51,8.3-29-34s-7.41-.12-7.45-2.31l-.04,8.75c0,.73.34,1.41.91,1.85,1.04.81,2.78,1.86,4.09,1.21Z"/>
    <circle class="cls-7" cx="96" cy="25" r=".5"/>
    <path class="cls-7" d="m102.5,22v.5-1,.5Z"/>
    <circle class="cls-7" cx="108" cy="26" r=".5"/>
    <circle class="cls-7" cx="108" cy="21" r=".5"/>
    <circle class="cls-7" cx="102" cy="30" r=".5"/>
    <path class="cls-7" d="m112.5,32.5h-1,1Z"/>
    <circle class="cls-7" cx="113" cy="30" r=".5"/>
    <path class="cls-7" d="m123.5,25.5h-1,1Z"/>
  </g>
  <path class="cls-4" d="m195.5,84.5h-29v-6.6c3.85,1.44,8.48,2.1,14,1.6,5.93,0,10.54-1.17,14.1-3.08l.9,8.08Z"/>
  <path class="cls-4" d="m195.42,41.15l-.47-8.07c-2.93,1.61-9.58,3.07-17.38,3.65-7.78.58-14.55.13-17.71-1.01l-1.33,7.59c-4.82,2.44-8.03,6.12-8.03,11.19,0,3.77,1.03,8.32,3.38,12.5,2.54,4.55,6.63,8.67,12.62,10.9,3.85,1.44,8.48,2.1,14,1.6,5.93,0,10.54-1.17,14.1-3.08,10.25-5.49,11.9-17.14,11.9-24.92,0-5.72-4.68-8.77-11.08-10.35Zm2.08,27.35l-27,4-2-15,1.44-.05,2.45-.08c.1-6.8,1.44-16.21,9.4-.33l.76-.02c.24-5,1.57-19.88,8.64-.3l1.68-.06,4.63-.16v12Z"/>
  <path class="cls-4" d="m194.95,33.08c-2.93,1.61-9.58,3.07-17.38,3.65-7.78.58-14.55.13-17.71-1.01l.45-2.27.31-1.53.3-1.5.09-.46,33.41-2.23h.21s.12,2.06.12,2.06h0s.07,1.23.07,1.23l.13,2.06Z"/>
  <path class="cls-4" d="m197.5,56.5v12l-27,4-2-15,1.44-.05,2.45-.08c.1-6.8,1.44-16.21,9.4-.33l.76-.02c.24-5,1.57-19.88,8.64-.3l1.68-.06,4.63-.16Z"/>
  <path class="cls-4" d="m196.4,29.23c.03.36-.17.72-.57,1.09-.28-.19-.65-.36-1.08-.52h0s-.12-2.08-.12-2.08c1.1.42,1.73.93,1.77,1.51Z"/>
  <path class="cls-7" d="m160.31,33.45c2.9,1.25,9.72,1.77,17.6,1.18,7.59-.57,14.05-2.01,16.91-3.61"/>
  <path class="cls-4" d="m161.01,29.96l-.39,1.96c-.59.25-1.09.51-1.49.77h-.01c-.18-.2-.28-.41-.3-.63-.05-.7.74-1.42,2.19-2.1Z"/>
  <path class="cls-4" d="m160.31,33.45l-.45,2.27c-1.16-.42-1.84-.93-1.88-1.52-.04-.5.37-1.01,1.14-1.51h.01c.25.29.65.53,1.18.76Z"/>
  <path class="cls-4" d="m196.56,31.3c.05.59-.53,1.2-1.61,1.78l-.13-2.06c.42-.23.76-.46,1.01-.7.45.3.7.63.73.98Z"/>
  <ellipse class="cls-4" cx="177.57" cy="28.49" rx="17" ry="3.99" transform="translate(-1.64 13.39) rotate(-4.3)"/>
  <path class="cls-7" d="m199.5,66.5c0-33.25-4.81-17.13-6.63-9.84-.43,1.7-.69,2.92-.69,2.92-.34-1.03-.67-1.98-.99-2.86"/>
  <path class="cls-7" d="m181.79,57.04c.23.47.47.95.71,1.46,0,0,.01-.58.05-1.48"/>
  <path class="cls-7" d="m164.49,69.47c-.14-.67-2.43-11.54-2.36-17.33-.01,0-.01,0,0-.02"/>
  <path class="cls-7" d="m167.82,53.66c.64,1.07,1.34,2.33,2.12,3.79.73,1.36,1.5,2.89,2.35,4.62.07.14.14.29.21.43,0,0-.16-2.35-.11-5.13"/>
  <path class="cls-7" d="m164.5,69.5s0-.01-.01-.03c-14.99-35.95-10.61-2.47-10.61-2.47"/>
  <polygon points="197.5 56.5 197.5 68.5 170.5 72.5 168.5 57.5 169.94 57.45 172.39 57.37 181.79 57.04 182.55 57.02 191.19 56.72 192.87 56.66 197.5 56.5"/>
  <path class="cls-4" d="m170.07,39.98l17.43-28.48s6-1,6,3l-20.89,25.48s1.89,8.52-3.11,12.52-7,1-7,1c0,0-3.87-10.03,7.57-13.52Z"/>
  <text class="cls-1" transform="translate(240.22 73.21)"><tspan x="0" y="0">Je</tspan><tspan class="cls-10" x="63.04" y="0">n</tspan><tspan x="98.04" y="0">’s </tspan><tspan class="cls-2" x="151.96" y="0">K</tspan><tspan x="198.47" y="0">i</tspan><tspan class="cls-9" x="217.79" y="0">t</tspan><tspan class="cls-8" x="239.22" y="0">c</tspan><tspan x="269.32" y="0">hen</tspan></text>
</svg>