<?xml version="1.0" encoding="utf-8"?>
<!-- Generator: Adobe Illustrator 27.4.0, SVG Export Plug-In . SVG Version: 6.00 Build 0)  -->
<svg version="1.1" xmlns="http://www.w3.org/2000/svg" xmlns:xlink="http://www.w3.org/1999/xlink" x="0px" y="0px"
	 viewBox="0 0 792 612" style="enable-background:new 0 0 792 612;" xml:space="preserve">
<style type="text/css">
	.st0{fill:#262669;}
	.st1{fill:#E6E7E8;}
	.st2{fill:#ED7E48;stroke:#DD4837;stroke-width:0.7266;stroke-miterlimit:10;}
	.st3{fill:#FBD2DB;stroke:#ED4E9B;stroke-width:0.7266;stroke-miterlimit:10;}
	.st4{fill:#ED4E9B;stroke:#ED4E9B;stroke-width:0.7266;stroke-miterlimit:10;}
	.st5{stroke:#C7DA2F;stroke-width:8.7192;stroke-miterlimit:10;}
	.st6{fill:#FFFBFD;}
	.st7{fill:#C7DA2F;}
	.st8{font-family:'CCMonsterMashWorn';}
	.st9{font-size:24px;}
	.st10{font-size:29px;}
	.st11{fill:#0DB14B;}
	.st12{fill:#0F9146;}
	.st13{fill:#D1D3D4;}
	.st14{fill:#ED4E9B;}
	.st15{fill:#6D6E71;}
	.st16{fill:#F3B2C4;}
	.st17{fill:#BDC931;}
	.st18{fill:#FBD2DB;}
	.st19{fill:#FFFFFF;}
	.st20{fill:none;stroke:#F3B2C4;stroke-miterlimit:10;}
	.st21{fill:#D84893;}
	.st22{font-size:23px;}
	.st23{fill:none;stroke:#F3B2C4;stroke-width:1.0069;stroke-miterlimit:10;}
	.st24{font-size:21px;}
	.st25{fill:#BD3C85;}
</style>
<g id="background">
	<rect class="st0" width="792" height="612"/>
</g>
<g id="worm">
	<g>
		<path class="st1" d="M240.3,99.7c0,12.9-51.7,12.4-113.3,23.4C69.3,133.4,13.8,112.6,13.8,99.7s52.9-7,113.3-23.4
			C189.1,59.4,240.3,86.7,240.3,99.7z"/>
		<polygon class="st2" points="152.7,67.9 152.7,67.9 152.7,67.9 		"/>
		<g>
			<path class="st3" d="M85,51.1c0.2,0.1,0.5,0.2,0.8,0.2c1.3,0,2.4-1.5,2.4-3.3c0-1.8-1.1-3.3-2.4-3.3c-0.3,0-0.5,0.1-0.8,0.2
				c0.5,0.9,0.8,1.9,0.8,3.1C85.8,49.2,85.5,50.3,85,51.1z"/>
			<path class="st3" d="M80.2,52.6c0.5,0.4,1.1,0.6,1.7,0.6c1.3,0,2.4-0.8,3.1-2c0.5-0.9,0.8-1.9,0.8-3.1c0-1.2-0.3-2.2-0.8-3.1
				c-0.7-1.2-1.8-2-3.1-2c-0.6,0-1.2,0.2-1.7,0.6c1.1,1,1.7,2.7,1.7,4.6C82,49.9,81.3,51.6,80.2,52.6z"/>
			<path class="st3" d="M78.4,46c0.3,0.8,0.5,1.6,0.5,2.6c0,0.7-0.1,1.4-0.3,2c-0.3,1.2-1,2.1-1.8,2.8c0.3,0.1,0.7,0.2,1.1,0.2
				c0.9,0,1.7-0.4,2.3-1c1.1-1,1.7-2.7,1.7-4.6c0-1.9-0.7-3.6-1.7-4.6c-0.7-0.6-1.5-1-2.3-1c-0.7,0-1.3,0.2-1.8,0.6
				C77.1,43.7,77.9,44.7,78.4,46z"/>
			<path class="st3" d="M76.2,48.3c0.4,2.4-0.5,4.7-2,6.2c1-0.1,1.9-0.5,2.6-1.1c0.8-0.7,1.5-1.7,1.8-2.8c0.2-0.6,0.3-1.3,0.3-2
				c0-0.9-0.2-1.8-0.5-2.6c-0.5-1.3-1.3-2.3-2.4-2.9c-0.7-0.4-1.4-0.6-2.2-0.6c-0.7,0-1.3,0.2-1.9,0.4
				C74.1,43.7,75.8,45.8,76.2,48.3z"/>
			<path class="st3" d="M73,49.2c0.4,2.7-0.4,5.3-2,6.9c1.2-0.2,2.3-0.8,3.1-1.6c1.6-1.5,2.4-3.8,2-6.2c-0.4-2.6-2.1-4.6-4.2-5.5
				c-1-0.4-2.1-0.5-3.1-0.4c-0.3,0-0.6,0.1-0.9,0.2C70.4,43.5,72.5,46,73,49.2z"/>
			<path class="st3" d="M69.8,47.4c1.6,3.2,1.2,6.7-0.7,8.7c-0.4,0.4-0.8,0.7-1.3,0.9c-0.4,0.2-0.9,0.4-1.4,0.4
				c-0.1,0.1-0.2,0.2-0.2,0.3c0.6,0.1,1.1,0.1,1.7,0c1.2-0.2,2.3-0.8,3.1-1.6c1.6-1.6,2.4-4.2,2-6.9c-0.5-3.2-2.6-5.7-5.1-6.4h0
				c-0.8-0.2-1.5-0.3-2.3-0.2c-0.4,0.1-0.8,0.2-1.2,0.3c0.6,0.1,1.2,0.4,1.8,0.7C67.6,44.4,68.9,45.7,69.8,47.4z"/>
			<path class="st3" d="M64.3,45.9c2.4,1.5,3.9,3.9,3.9,6.7c0,1.1-0.2,2.1-0.7,3.1c-0.3,0.6-0.7,1.3-1.2,1.8
				c0.5-0.1,0.9-0.2,1.4-0.4c0.5-0.2,0.9-0.6,1.3-0.9c2-2,2.3-5.5,0.7-8.7c-0.9-1.7-2.2-3-3.6-3.8c-0.6-0.3-1.2-0.6-1.8-0.7
				c-1.2-0.3-2.4-0.1-3.5,0.4c-0.5,0.3-1,0.6-1.4,1c0.9,0,1.7,0.2,2.4,0.4C62.8,45,63.6,45.4,64.3,45.9z"/>
			<path class="st3" d="M65.8,55.2c0,1.4-0.4,2.7-1.2,3.9c0.6-0.4,1.1-0.8,1.5-1.3c0.1-0.1,0.2-0.2,0.2-0.3c0.5-0.6,0.9-1.2,1.2-1.8
				c0.4-1,0.7-2,0.7-3.1c0-2.8-1.6-5.2-3.9-6.7c-0.7-0.5-1.5-0.8-2.4-1.1c-0.8-0.2-1.6-0.4-2.4-0.4c-0.2,0-0.4,0-0.6,0
				c-2.8,0-5.3,1.1-7,2.8c1-0.3,2.2-0.4,3.3-0.4C61.1,46.7,65.8,50.5,65.8,55.2z"/>
			<path class="st3" d="M53,49.3c5.8,0,10.5,3.8,10.5,8.5c0,0.7-0.1,1.4-0.3,2.1c-0.1,0.2-0.1,0.4-0.2,0.6v0
				c0.1,0.1,0.1,0.2,0.2,0.3l0,0c0.6-0.5,1.1-1.1,1.5-1.7c0.8-1.2,1.2-2.5,1.2-3.9c0-4.7-4.8-8.5-10.7-8.5c-1.2,0-2.3,0.1-3.3,0.4
				c-3.1,0.8-5.7,2.7-6.8,5.2c1.3-1.3,3.1-2.2,5.1-2.7C51,49.5,52,49.3,53,49.3z"/>
			<path class="st3" d="M49.6,53.7c0.6-0.1,1.2-0.1,1.8-0.1c4.3,0,8,2.2,10,5.5l0,0c0.6,0.4,1.1,0.9,1.5,1.4v0
				c0.1-0.2,0.1-0.4,0.2-0.6c0.2-0.7,0.3-1.4,0.3-2.1c0-4.7-4.7-8.5-10.5-8.5c-1,0-2,0.1-2.9,0.3c-2,0.5-3.8,1.4-5.1,2.7
				c-1.5,1.4-2.4,3.1-2.5,5.1c0.6-0.6,1.2-1.2,1.9-1.7C45.9,54.7,47.7,54,49.6,53.7z"/>
			<path class="st3" d="M53,56.2c3.2,0,6.2,1.1,8.4,2.8l0,0c-2-3.3-5.7-5.5-10-5.5c-0.6,0-1.2,0-1.8,0.1c-1.9,0.3-3.7,1-5.1,2.1
				c-0.7,0.5-1.3,1-1.9,1.7c0,0,0,0,0,0c-1.7,1.9-2.7,4.4-2.7,7c0,1.3,0.2,2.5,0.7,3.7c0,0,0,0,0,0c0-0.3-0.1-0.7-0.1-1
				C40.5,61.1,46.1,56.2,53,56.2z"/>
			<path class="st3" d="M54.5,59c3.2,0,6.2,1,8.4,2.8c0.3-0.1,0.6-0.1,0.9-0.2c-0.2-0.3-0.4-0.6-0.6-0.8c-0.1-0.1-0.1-0.2-0.2-0.3
				c-0.5-0.5-1-1-1.5-1.4c-2.2-1.8-5.2-2.8-8.4-2.8c-6.9,0-12.5,4.9-12.5,10.9c0,0.3,0,0.7,0.1,1c0.2,1.7,0.8,3.2,1.7,4.6
				c-0.3-0.9-0.4-1.8-0.4-2.8C41.8,63.9,47.5,59,54.5,59z"/>
			<path class="st3" d="M48,77.1c-0.8-1.5-1.3-3.1-1.3-4.8c0-6,5.6-10.9,12.5-10.9c1.2,0,2.4,0.1,3.5,0.4c0.1,0,0.2,0,0.3-0.1
				C60.7,60,57.8,59,54.5,59c-7,0-12.7,4.9-12.7,10.9c0,1,0.1,1.9,0.4,2.8c1.1,3.6,4.3,6.5,8.5,7.6C49.6,79.4,48.7,78.3,48,77.1z"/>
			<path class="st3" d="M53.5,78c-0.3-1.2-0.5-2.4-0.5-3.6c0-6,4.1-11.1,9.7-12.6c-1.1-0.3-2.3-0.4-3.5-0.4
				c-6.9,0-12.5,4.9-12.5,10.9c0,1.7,0.5,3.4,1.3,4.8c0.7,1.2,1.6,2.3,2.7,3.2c1.5,1.2,3.4,2.1,5.5,2.6c-0.6-0.6-1-1.3-1.5-2.1
				C54.2,79.9,53.8,79,53.5,78z"/>
			<path class="st3" d="M59.9,83.2c-0.7-0.9-1.2-1.8-1.6-2.9c-0.4-0.9-0.7-2-0.8-3c-0.1-0.6-0.1-1.3-0.1-2c0-5.2,3.1-9.8,7.6-11.8
				c0,0,0,0,0,0c0.4-0.2,0.7-0.3,1.1-0.4c1.4-0.5,2.8-0.7,4.3-0.7c0.2,0,0.4,0,0.7,0c-1.5-0.6-3.2-1-4.9-1c-0.8,0-1.5,0.1-2.2,0.2
				c-0.3,0-0.6,0.1-0.9,0.2c-0.1,0-0.2,0-0.3,0.1c-5.6,1.5-9.7,6.5-9.7,12.6c0,1.3,0.2,2.5,0.5,3.6c0.3,1,0.7,1.9,1.2,2.8
				c0.4,0.7,0.9,1.4,1.5,2.1c2.2,2.6,5.5,4.3,9.2,4.5C63.2,86.5,61.3,85,59.9,83.2z"/>
			<path class="st3" d="M68.2,87.2c-2.2-1-4-2.5-5.3-4.5c-0.7-1.1-1.3-2.3-1.7-3.5c-0.3-1.1-0.5-2.2-0.6-3.4v0c0-0.1,0-0.3,0-0.4
				c0-4.1,1.9-7.7,4.8-10.1c0.1-0.1,0.3-0.2,0.5-0.4c0.5-0.3,1-0.7,1.5-1c1.2-0.7,2.6-1.2,4.1-1.4c0.2,0,0.4-0.1,0.6-0.1
				c-0.3,0-0.7-0.1-1-0.1h0c-0.2,0-0.4,0-0.7,0c-1.5,0-3,0.3-4.3,0.7c-0.4,0.1-0.7,0.3-1.1,0.4c0,0,0,0,0,0
				c-4.5,2.1-7.6,6.6-7.6,11.8c0,0.7,0,1.3,0.1,2c0.2,1,0.4,2,0.8,3c0.4,1,1,2,1.6,2.9c1.4,1.8,3.3,3.3,5.4,4.2h0
				c1.5,0.6,3.2,1,4.9,1c0.6,0,1.1,0,1.6-0.1C70.6,88.1,69.4,87.7,68.2,87.2C68.3,87.2,68.3,87.2,68.2,87.2z"/>
			<path class="st3" d="M70.5,86.4c-2-1.2-3.7-2.8-4.9-4.9c-0.8-1.3-1.3-2.8-1.6-4.4v0c-0.1-0.7-0.2-1.4-0.2-2.1
				c0-0.9,0.1-1.8,0.3-2.7c0,0,0,0,0,0c0.3-1.5,0.9-2.9,1.7-4.1c0.4-0.6,0.8-1.2,1.3-1.7c0.6-0.7,1.2-1.2,1.9-1.8
				c1.1-0.9,2.4-1.6,3.8-2c0.3-0.1,0.7-0.2,1-0.3h0c0.1,0,0.2,0,0.3-0.1c-0.1,0-0.2,0-0.4,0c-0.6,0-1.1,0-1.7,0.1
				c-0.2,0-0.4,0-0.6,0.1c-1.5,0.3-2.8,0.7-4.1,1.4c-0.5,0.3-1,0.6-1.5,1c-0.2,0.1-0.3,0.2-0.5,0.4c-2.9,2.4-4.8,6-4.8,10.1
				c0,0.1,0,0.3,0,0.4v0c0,1.2,0.2,2.3,0.6,3.4c0.4,1.3,1,2.5,1.7,3.5c1.3,1.9,3.2,3.5,5.3,4.5c0,0,0,0,0,0c1.2,0.5,2.4,0.9,3.7,1.1
				c0.6,0.1,1.1,0.1,1.7,0.1c0.4,0,0.9-0.3,1.3-0.5c-0.4-0.1-0.8-0.1-1.2-0.2C72.5,87.4,71.5,87,70.5,86.4z"/>
			<path class="st3" d="M77.5,87.8c-0.6-0.2-1.1-0.4-1.7-0.6c-1-0.5-2-1.1-2.8-1.8c-1.9-1.6-3.4-3.7-4.1-6.1
				c-0.4-1.2-0.6-2.5-0.6-3.9c0-2.8,0.9-5.4,2.4-7.5c1-1.4,2.2-2.6,3.7-3.5c0.5-0.3,1-0.6,1.5-0.8c0.5-0.3,1.1-0.5,1.7-0.6h0
				c0.5-0.2,0.9-0.3,1.5-0.4c0.1,0,0.2,0,0.3,0v-0.3c-0.8-0.1-1.6-0.2-2.4-0.2c-0.5,0-1,0-1.5,0.1c0,0,0,0,0,0
				c-0.5,0.1-0.9,0.1-1.4,0.2c-0.1,0-0.2,0-0.3,0.1h0c-0.4,0.1-0.7,0.2-1,0.3c-1.4,0.5-2.6,1.2-3.8,2c-0.7,0.5-1.3,1.1-1.9,1.8
				c-0.5,0.5-0.9,1.1-1.3,1.7c-0.8,1.2-1.3,2.6-1.7,4.1c0,0,0,0,0,0c-0.2,0.9-0.3,1.8-0.3,2.7c0,0.7,0.1,1.4,0.2,2.1v0
				c0.3,1.6,0.8,3.1,1.6,4.4c1.2,2,2.9,3.7,4.9,4.9c1,0.6,2.1,1,3.2,1.3c0.4,0.1,0.8,0.2,1.2,0.2c0.1,0,0.3,0,0.4,0.1c0,0,0,0,0,0
				c0.5,0.1,1,0.1,1.5,0.1c0.5,0,0.9,0,1.4-0.1C78,87.9,77.7,87.9,77.5,87.8L77.5,87.8z"/>
			<path class="st3" d="M82.6,86.4c-0.5-0.1-1-0.2-1.5-0.3c-0.8-0.2-1.5-0.5-2.2-0.9c-1.1-0.6-2.1-1.3-3-2.3c-2-2.1-3.3-5-3.3-8.2
				c0-3.3,1.4-6.3,3.6-8.4c0.6-0.5,1.2-1,1.8-1.4c0.6-0.4,1.2-0.7,1.8-1c0.6-0.2,1.1-0.4,1.7-0.6h0c0.9-0.2,1.8-0.3,2.8-0.3
				c0.4,0,0.8,0,1.2,0.1c-1.3-0.5-2.8-0.7-4.2-0.7c-0.7,0-1.4,0.1-2.1,0.2c-0.1,0-0.2,0-0.3,0c-0.5,0.1-1,0.2-1.5,0.4h0
				c-0.6,0.2-1.1,0.4-1.7,0.6c-0.5,0.2-1,0.5-1.5,0.8c-1.4,0.9-2.7,2.1-3.7,3.5c-1.5,2.1-2.4,4.7-2.4,7.5c0,1.4,0.2,2.7,0.6,3.9
				c0.8,2.4,2.2,4.5,4.1,6.1c0.9,0.7,1.8,1.3,2.8,1.8c0.5,0.3,1.1,0.5,1.7,0.6h0c0.2,0.1,0.5,0.1,0.8,0.2c0.2,0.1,0.4,0.1,0.7,0.2
				c0,0,0,0,0,0c0.8,0.1,1.6,0.2,2.4,0.2c1.3,0,2.6-0.2,3.8-0.6c-0.7-0.3-1.4-0.7-2.1-1.2C82.9,86.6,82.7,86.5,82.6,86.4z"/>
			<path class="st3" d="M81.5,63.3L81.5,63.3c-0.6,0.1-1.2,0.3-1.7,0.6c-0.6,0.3-1.2,0.6-1.8,1c-0.6,0.4-1.2,0.9-1.8,1.4
				c-2.2,2.1-3.6,5.1-3.6,8.4c0,3.2,1.2,6,3.3,8.2c0.9,0.9,1.9,1.7,3,2.3c0.7,0.4,1.4,0.7,2.2,0.9c0.5,0.1,1,0.3,1.5,0.3
				c-0.3-0.2-0.6-0.5-0.9-0.7c-0.6-0.5-1.1-1.1-1.6-1.7c-1-1.2-1.7-2.6-2.2-4.1c-0.4-1.3-0.6-2.6-0.6-4c0-1.9,0.4-3.8,1.2-5.4
				c1.5-3.3,4.4-5.9,7.8-7c0.1,0,0.2-0.1,0.3-0.1c-0.3-0.1-0.7-0.1-1-0.1c0,0,0,0,0,0c-0.4,0-0.8-0.1-1.2-0.1
				C83.4,63,82.4,63.1,81.5,63.3z"/>
			<path class="st3" d="M85,86.5c-2.9-2.5-4.7-6.1-4.7-10.3c0-5.6,3.4-10.4,8.2-12.4h0c1.1-0.5,2.3-0.8,3.6-1
				c-0.6-0.1-1.1-0.1-1.7-0.1c-1.3,0-2.6,0.2-3.7,0.5h0c-0.1,0-0.2,0.1-0.3,0.1c-3.5,1.1-6.3,3.7-7.8,7c-0.8,1.7-1.2,3.5-1.2,5.4
				c0,1.4,0.2,2.8,0.6,4c0.5,1.5,1.2,2.9,2.2,4.1c0.5,0.6,1,1.2,1.6,1.7c0.3,0.3,0.6,0.5,0.9,0.7c0.1,0.1,0.3,0.2,0.5,0.3
				c0.6,0.5,1.4,0.8,2.1,1.2c1.2,0.5,2.5,0.9,3.9,1C87.5,88.3,86.2,87.5,85,86.5z"/>
			<path class="st3" d="M87.9,85.9c-2.4-2.6-3.8-6-3.8-9.7c0-4.8,2.4-9.1,6.1-11.7c0.9-0.6,1.8-1.2,2.9-1.6c0,0,0,0,0,0
				c0.2-0.1,0.5-0.2,0.7-0.3c-0.6,0-1.1,0-1.6,0.1c-1.2,0.2-2.4,0.5-3.6,1h0c-4.8,2.1-8.2,6.9-8.2,12.4c0,4.1,1.8,7.8,4.7,10.3
				c1.2,1,2.5,1.8,4,2.4h0c1.5,0.6,3,0.9,4.7,0.9c-0.7-0.2-1.4-0.5-2-0.9C90.2,88.1,89,87.1,87.9,85.9z"/>
			<path class="st3" d="M94.8,88.1c-1.4-1-2.7-2.3-3.6-3.8c-1.5-2.3-2.4-5.1-2.4-8.1c0-3.8,1.4-7.3,3.8-9.9c0.9-1,1.9-1.9,3-2.6
				c0.4-0.3,0.9-0.5,1.3-0.7c0.9-0.4,1.7-0.8,2.7-1.1c-0.4,0-0.8,0-1.2,0c-1.6,0-3.2,0.3-4.6,0.8c-0.2,0.1-0.5,0.2-0.7,0.3
				c0,0,0,0,0,0c-1,0.4-2,0.9-2.9,1.6c-3.7,2.6-6.1,6.8-6.1,11.7c0,3.8,1.5,7.2,3.8,9.7c1.1,1.2,2.4,2.1,3.8,2.9
				c0.6,0.3,1.3,0.6,2,0.9c1.5,0.5,3,0.8,4.6,0.8c0.4,0,0.8,0,1.2,0c-0.9-0.3-1.8-0.6-2.7-1.1C96.1,89,95.4,88.6,94.8,88.1z"/>
			<path class="st3" d="M101.6,90.1c-0.8-0.5-1.5-1-2.2-1.6c-0.6-0.6-1.2-1.2-1.8-1.8c-1.5-1.7-2.6-3.8-3.2-6
				c-0.4-1.4-0.6-2.9-0.6-4.4c0-2.2,0.5-4.4,1.3-6.3c0.8-1.8,1.8-3.4,3.1-4.8c0.4-0.5,0.9-0.9,1.4-1.3c0.7-0.6,1.5-1.2,2.3-1.6
				c0.6-0.3,1.2-0.7,1.9-0.9c-0.1,0-0.3,0-0.4,0c-1.4,0-2.7,0.2-3.9,0.5c0,0,0,0,0,0c-0.9,0.3-1.8,0.6-2.7,1.1
				c-0.4,0.2-0.9,0.5-1.3,0.7c-1.1,0.7-2.1,1.6-3,2.6c-2.4,2.6-3.8,6.1-3.8,9.9c0,3,0.9,5.8,2.4,8.1c1,1.5,2.2,2.8,3.6,3.8
				c0.6,0.5,1.3,0.9,2,1.2c0.9,0.4,1.7,0.8,2.7,1.1c0,0,0,0,0,0c1.2,0.3,2.4,0.5,3.7,0.5C102.7,90.7,102.2,90.4,101.6,90.1
				C101.6,90.1,101.6,90.1,101.6,90.1z"/>
			<path class="st3" d="M103.5,89.5c-0.7-0.7-1.4-1.5-2-2.3c-0.6-0.8-1.1-1.7-1.6-2.6c-1.1-2.2-1.7-4.7-1.7-7.4c0-3.4,1-6.5,2.7-9.1
				c0.5-0.8,1-1.5,1.6-2.2c0.8-0.9,1.6-1.6,2.5-2.3c0,0,0,0,0,0c0.8-0.6,1.7-1.1,2.6-1.6c1.5-0.8,3.1-1.3,4.8-1.6
				c-0.9-0.2-1.8-0.2-2.7-0.2c-2.1,0-4.2,0.4-6,1.2c-0.7,0.3-1.3,0.6-1.9,0.9c-0.8,0.5-1.6,1-2.3,1.6c-0.5,0.4-1,0.8-1.4,1.3
				c-1.3,1.4-2.4,3-3.1,4.8c-0.8,1.9-1.3,4.1-1.3,6.3c0,1.5,0.2,3,0.6,4.4c0.6,2.2,1.7,4.3,3.2,6c0.5,0.6,1.1,1.2,1.8,1.8
				c0.7,0.6,1.4,1.1,2.2,1.6c0,0,0,0,0,0c0.5,0.3,1.1,0.6,1.6,0.9c0,0,0,0,0,0c1.2,0.5,2.5,0.9,3.9,1.2c-0.7-0.4-1.3-0.8-2-1.3
				C104.6,90.5,104.1,90,103.5,89.5z"/>
			<path class="st3" d="M106.5,80.9L106.5,80.9L106.5,80.9c-0.2-1-0.3-2.1-0.3-3.2c0-8.2,5.6-15.1,13.3-16.9
				c-1.3-0.3-2.7-0.5-4.2-0.5c-0.9,0-1.9,0.1-2.8,0.2h0c-1.7,0.3-3.3,0.8-4.8,1.6c-0.9,0.4-1.8,1-2.6,1.6c0,0,0,0,0,0
				c-0.9,0.7-1.7,1.5-2.5,2.3c-0.6,0.7-1.2,1.4-1.6,2.2c-1.7,2.6-2.7,5.8-2.7,9.1c0,2.6,0.6,5.1,1.7,7.4c0.4,0.9,1,1.8,1.6,2.6
				c0.6,0.8,1.2,1.6,2,2.3c0.5,0.5,1.1,1,1.6,1.4c0.6,0.5,1.3,0.9,2,1.3c2.4,1.3,5.2,2.1,8.2,2.1c0.8,0,1.5,0,2.3-0.2
				c-1.5-0.5-2.8-1.3-4.1-2.1C109.9,89.4,107.3,85.4,106.5,80.9z"/>
			<path class="st3" d="M114.5,79.2c0-9.1,6.8-16.6,15.7-17.6c-2-0.8-4.2-1.3-6.6-1.3c-1.4,0-2.8,0.2-4.2,0.5h0
				c-7.6,1.9-13.3,8.7-13.3,16.9c0,1.1,0.1,2.1,0.3,3.2v0v0c0.8,4.6,3.4,8.5,7,11.1c1.2,0.9,2.6,1.6,4.1,2.1c1.9,0.7,3.9,1.1,6,1.1
				c0.3,0,0.5,0,0.8,0C118.6,92.2,114.5,86.2,114.5,79.2z"/>
			<path class="st3" d="M120.9,83.6c0-9,6-16.6,14.3-19c1.7-0.5,3.6-0.8,5.5-0.8c0.2,0,0.4,0,0.6,0c-2.6-1.5-5.7-2.4-9-2.4
				c-0.7,0-1.4,0-2.1,0.1h0c-8.8,1-15.7,8.5-15.7,17.6c0,7,4,13.1,9.9,15.9c0.1,0,0.1,0.1,0.2,0.1c0,0,0-0.1-0.1-0.1
				C122.3,91.9,120.9,87.9,120.9,83.6z"/>
			<path class="st3" d="M126.6,88.8c0-11.8,9.6-21.4,21.4-21.4c1.6,0,3.2,0.2,4.7,0.5c0,0,0,0,0,0c-3.2-2.4-7.1-3.9-11.4-4.1
				c-0.2,0-0.4,0-0.6,0c-1.9,0-3.8,0.3-5.5,0.8c-8.2,2.4-14.3,10-14.3,19c0,4.3,1.4,8.2,3.7,11.5c0,0,0,0.1,0.1,0.1
				c1.5,2,3.3,3.8,5.4,5.1l0,0C127.9,97,126.6,93,126.6,88.8z"/>
			<path class="st3" d="M132.3,96.2c0-13.1,10.6-23.8,23.8-23.8c2.4,0,4.7,0.3,6.9,1c-2.8-2.7-6.3-4.7-10.2-5.5c0,0,0,0,0,0
				c0,0,0,0,0,0c-1.5-0.3-3.1-0.5-4.7-0.5c-11.8,0-21.4,9.6-21.4,21.4c0,4.3,1.3,8.2,3.4,11.6c1.1,1.6,2.3,3.1,3.8,4.4h0
				C132.8,102.1,132.3,99.2,132.3,96.2z"/>
			<path class="st3" d="M160.5,77.7c6,0,11.5,2.3,15.7,6c-3-4.8-7.7-8.5-13.3-10.2c0,0,0,0,0,0c-2.2-0.7-4.5-1-6.9-1
				c-13.1,0-23.8,10.6-23.8,23.8c0,3,0.6,5.9,1.6,8.5c0,0,0,0,0,0c1.4,3.6,3.6,6.8,6.5,9.3c-2.3-3.6-3.6-8-3.6-12.6
				C136.7,88.4,147.4,77.7,160.5,77.7z"/>
		</g>
		<path class="st4" d="M137.2,106.6c0.6,2.7-0.3,5.2,1.1,7.5c-2.8-2.5-3.2-5.7-4.5-9.3c0,0,0,0,0,0h0c-1.5-1.3-2.7-2.8-3.8-4.4
			c-2.1-1.3-4-3.1-5.4-5.1c-0.1,0-0.1-0.1-0.2-0.1c-0.3,0-0.5,0-0.8,0c-2.1,0-4.1-0.4-6-1.1c-0.8,0.1-1.5,0.2-2.3,0.2
			c-3,0-5.8-0.8-8.2-2.1c-1.4-0.2-2.6-0.6-3.9-1.2c0,0,0,0,0,0c-1.3,0-2.6-0.2-3.7-0.5c0,0,0,0,0,0c-0.4,0-0.8,0.1-1.2,0.1
			c-1.6,0-3.2-0.3-4.6-0.8c-1.6,0-3.2-0.3-4.7-0.9h0c-1.4-0.1-2.7-0.5-3.9-1c-1.2,0.4-2.5,0.6-3.8,0.6c-0.8,0-1.6-0.1-2.4-0.2
			c0,0,0,0,0,0c-0.2,0-0.5-0.1-0.7-0.2c-0.5,0.1-0.9,0.1-1.4,0.1c-0.5,0-1,0-1.4-0.1h0c-0.1,0-0.3,0-0.4-0.1
			c-0.4,0.1-0.9,0.5-1.3,0.5c-0.6,0-1.2,0-1.7-0.1c-0.5,0.1-1.1,0.1-1.6,0.1c-1.8,0-3.4-0.3-4.9-1h0c-3.7-0.2-7-1.9-9.2-4.5
			c-2.1-0.4-3.9-1.3-5.5-2.6c-4.1-1.1-7.3-4-8.5-7.6c-0.9-1.4-1.5-2.9-1.7-4.6c0,0,0,0,0,0c-0.4-1.1-0.7-2.4-0.7-3.7
			c0-0.7,0.1-1.4,0.2-2.1c0.1,0.5,0.3,1.1,0.5,1.6c0.2,1.7,0.8,3.2,1.7,4.6c1.1,3.6,4.3,6.5,8.5,7.6c1.5,1.2,3.4,2.1,5.5,2.6
			c2.2,2.6,5.5,4.3,9.2,4.5h0c1.5,0.6,3.2,1,4.9,1c0.6,0,1.1,0,1.6-0.1c0.6,0.1,1.1,0.1,1.7,0.1c0.4,0,0.9-0.3,1.3-0.5
			c0.1,0,0.3,0,0.4,0.1h0c0.5,0.1,1,0.1,1.4,0.1c0.5,0,0.9,0,1.4-0.1c0.2,0.1,0.5,0.1,0.7,0.2c0,0,0,0,0,0c0.8,0.1,1.6,0.2,2.4,0.2
			c1.3,0,2.6-0.2,3.8-0.6c1.2,0.5,2.5,0.9,3.9,1h0c1.5,0.6,3,0.9,4.7,0.9c1.5,0.5,3,0.8,4.6,0.8c0.4,0,0.8,0,1.2,0c0,0,0,0,0,0
			c1.2,0.3,2.4,0.5,3.7,0.5c0,0,0,0,0,0c1.2,0.5,2.5,1,3.9,1.2c2.4,1.3,5.2,2.1,8.2,2.1c0.8,0,1.5-0.1,2.3-0.2
			c1.9,0.7,3.9,1.1,6,1.1c0.3,0,0.5,0,0.8,0c0.1,0,0.1,0.1,0.2,0.1c1.5,2,3.3,3.8,5.4,5.1c1.1,1.6,2.3,3.1,3.8,4.4h0c0,0,0,0,0,0
			C134.7,102.7,135.8,104.7,137.2,106.6z"/>
		<path class="st5" d="M183.8,84.8c-5-4.4-11.6-7.1-18.8-7.1c-15.6,0-28.3,12.7-28.3,28.3c0,5.5,1.6,10.6,4.3,15
			c5,8,13.9,13.3,24,13.3c15.6,0,28.3-12.7,28.3-28.3C193.4,97.6,189.7,90,183.8,84.8z"/>
		<path class="st6" d="M143,96.8c-0.1,1.4,3.1,5.8,8,5.5c0,0-4.3-8.1-3-13.1C147,89.1,143.1,95.4,143,96.8z"/>
		<path class="st6" d="M148.4,88.7c-0.7,1.2,0.5,6.6,5.1,8.3c0,0-0.7-9.1,2.5-13.2C155.2,83.3,149.1,87.5,148.4,88.7z"/>
		<path class="st6" d="M156.6,83.6c-1.1,0.8-2.2,6.2,1.2,9.6c0,0,3.1-8.6,7.7-11C164.9,81.4,157.7,82.8,156.6,83.6z"/>
		<path class="st6" d="M190.1,109.9c-0.6,1.4-5.9,3.8-10.3,1.1c0,0,8.2-5.4,9.5-10.8C190.3,100.6,190.7,108.5,190.1,109.9z"/>
		<path class="st6" d="M189.1,99.5c0,1.5-3.9,5.9-9,5.2c0,0,5.3-8.2,4.4-13.7C185.6,90.9,189.1,98,189.1,99.5z"/>
		<path class="st6" d="M184.1,90.5c0.6,1.4-1.1,7-6.1,8.4c0,0,1.5-9.7-1.6-14.3C177.4,84.1,183.5,89.2,184.1,90.5z"/>
		<path class="st6" d="M184.9,118.9c0.4-1.4-2.1-6.5-7.1-7.1c0,0,2.9,9.1,0.6,14C179.4,126,184.5,120.3,184.9,118.9z"/>
		<path class="st6" d="M177.8,126.1c0.9-1.1,0.7-6.8-3.7-9.4c0,0-1,9.5-5,13.1C169.9,130.4,176.9,127.2,177.8,126.1z"/>
		<path class="st6" d="M168.6,129.8c1.3-0.7,3.4-5.9,0.5-10.1c0,0-4.8,8.2-10,9.8C159.6,130.5,167.3,130.5,168.6,129.8z"/>
		<path class="st6" d="M140.9,108c0.3-1.4,4.9-4.8,9.6-3c0,0-6.8,6.7-7.1,12.1C142.4,116.9,140.6,109.4,140.9,108z"/>
		<path class="st6" d="M143.8,117.7c-0.3-1.4,2.6-6.3,7.6-6.6c0,0-3.5,8.9-1.6,13.9C148.8,125.2,144.1,119.1,143.8,117.7z"/>
		<path class="st6" d="M150.2,125.3c-0.8-1.2-0.3-6.8,4.2-9.2c0,0,0.4,9.5,4.2,13.3C157.9,130.1,151.1,126.5,150.2,125.3z"/>
		<path class="st4" d="M63.8,59.7c-0.2-0.3-0.1-3.3-0.3-3.5c0.6-0.5,0.7-0.8,1.1-1.4c0.6-0.4,1.1-0.8,1.5-1.3c0.6,0.1,1.1,0.1,1.7,0
			c1.2-0.2,2.3-0.8,3.1-1.6c1.2-0.2,2.3-0.8,3.1-1.6c1-0.1,1.9-0.5,2.6-1.1c0.3,0.1,0.7,0.2,1.1,0.2c0.9,0,1.7-0.4,2.3-1
			c0.5,0.4,1.1,0.6,1.7,0.6c1.3,0,2.4-0.8,3.1-2c0.2,0.1,0.5,0.2,0.8,0.2c0.7,0,1.4-0.4,1.9-1.2c0.4,0.6,0.6,1.3,0.6,2.1
			c0,1.8-1.1,3.3-2.4,3.3c-0.3,0-0.5-0.1-0.8-0.2c-0.7,1.2-1.8,2-3.1,2c-0.6,0-1.2-0.2-1.7-0.6c-0.7,0.6-1.5,1-2.3,1
			c-0.4,0-0.7-0.1-1.1-0.2c-0.8,0.7-1.7,1.1-2.6,1.1c-0.9,0.8-1.9,1.4-3.1,1.6c-0.6,0.6-1.3,1.1-2.1,1.4C68,57.3,67,57.2,66,57.2
			C65.3,57.2,64.5,59.6,63.8,59.7z"/>
		<path class="st6" d="M175.7,84.8c-2.9,1.1-7.2,8.1-7.2,8.1s-1.6-9.6-2.3-10.7C167.4,81.1,175.1,82.6,175.7,84.8z"/>
	</g>
	<text transform="matrix(1 0 0 1 16.7047 152.245)"><tspan x="0" y="0" class="st7 st8 st9">MONGOLIAN </tspan><tspan x="-5.6" y="21" class="st7 st8 st9">DEATH WORM</tspan></text>
</g>
<g id="mothman">
	<text transform="matrix(1 0 0 1 625.6096 596.1563)" class="st7 st8 st10">mothman</text>
	<g>
		<path class="st11" d="M685.6,464.5l37.3,44.8c0,0,14-19.2,12.1-28.9c-1.9-9.8,13.3-14.7,10.3-24.7c-2.9-10.1,6.5-16.5,2.7-26.5
			c-3.8-9.9,2.1-20.3,2.1-20.3c2.6-9.4-9.7-15.5-15.7-7.8c0,0-13.4,11.1-14.5,18.9s-11.9,7.4-13.9,18.1
			C704,448.7,685.6,464.5,685.6,464.5z"/>
		<path class="st12" d="M715.7,557.4c0,0,4.8-2.8,4.5-7.7s2.3-8.8,2.3-8.8s3.2-1.5,10.1,0.3c3.7,1,7-1.3,7-1.3c2.5-1.9,4.4-4,1.2-8
			c-3.2-4-7.2-1.9-9.2-12.3c-2-10.4-17.4-18.1-19.1-25.5s-23.5-31.3-23.5-31.3c-0.4-0.6-1.4-0.2-1.2,0.5c0,0,7.5,49.5,10.9,52.8
			s-1.2,14.3,3.7,18.1c5,3.8,1.8,16,4,19.6C708.5,557.3,712.2,560,715.7,557.4z"/>
		<path class="st11" d="M682.9,463.8l-37.3,44.8c0,0-14-19.2-12.1-28.9c1.9-9.8-13.3-14.7-10.3-24.7c2.9-10.1-6.5-16.5-2.7-26.5
			c3.8-9.9-2.1-20.3-2.1-20.3c-2.6-9.4,9.7-15.5,15.7-7.8c0,0,13.4,11.1,14.5,18.9s11.9,7.4,13.9,18.1
			C664.5,448.1,682.9,463.8,682.9,463.8z"/>
		<path class="st12" d="M652.3,558c0,0-4.8-2.8-4.5-7.7s-2.3-8.8-2.3-8.8s-3.2-1.5-10.1,0.3c-3.7,1-7-1.3-7-1.3
			c-2.5-1.9-4.4-4-1.2-8c3.2-4,7.2-1.9,9.2-12.3c2-10.4,17.4-18.1,19.1-25.5c1.7-7.4,23.5-31.3,23.5-31.3c0.4-0.6,1.4-0.2,1.2,0.5
			c0,0-7.5,49.5-10.9,52.8c-3.4,3.3,1.2,14.3-3.7,18.1c-5,3.8-1.8,16-4,19.6S655.8,560.6,652.3,558z"/>
		<path class="st1" d="M670.1,477c-0.4,0.8-1.4,2.9-2.5,5.5C668.1,480.6,669,478.6,670.1,477z"/>
		<path class="st1" d="M662.5,495.7c0.5-2.5,3-8.6,5.1-13.2c1.2-2.6,2.2-4.7,2.5-5.5c0,0,0,0,0,0c0.1-0.1,0.1-0.2,0.2-0.2
			c1.7-2.4,4-4,6.8-4h14.2c3.3,0,5.1,2.2,6.1,5.3c0,0,0,0,0,0c1.8,3.8,6.5,14.1,7.1,17.6c0,0,0.3,0.9,2.7,2.5c0,0,3.6-0.2,4,2.4
			c0,0,2.6,1.7,1,3.1c0,0,1.5,2.2-0.1,4c0,0-0.8,1.5-3.5,3.1c0.2-0.3,3.6-5.2,2.2-5.8l-3.6,0.5l2.5-2.4c0,0-2.6-1.2-3.9,0.3
			c-1.1,1.3-1.7,2.1-1.8,2.3c0.2-0.5,1.8-4.7,2.6-4.9c0.6-0.1,0.8-0.2,0.9-0.2c-0.1,0-0.5,0-1.1,0.1c-0.8,0.1-1.9,0.2-3.3,0.3
			c0,0-1.9,0.4-3.6-1.6l-2.4-4.1l-3.8,18.9c0,2.1,0.1,4.4,0.1,6.5l9.5,25.7c0.1,0.2,0.1,0.5,0.2,0.7c0.1,0.3,0.1,0.5,0.1,0.8v19.7
			l1.9,0.7c1.4,0.5,1.9,2.1,1.6,3.5l-0.2,0.5c-0.5,1.4-2.8,1.8-4.2,1.3l-3.6-1.3c-0.2-0.1-0.5-0.2-0.7-0.4c-1.1-0.6-1.8-1.7-1.8-3
			v-19.9c0-0.1-0.1-0.1-0.1-0.2l-7.3-19.8c-0.2,0-0.5,0.1-0.7,0.1h-7.9c-0.5,0-0.9,0-1.3-0.1l-7.7,20.8c0,0.1,0,0.1-0.1,0.2V570
			c0,1.3-0.7,2.4-1.8,3c-0.2,0.2-0.4,0.3-0.7,0.4l-3.5,1.3c-1.4,0.5-3.7,0.1-4.2-1.3l-0.2-0.5c-0.3-1.4,0.2-2.9,1.6-3.5l1.9-0.7V549
			c0-0.3,0-0.6,0.1-0.8c0-0.2,0.1-0.5,0.2-0.7l9.4-25.5c-0.3-2.2-0.3-4.6-0.3-6.9l-4.8-18l-1.5,2.6c-1.7,2-3.6,1.6-3.6,1.6
			c-1.4-0.1-2.6-0.2-3.3-0.3s-1.2-0.1-1.2-0.1s0,0,0.9,0.2c0.9,0.2,2.5,4.3,2.6,4.9c-0.1-0.2-0.6-1-1.8-2.3
			c-1.3-1.5-3.9-0.3-3.9-0.3l2.5,2.4l-3.6-0.5c-1.4,0.6,2,5.6,2.2,5.8c-2.6-1.6-3.5-3.1-3.5-3.1c-1.7-1.9-0.1-4-0.1-4
			c-1.6-1.5,1-3.1,1-3.1c0.3-2.6,4-2.4,4-2.4C662.2,496.6,662.5,495.7,662.5,495.7"/>
		<path class="st13" d="M690.7,453.2c-2.8,0-5.3,1.1-7.1,2.8c-1.9-1.7-4.4-2.8-7.1-2.8c-5.8,0-10.4,4.7-10.4,10.4
			s4.7,10.4,10.4,10.4c1.7,0,3.3-0.4,4.7-1.1l2.7,3.7l2.4-3.6c1.3,0.6,2.9,1,4.4,1c5.8,0,10.4-4.7,10.4-10.4
			S696.5,453.2,690.7,453.2z"/>
		<circle class="st14" cx="676" cy="463.6" r="4.9"/>
		<circle class="st14" cx="691.9" cy="463.6" r="4.9"/>
		<g>
			<path class="st7" d="M676,453.5c1.6-8.3,1.5-18.2-4.4-24.9c-0.9-0.9-1.8-1.7-2.9-2.5c2.3,1.2,4.2,3,5.7,5.1
				c4.5,6.6,5.2,15,4.5,22.8C679,454,676,453.5,676,453.5L676,453.5z"/>
		</g>
		<g>
			<path class="st7" d="M687.6,454c-1-10,0.6-22.5,10.2-27.9c-2.1,1.4-3.9,3.3-5.1,5.5c-3.6,6.6-3.6,14.7-2.2,21.8
				C690.5,453.5,687.6,454,687.6,454L687.6,454z"/>
		</g>
		<g>
			<path class="st15" d="M686.1,462.2c3.2-4.3,8.3-7,13.6-7.3C696.4,459.1,691.4,461.8,686.1,462.2L686.1,462.2z"/>
		</g>
		<g>
			<path class="st15" d="M681.8,462.2c-5.5-0.4-10.6-3.1-13.9-7.5C673.4,455,678.5,457.8,681.8,462.2L681.8,462.2z"/>
		</g>
		<path class="st16" d="M690.8,498.4c-4,10.2-1.1,17.8-7,17.8c-5.5,0-3.3-8.4-7.3-17.8c-3.8-8.8-6.3-19.2,7.2-19.2
			C696.9,479.3,694.4,489.2,690.8,498.4z"/>
		<circle cx="675.7" cy="464" r="2.3"/>
		<circle cx="692.4" cy="464" r="2.3"/>
		<ellipse cx="682.7" cy="470.7" rx="0.2" ry="0.9"/>
		<ellipse cx="684.7" cy="470.7" rx="0.2" ry="0.9"/>
	</g>
</g>
<g id="night_crawler">
	<text transform="matrix(1 0 0 1 631.6996 368.4239)"><tspan x="0" y="0" class="st7 st8 st9">fresno </tspan><tspan x="-31.5" y="18" class="st7 st8 st9">nightcrawler</tspan></text>
	<g>
		<path class="st1" d="M719,281c0,5.4-1,10.2-2.5,13.3v0c-0.6,32.2-21.3,57-26.4,57c-5.6,0,6.4-29.3,6.4-65.5l-0.3-4.9
			c-2.4-11.4-9.3-14.5-16.2-14.5c-6.9,0-13.6,5.1-16.1,16.3c-0.2,2.1-0.3,4.2-0.3,6.3c0,1.7,0,3.4-0.1,5.1c0,0.1,0,0.3,0,0.4
			c0,0.9,0,1.8-0.1,2.7v0.1c-0.8,30.7-18.5,54-23.4,54c-5,0,4.2-24,3.5-55.3c-2.1-2.9-3.5-8.6-3.5-15c0-7.3,1.8-13.6,4.4-16.1
			c1-11,2.3-20.7,2.5-28.5c0.2-30,15.1-54.2,33.4-54.2c18.5,0,33.5,24.5,33.5,54.8c0,0.9,0,1.8,0,2.7c-0.1,8.7,0.9,17.1,1.8,26.2
			c0,0,0,0,0,0C717.6,268.9,719,274.5,719,281z"/>
		<ellipse cx="667.3" cy="213.5" rx="2.6" ry="8.5"/>
		<ellipse cx="686.9" cy="213.5" rx="2.6" ry="8.5"/>
		<path class="st7" d="M666,213.5c0,4,0.8,7.3,1.9,8.2c-0.2,0.2-0.4,0.3-0.7,0.3c-1.4,0-2.6-3.8-2.6-8.5s1.2-8.5,2.6-8.5
			c0.2,0,0.4,0.1,0.7,0.3C666.8,206.2,666,209.5,666,213.5z"/>
		<path class="st7" d="M685.6,213.5c0,4,0.8,7.3,1.9,8.2c-0.2,0.2-0.4,0.3-0.7,0.3c-1.4,0-2.6-3.8-2.6-8.5s1.2-8.5,2.6-8.5
			c0.2,0,0.4,0.1,0.7,0.3C686.4,206.2,685.6,209.5,685.6,213.5z"/>
		<g>
			<path class="st13" d="M673.3,266.4c1.2,0,2.4,0.1,3.6,0.3c-5.8,1.2-11,6.4-13.2,16c-0.2,2.1-0.3,4.2-0.3,6.3c0,1.7,0,3.4-0.1,5.1
				c0,0.1,0,0.3,0,0.4c0,0.9,0,1.8-0.1,2.7v0.1c-0.8,30.7-18.5,54-23.4,54c-1.1,0-1.5-1.2-1.5-3.5c7.1-7.6,17.7-26.8,18.4-50.5v-0.1
				c0-0.9,0.1-1.8,0.1-2.7c0-0.1,0-0.3,0-0.4c0-1.7,0.1-3.4,0.1-5.1c0-2.1,0.1-4.2,0.3-6.3C659.7,271.5,666.4,266.4,673.3,266.4z"/>
			<path class="st13" d="M718.9,281c0,5.4-1,10.1-2.5,13.3v0c-0.6,32.2-21.3,57-26.5,57c-1.1,0-1.5-1.1-1.5-3.2
				c8-7.7,20.9-28.5,21.4-53.8v0c1.5-3.2,2.5-7.9,2.5-13.3c0-6.5-1.4-12.1-3.5-15.1c0,0,0,0,0,0c-0.9-9.1-2-17.5-1.8-26.2
				c0-0.9,0-1.8,0-2.7c0-28.5-13.2-51.8-30.2-54.5c1.1-0.2,2.1-0.3,3.2-0.3c18.5,0,33.5,24.5,33.5,54.8c0,0.9,0,1.8,0,2.7
				c-0.1,8.7,0.9,17.1,1.8,26.2c0,0,0,0,0,0C717.5,268.9,718.9,274.5,718.9,281z"/>
		</g>
	</g>
</g>
<g id="Frogman">
	<text transform="matrix(1 0 0 1 201.7642 569.6533)"><tspan x="0" y="0" class="st7 st8 st9">LOVELAND </tspan><tspan x="4.4" y="21" class="st7 st8 st9">FROGMAN</tspan></text>
	<g>
		<path class="st17" d="M289.9,468.5l-2.2,13.1c0,0-4.1,5-10.6,5.1c-0.6,0-5,14-5,14c0,0.1,0,0.2,0,0.2l1.6,1.8
			c0.6,0.6,3.9,1.9,6.6,5.4c1.8,2.3,2.9,4.7,3.6,6.1c0.1,0.2,0.3,0.5,0.4,0.6l0.3,0.3c0.4,0.5,0.8,0.9,1.1,1.4
			c0.2,0.3,0.4,0.6,0.6,0.7l5,5.6c0.9,1.1,0.8,2.8-0.3,3.7l-1.2,1c-3,3.6-20.5,12.9-20.5,12.9c-3.8,1.6-5.2-1.6-5.2-1.6
			c-5.4,2.3-5.8,1.5-5.8,1.5c-4.9-1,0.3-2.9,0.3-2.9c-2.6-1.1,0.1-2.3,0.1-2.3c8.7,0.2,17.4-7,17.4-7l3.7-5.2c0.4-0.6,0.4-1.5-0.1-2
			l0,0l-17-11.7c-1-1-1.9-1.5-2.8-2.4c0,0-1.8-1.3-2.8-2.7c-0.9-0.9-1.7-2.2-2-3c-0.3-0.9,0.3-13,2.7-19.8
			c2.3-6.3,10.8-6.3,11.7-7.2l0.2-0.6l-1.9-9.9"/>
		<ellipse class="st17" cx="221.3" cy="408" rx="6.9" ry="5.9"/>
		<path class="st7" d="M284.2,484.4c-2.7,1.2-5.7,1.4-8.9,0.6c0,0,0,0-0.1,0l-12.1,3.4l-8.3,8.3l-11.1,11.1
			c-0.1,0.1-0.1,0.2-0.1,0.2l0.7,2.4c0.3,0.8,2.8,3.6,3.9,8.2c0.7,3,0.7,5.8,0.7,7.4c0,0.2,0.1,0.6,0.1,0.8l0.1,0.4
			c0.2,0.6,0.3,1.2,0.4,1.9c0.1,0.4,0.1,0.7,0.2,0.9l2.2,7.6c0.4,1.5-0.5,3-2,3.4l-1.6,0.4c-4.5,2.1-25.3,3.1-25.3,3.1
			c-4.4-0.2-4.2-3.8-4.2-3.8c-6.2-0.3-6.2-1.1-6.2-1.1c-4.2-3.1,1.5-2.6,1.5-2.6c-2-2.2,1.1-2.2,1.1-2.2c8.2,4.1,19.7,1.1,19.7,1.1
			l5.8-3.4c0.7-0.4,1-1.2,0.8-2v0l-7.6-25.4c0-0.1-0.1-0.3-0.1-0.4c0,0,0,0,0,0c-0.5-1.3-0.3-2.9-0.2-3.8c0.1-1,2.6-6.1,7.9-11.5
			c5-5,9.9-7.6,11.2-8.1l0.5-0.5l2.6-10.3c-0.1-0.2-0.2-0.3-0.3-0.4c-2.4-3.2-4.6-6.8-6.5-10.7l-3-4.7l-9.6,1.8l-0.3,0.2l-0.5,0.4
			c-0.4,0.4-3.5,1.8-8.9,3.2c-3.9,1-7.1,1.6-9.2,1.8l-3.9,1.8c-4.4,2.7-8.6,3.4-8.6,3.4c-1.5,0.5-6.9,2.4-6.9,2.4
			c-1.4,0.8-2.4,0-2.4,0c-2.2-1.8,0-2.8,0-2.8c0.6-0.3,2.2,0.3,2.2,0.3c1.6,0.9,4.2-0.4,4.2-0.4c1.2-0.8-0.9-1.1-0.9-1.1
			c-6.4-0.4-7.4-0.4-7.4-0.4c-3,0.1-2.8-2.1-2.8-2.1c0.1-2.7,3-1.6,3-1.6c0.9,0.5,4.3,1.8,4.3,1.8c2.3,0.6,2.3-1.1,2.3-1.1
			c-0.2-2.1-6.7-3.1-6.7-3.1c-3.5-0.4-2.7-2.5-2.7-2.5c0.7-3,4.8,0.4,4.8,0.4c2.5,1.5,7.8,1.4,7.8,1.4c2.3-0.2,0.8-2.4,0.8-2.4
			c-1-1.2-5.8-1.8-5.8-1.8c-2.2-0.3-0.8-3-0.8-3c1.6-1.9,2.9,0.4,2.9,0.4c0.9,1.4,3,2.1,3,2.1c3.5,1,5.7,0.8,5.7,0.8
			c2.5-0.1,2.6-1.8,2.6-1.8c0.3-1.6-0.4-3.2-0.4-3.2c-1.3-3.7,0.5-3.8,0.5-3.8c2.5-0.3,2.2,5.5,2.2,5.5c0.1,1.5,0.8,1.6,1,2.6
			c1-0.6,4.9-2,9.2-3.2c1.3-0.3,2.6-0.7,3.8-0.9c0,0,0,0,0.1,0l5.8-1.9l0.6-0.3l3.9-3.9l-16.1-12.8c-15.2-3.5-25.8-9.9-25.1-15.9
			c0.9-7.3,18.6-11.2,39.6-8.7c8.9,1.1,17,3.1,23.2,5.7c9.6,2.1,20.3,12.6,27,27.5C296.8,459.6,295.1,479.5,284.2,484.4z"/>
		<ellipse class="st17" cx="223.3" cy="410.4" rx="6.9" ry="5.9"/>
		<ellipse class="st6" cx="223.3" cy="410.4" rx="5.6" ry="4.8"/>
		<ellipse class="st18" cx="223.3" cy="410.4" rx="4.9" ry="4.2"/>
		<path d="M223.3,406.6c-1.7,0.7-2.8,2.1-2.8,3.8s1.2,3.1,2.8,3.8c1.7-0.7,2.8-2.1,2.8-3.8S224.9,407.3,223.3,406.6z"/>
		<g>
			<path d="M198.5,417.6c8,1.8,15.9,4.6,24.2,4.9c-4.1,0.8-8.3-0.1-12.4-0.9C206.3,420.6,202.3,419.3,198.5,417.6L198.5,417.6z"/>
		</g>
		<ellipse class="st17" cx="251.1" cy="413.6" rx="2.1" ry="1.6"/>
		<circle class="st17" cx="264.6" cy="417" r="1.7"/>
		<circle class="st17" cx="262.7" cy="423.4" r="1.8"/>
		<ellipse class="st17" cx="274.7" cy="426.2" rx="1.2" ry="2"/>
		<ellipse class="st17" cx="282.1" cy="437.6" rx="2" ry="1.5"/>
		<ellipse class="st17" cx="279.1" cy="431.3" rx="1" ry="1.4"/>
		<ellipse class="st17" cx="271.3" cy="432.7" rx="2.2" ry="1.4"/>
		<ellipse class="st17" cx="288.3" cy="446.4" rx="0.8" ry="2"/>
		<circle class="st17" cx="282.7" cy="448.4" r="1.4"/>
		<circle class="st17" cx="281.1" cy="443.9" r="1"/>
		<ellipse class="st17" cx="291.2" cy="456.8" rx="0.8" ry="2.5"/>
		<circle class="st17" cx="284.3" cy="457.7" r="1.6"/>
		<circle class="st17" cx="289.7" cy="465.4" r="0.6"/>
		<ellipse class="st17" cx="289" cy="471.6" rx="0.7" ry="2.3"/>
		<ellipse class="st17" cx="292.8" cy="464.1" rx="0.8" ry="2"/>
		<ellipse class="st17" cx="257.6" cy="418.2" rx="2" ry="1.2"/>
		<circle class="st17" cx="269.1" cy="424.8" r="1.4"/>
		<circle class="st17" cx="243.7" cy="410.8" r="1.1"/>
		<g>
			<path class="st17" d="M246.5,454.8c3.8-0.6,7.1-2.7,8.5-6.3c0.2-0.5,0.4-1,0.6-1.5c0,0.6,0,1.1-0.1,1.7
				C254.9,452.8,250.5,455.6,246.5,454.8L246.5,454.8z"/>
		</g>
		<circle class="st17" cx="249.5" cy="485.7" r="1.6"/>
		<ellipse class="st17" cx="244.3" cy="491.7" rx="0.6" ry="1.6"/>
		<circle class="st17" cx="241.2" cy="495.1" r="0.7"/>
		<circle class="st17" cx="248.7" cy="490.8" r="0.8"/>
		<circle class="st17" cx="238.5" cy="498.9" r="0.8"/>
		<circle class="st17" cx="242.6" cy="497.7" r="1.2"/>
		<circle class="st17" cx="232.8" cy="456.9" r="0.8"/>
		<ellipse class="st17" cx="228.1" cy="455.5" rx="1.4" ry="0.7"/>
		<ellipse class="st17" cx="226.8" cy="458.8" rx="1.3" ry="0.4"/>
	</g>
</g>
<g id="Busco">
	<text transform="matrix(1 0 0 1 43.2265 347.8348)" class="st7 st8 st9">BEAST OF BUSCO</text>
	<g>
		<path class="st14" d="M158.6,284.4c0,9-10.3,16.3-23,16.3c-2.3,0-4.6-0.3-6.7-0.7l-4.2,6.5c-0.5,0.8-1.1,1.4-1.8,1.8
			c-0.4,9-5,7.2-5,7.2c-4.1-0.7-7.5,7.2-7.5,7.2c-1.6-2.9,1.1-7.9,1.1-7.9c-4.1,0.1-6,7.6-6,7.6c-1.8-6.9,0-10,0-10
			c-5.1,1.2-7.5,11.7-7.5,11.7c-1.2-9.3,1.6-14.5,1.6-14.5c-5.7,2.9-8,13-8,13c-1-15.4,6.7-20.7,6.7-20.7c3.3-2,7.4-3,9.9-3.3
			c0.1-1,0.4-2.1,1-3l4.4-6.9c-0.6-1.4-0.8-2.9-0.8-4.4c0-2.4,0.8-4.7,2.1-6.8c0.2-0.3,0.5-0.4,0.8-0.4c8.4,1,16.6,2.2,25.9,3.2
			c6.4,0.7,11.8,1.3,17.1,1.9C158.6,283,158.6,283.6,158.6,284.4z"/>
		<path class="st14" d="M172.8,277.2c0,0,8.1,6.8,14.5,7.1c0,0,1.9,0,2.6-1.2c0,0,2.8-0.8,5.1,6.3c0,0,2.8-7,0-9.8
			c0,0,6.2,5.6,7,9.8c0,0-0.4-6.2-2.1-8.7c0,0,5.5,3,5.8,6c0,0-1.7-18.1-13.6-26.2L172.8,277.2z"/>
		<path class="st14" d="M185.3,246.1c0,0,39.8,0.7,34.6,30.7c0,0-8.9-24.3-31.1-21.5L185.3,246.1z"/>
		<path class="st11" d="M198.1,254.4c0,12.3-16.6,28.1-39.5,29.8c-0.5,0-1.1,0.1-1.6,0.1c0,0-7.1-0.2-13.5-1.5
			c-10.3-2.1-17.1-2.7-20.9-2.4c-4.3,0.3-8.1-0.7-8.9-1c-0.1,0-0.1,0-0.1,0c-0.5-0.1-1.3-0.3-1.9-0.5l8.3-12.7
			c0-6.6-15.3-24.7-21.9-24.7l-10.6,6.7c-1.8,0.7-4.5,3.3-5.4,3.8c-4.9-7.3,3.2-13.7,15.2-16.7c9-9,12.2-1.5,20.2-6.8
			c7.9,1.1,14.5,0.4,22.6-2.2c6.6,4.5,9.6,3.3,16.7,1.2c4.3,5.9,13.9,6.1,21,5.5c1,6.2,8.8,7.8,15,9.4
			C192.6,247.7,198.1,250.1,198.1,254.4z"/>
		<path class="st14" d="M119.9,266.1l-8.3,12.7l-6,9.1c-3,5-4.5,9.3-6.9,11.3c0,0,0,0,0,0c-0.3,0.4-5.7,6.5-18.3,8.3
			c-13,1.9-25.4-2.8-25.4-2.8c-0.7-0.2-1.1-0.8-1.1-1.5c0-0.2,0-0.5,0.1-0.7c0.4-0.8,0.8-1.8,1.3-2.9l1.2-0.1l23.1-1.2v-21.4
			c-1.2-0.8-2.4-1.7-3.5-2.6C72,271,66.9,268,63,266c-2.9-1.5-5.1-2.4-5.6-2.4c-2.5,0-4.3,2.9-4.3,2.9l2-14.8
			c0.2-1.5,1.6-2.5,3.1-2.2c0,0,8.8-1.1,15.3,3c0.5,0.3,2.9,0.9,6.1,1.5c0.7-0.9,1.4-1.7,2.3-2.4c1.7-1.5,3.5-2.7,5.4-3.5l10.6-6.7
			C104.6,241.5,119.9,259.5,119.9,266.1z"/>
		<circle class="st7" cx="76.4" cy="260" r="5.4"/>
		<circle cx="76.4" cy="260" r="2.5"/>
		<path d="M79.6,277.1v21.4l-23.1,1.2c2.3-5.2,4.2-12.3,4.8-14.8c0.7-2.8,1.4-12.7,1.8-18.8c3.8,2,9,5,13,8.4
			C77.2,275.4,78.4,276.3,79.6,277.1z"/>
		<g>
			<path class="st12" d="M102.7,239.6c1.6-0.7,4.2-1.6,5.4-1.9c1-1,2-2,3.3-2.7c2.4-1.7,5.6-1,8.3-1.3c1.3-0.2,2.5-0.8,3.6-1.5
				l0.2-0.1l0.3,0c5.7,0.8,11.4,0,16.8-1.8c0,0,0.4-0.1,0.4-0.1l0.3,0.2c4.4,3.3,7.7,2.1,12.6,0.6c1.5,2.4,4.3,3.6,7.2,4.2
				c2.9,0.5,6,0.5,9,0.3c0.1,1.3,0.6,2.5,1.5,3.4c2.6,2.5,6.3,3.1,9.6,4.2c-0.2,2.6,1.7,4.6,3,6.7c-1.5-2-3.5-3.8-3.6-6.4
				c0,0,0.2,0.3,0.2,0.3c-3.4-0.8-7.3-1.4-10.1-3.9c-0.9-0.9-1.6-2.1-1.8-3.4l0.7,0.5c-2.9,0.3-5.8,0.4-8.7-0.1
				c-3-0.5-6-1.7-7.9-4.2c0,0,0.9,0.3,0.9,0.3c-5.1,1.7-8.8,2.4-13.4-1c0,0,0.7,0.1,0.7,0.1c-5.6,1.8-11.7,2.6-17.5,1.5
				c0,0,0.4-0.1,0.4-0.1c-1.2,0.8-2.7,1.4-4.1,1.5c-1.5,0.2-2.9-0.1-4.2-0.1c-2.8-0.1-5.2,1.6-7.2,3.4
				C106.5,238.5,104.6,239,102.7,239.6L102.7,239.6z"/>
		</g>
		<g>
			<path class="st12" d="M112,248.3c1.6-0.6,4.3-1.3,5.6-1.5c1.1-0.9,2.1-1.9,3.5-2.5c2.5-1.5,5.7-0.6,8.3-0.7
				c1.3-0.1,2.5-0.6,3.7-1.2l0.2-0.1l0.2,0c5.6,1.2,11.3,0.8,16.9-0.6c0,0,0.4-0.1,0.4-0.1l0.3,0.2c4.1,3.6,7.5,2.7,12.5,1.6
				c1.3,2.5,4,3.9,6.8,4.7c2.9,0.7,5.9,0.9,8.9,1c0,1.3,0.4,2.5,1.2,3.5c2.4,2.7,6.1,3.6,9.3,4.9c-0.4,2.6,1.4,4.7,2.5,6.9
				c-1.3-2.1-3.2-4-3.1-6.7c0,0,0.2,0.3,0.2,0.3c-3.4-1.1-7.2-1.9-9.7-4.7c-0.9-0.9-1.5-2.2-1.6-3.5l0.6,0.6c-2.9,0.1-5.8,0-8.7-0.7
				c-2.9-0.7-5.9-2.1-7.6-4.8c0,0,0.9,0.4,0.9,0.4c-5.2,1.4-9,1.7-13.3-2c0,0,0.7,0.2,0.7,0.2c-5.7,1.4-11.8,1.7-17.5,0.2
				c0,0,0.5-0.1,0.5-0.1c-1.3,0.7-2.7,1.2-4.2,1.2c-1.5,0.1-2.9-0.3-4.2-0.4c-2.8-0.3-5.3,1.2-7.4,2.9
				C115.8,247.5,113.9,247.8,112,248.3L112,248.3z"/>
		</g>
		<g>
			<path class="st12" d="M121.5,263.1c1.2-0.5,3.3-1.3,4.3-1.5c1.5-1.6,3.5-3.1,5.8-3.1c1.1,0,2.2,0.1,3.2-0.1
				c1.1-0.2,2.1-0.7,3-1.3c4.6,0.7,9.3,0,13.7-1.5c3.6,2.7,6.1,1.9,10.1,0.7c2.6,3.8,8,3.7,12.2,3.5c0,0,0.5,0,0.5,0l0.1,0.4
				c0.8,3.9,5.5,4.4,8.7,5.5c-0.2,2,1.4,3.6,2.4,5.2c-1.2-1.5-2.8-3-2.8-5.1c0,0,0.2,0.2,0.2,0.2c-2.7-0.7-5.7-1.1-7.9-3.1
				c-0.7-0.7-1.3-1.6-1.4-2.7l0.5,0.4c-2.3,0.2-4.6,0.3-6.9-0.1c-2.3-0.4-4.7-1.3-6.2-3.3c0,0,0.7,0.2,0.7,0.2
				c-3.9,1.4-7,1.9-10.5-0.8c0,0,0.6,0.1,0.6,0.1c-4.4,1.4-9.2,2-13.7,1.2c0,0,0.4-0.1,0.4-0.1c-1,0.6-2.1,1.1-3.2,1.2
				c-1.2,0.1-2.3-0.1-3.3-0.1c-2.2-0.1-4,1.2-5.6,2.6C124.5,262.3,122.9,262.6,121.5,263.1L121.5,263.1z"/>
		</g>
		<circle class="st18" cx="152.4" cy="288.4" r="1"/>
		<circle class="st18" cx="147.4" cy="286.5" r="0.9"/>
		<circle class="st18" cx="149.5" cy="291.9" r="1.2"/>
		<ellipse class="st18" cx="141.4" cy="294.9" rx="2.8" ry="2.3"/>
		<ellipse class="st18" cx="115.4" cy="267" rx="0.9" ry="1.6"/>
		<ellipse class="st18" cx="111.5" cy="272" rx="1.6" ry="0.9"/>
		<circle class="st18" cx="111.5" cy="265.2" r="0.8"/>
		<ellipse class="st18" cx="115.4" cy="260.6" rx="0.9" ry="2"/>
		<circle class="st18" cx="109.1" cy="277.1" r="0.8"/>
		<circle class="st18" cx="98.3" cy="295.9" r="1"/>
		<circle class="st18" cx="93.2" cy="294.6" r="1.1"/>
		<circle class="st18" cx="94.1" cy="299.7" r="1"/>
		<circle class="st18" cx="201.1" cy="250.5" r="0.8"/>
		<circle class="st18" cx="205.9" cy="252.4" r="1.1"/>
		<circle class="st18" cx="202.4" cy="252.9" r="0.6"/>
		<circle class="st18" cx="182.1" cy="279.8" r="0.8"/>
		<circle class="st18" cx="190" cy="275.5" r="0.7"/>
		<circle class="st18" cx="145.3" cy="290.6" r="1.1"/>
		<circle class="st18" cx="133.7" cy="298.2" r="1"/>
		<ellipse class="st18" cx="58.1" cy="251.8" rx="1.2" ry="0.6"/>
		<ellipse class="st18" cx="65" cy="250.9" rx="1.2" ry="0.4"/>
		<circle class="st18" cx="62.1" cy="253.3" r="0.9"/>
		<circle class="st18" cx="186.4" cy="277.9" r="1.1"/>
		<circle class="st18" cx="186.4" cy="281.7" r="1.1"/>
		<polygon class="st6" points="69.5,269.6 64.6,272.4 64.6,266.8 		"/>
		<polyline class="st6" points="69.9,269.9 74.5,273.1 69.4,275.5 		"/>
		<polyline class="st6" points="74.9,273.4 79.4,276.9 74.2,279 		"/>
		<polyline class="st6" points="60.1,293.5 63.8,299.3 56.9,299.6 		"/>
		<polyline class="st6" points="67.5,293.1 71.3,298.8 64.4,299.2 		"/>
		<polyline class="st6" points="75,292.7 78.7,298.5 71.9,298.8 		"/>
		<circle class="st19" cx="75.5" cy="259.6" r="0.4"/>
	</g>
</g>
<g id="loch_ness">
	<text transform="matrix(1 0 0 1 639.8387 169.6185)" class="st7 st8 st9">NESSIE</text>
	<g>
		<path class="st11" d="M743.1,23.5c-2.2,0.3-5.9,0.1-11.9-1.9c0,0-15.5,4.7-14.2,29.7c0,0,3,39,6.2,46.1c0,0,1.7,5.7,2.2,10.4v0
			c0.2,0.7,0.2,1.4,0.2,2.1c0,12.4-29.7,22.5-66.3,22.5c-36.6,0-66.3-10.1-66.3-22.5s32.5-36.6,66.3-22.5
			c10.6,4.4,20.9,7.4,31.1,2.6c0.9-0.4,1.9-0.8,2.8-1.2c2.7-5.5,5.5-13.3,5.7-22.5c0,0-0.9-23.7,6.7-35.1c0,0,11.6-25.4,29.3-22
			c0,0,10.8,3.6,11.7,9.7C746.9,21.2,745.3,23.2,743.1,23.5z"/>
		<path class="st18" d="M580.1,115.6c0,0,12.8,0.2,19-8.8c0,0,2.6,9,17.3,11.7c0,0,9.5-2.2,13.8-11.7c0,0,3.2,7.1,10.9,11.3
			c0,0,12.6-4.8,14.6-9.4c0,0,2.6,7.5,13.2,9.6c0,0,9.3-3.6,10.5-10.5c0,0,2.3,5.9,15.5,8.6c0,0,11.6-3.8,12.8-9.6c0,0,4,7,10.8,8.6
			c0,0,7.2-1.1,10.8-10.4c0,0,3.2,9.6,10.2,12.6c0,0,49.8,18.8-11.4,21.5c-1.8,0.1-3.7,0-5.5-0.1c-4.9-0.5-16.9-1.2-28.3,1.5
			c0,0-33,10-42.8,3.7c0,0-10.5-5.1-32.4-0.2c0,0-34.2-1.5-36.3-8.9c0,0,0.1-0.8-5.6-5.1c-2.9-2.2-5.2-4.6-5.2-7.6
			C572,119.3,573.6,116.1,580.1,115.6z"/>
		<g>
			<path d="M735.9,12.2c0.6,2-2.2,3.1-3.5,1.8C733.8,13.6,734.9,13.6,735.9,12.2L735.9,12.2z"/>
		</g>
		<g>
			<path d="M745.9,21.9c-2.9-0.5-6.3-0.5-8.6-2.5c1.5,0.2,2.9,0.7,4.3,1.2C743,21,744.4,21.5,745.9,21.9
				C745.9,21.8,745.9,21.9,745.9,21.9L745.9,21.9z"/>
		</g>
		<path class="st20" d="M584.7,134.3c0-3,1.7-6.2,8.1-6.7c0,0,12.8,0.2,19-8.8c0,0,2.6,9,17.3,11.7c0,0,9.5-2.2,13.8-11.7
			c0,0,3.2,7.1,10.9,11.3c0,0,12.6-4.8,14.6-9.4c0,0,2.6,7.5,13.2,9.6c0,0,9.3-3.6,10.5-10.5c0,0,2.3,5.9,15.5,8.6
			c0,0,11.6-3.8,12.8-9.6c0,0,4,7,10.8,8.6c0,0,7.2-1.1,10.8-10.4c0,0,3.2,9.6,10.2,12.6"/>
		<path class="st12" d="M673,109c-9.2,9.2-10.8,18.4-9.1,24.2c6,0.5,15,0.1,24.2-9.1c9.2-9.2,10.8-19,9.1-24.2
			C691.9,98.4,682.2,99.8,673,109z"/>
	</g>
</g>
<g id="skunkape">
	<text transform="matrix(1 0 0 1 279.8751 367.4899)"><tspan x="0" y="0" class="st7 st8 st9">FLORIDA </tspan><tspan x="-6.4" y="21" class="st7 st8 st9">SKUNKAPE</tspan></text>
	<g>
		<path class="st14" d="M272.2,279.9L272.2,279.9C272.2,279.9,272.2,279.8,272.2,279.9C272.2,279.8,272.2,279.8,272.2,279.9z"/>
		<g>
			<path class="st21" d="M274,273.6c0.3,0.8,0.3,1.4,0.2,2c0,0.6-0.5,1.1-0.7,1.7c-0.3,1-1,2.3-0.3,3.3c0,0-0.1,0.2-0.1,0.2
				c-1.3-0.7-1.2-2.5-1.1-3.8c-0.1-1.5,0.4-2.7,1.8-3.5C273.8,273.5,274,273.6,274,273.6L274,273.6z"/>
		</g>
		<g>
			<path class="st21" d="M277.2,276c0.4,1.4,0.1,2.4-0.5,3.6c-0.4,1.1-0.7,2.2-0.4,3.4c0,0-0.2,0.1-0.2,0.1c-0.9-1-1.1-2.5-1-3.8
				c-0.1-1.5,0.5-2.8,1.9-3.4C277,275.9,277.2,276,277.2,276L277.2,276z"/>
		</g>
		<g>
			<path class="st21" d="M366.6,260.2c0,4.6-3.7,8.3-8.3,8.3c-0.5,0-1,0-1.5-0.1c-0.9-0.2-1.3-1.3-0.7-2.1c0,0,0,0,0,0
				c1.9-2.5,2.7-5.1,1.7-5.9c-1-0.8-3.4,0.6-5.3,3.1c-0.1,0.1-0.1,0.1-0.2,0.2c-0.5,0.7-1.5,0.5-1.8-0.2c-0.3-1-0.5-2.1-0.5-3.2
				c0-1.2,0.3-2.3,0.7-3.4c-1-1-3.8-4.8-7.4-18.4l2.5-48.5c0,0,12.4-0.5,14.2,20.5c0,0-0.2,15.1-2,21.7c0,0,5.8,7.9,5.3,21.6
				C365.4,255.2,366.6,257.5,366.6,260.2z"/>
			<path class="st21" d="M366.2,335.6c-1.3,2-5.6,1-5.6,1l-25,0c-11.3,0.2-16.4-4.1-16.4-4.1c-1-3.3,5.9-13,5.9-13l10.7-19.9
				c0.1-0.1,0.2-0.3,0.2-0.4c1.4-2.6,1.4-4.9,1.3-5.9c0-0.3-0.2-0.6-0.4-0.9l-18.4-20.3c-2.7-4.3,4.9-14.5,9.2-17.2
				c1.5-1,3.3-1.4,5-1.4c3.1,0,6.1,1.5,7.8,4.3l16.2,30.2c1.8,2.8,3.2,6.7,2.8,9.7c0.7,4.5-12.7,23.2-15.1,26.5
				c2.8,4.7,14.1,7.7,14.1,7.7c3,0.8,5.1,1.3,5.1,1.3C366.2,333.6,366.2,335.6,366.2,335.6z"/>
			<path class="st14" d="M351.8,212.4l-11.2,45.4l-1.2,1.5c-3.9,5-11.3,15.5-11.4,22.9c0,0.1,0,0.2,0,0.3c0.8,2.8,1.2,4.8,1.3,5.2
				c0,0,0,0.1,0,0.1c0.4,4.7-2.7,12.3-3.2,13.5c-0.1,0.1-0.1,0.3-0.1,0.4l0,0l-4.7,28.9c0.1,0.3,0.3,0.6,0.7,0.7
				c5.1,1.6,6.1,5.4,6.1,5.4c3.2,7.5-0.9,5.4-3.2,3.9c-0.6-0.4-1.4-0.1-1.5,0.6c-0.5,2.4-2,1.6-3.2,0.6c-0.5-0.5-1.3-0.2-1.6,0.5
				c-0.6,1.9-2.2,0.8-3.3-0.4c-0.5-0.5-1.3-0.4-1.6,0.3c-0.7,1.6-1.6,0.8-2.4-0.6c-0.4-0.7-1.4-0.7-1.7,0c-1.2,2.4-5.2,0.5-6.2,0
				c-0.1-0.1-0.3-0.2-0.4-0.3c-1.5-2.3-0.2-8.6,0-9.7c0-0.1,0.1-0.7,0.1-0.7l0,0.3c0-0.1,0.1-0.6,0.1-0.6l5-32.7
				c0-0.3,0.1-0.6,0.2-0.9v-2.9c0-0.2-0.1-0.4-0.2-0.6L298,279.9c-1.8-2.3-3.1-4.8-3.9-7.6c-1.7-6.2,0-11,1.8-13.9
				c0.1-0.1,0.1-0.3,0.1-0.4l2.4-29c0.1-1.1-1.3-1.5-1.8-0.5c-4.3,7.9-7.4,11.1-8.4,12c-0.2,0.2-0.3,0.5-0.3,0.8
				c0.3,10.3-0.2,14.2-0.6,15.7c-0.2,0.8-0.3,1.7-0.3,2.5l-0.1,12.2c0,0.1,0,0.2,0.1,0.3l0,0c0.6,1.1,0.9,2.4,0.9,3.7
				c0,1.8-0.8,4.6-1.5,4.8c-1.4,1.2-1.2-0.8-1.2-1c0-2.5,0.4-4-0.5-4c-1,0-1.7,2-1.7,4.5c0,0.9,0.1,1.8,0.3,2.5
				c0.1,0.4-0.1,0.8-0.5,1c-1,0.4-2.1,0.7-3.2,0.7c-3.1,0-5.8-1.7-7.2-4.2c0,0,0,0,0-0.1c-0.7-1.2-1.1-2.6-1.1-4.2
				c0-2,0.7-3.9,1.9-5.3c0.1-6.6-0.5-13.4-0.5-13.4c-1.3-12.4,1.7-19.9,3-22.5c0.5-1,0.8-2,1.1-3c7.6-26.8,17.1-34.7,18.7-36.4
				c0,0,0,0,0,0c2.6-3.3,6.7-5.5,11.2-5.5h37.3c5.1,0,7.4,4.3,8.3,9.5C353,203.5,352.8,208,351.8,212.4z"/>
			<path class="st16" d="M343.4,182.9c-1.7,6-0.3,14-4.7,16.9c-3.8,2.5-8.1,9.8-12.7,7.8c-4.3-1.8-12-2.7-13.4-8.9
				c-0.9-4.1-5.1-11-4.1-15.9c1.5-7,0.5-15.6,5.5-18.1c3.1-1.6,7.6-8.2,11.9-6.6c6.2,2.3,12.1,2.8,12.8,8
				C339.5,171.4,345.1,176.7,343.4,182.9z"/>
			<path class="st14" d="M333.3,182.5c-4.7,8.5-7.1,15.4-12.7,15.4c-5.5,0-5.5-11.1-7.4-18.2c-0.9-3.4,0.2-6.6,2.3-8.9
				c1.7,1,4.7,1.4,7.6,3.6c2.8,2.4,5.7-0.6,8.4-1.9C333.8,175.6,334.9,179.4,333.3,182.5z"/>
			<path class="st16" d="M341.7,226.4c0,12.9-5.5,36.4-13.3,36.4c-7.8,0-16.4-19.1-16.4-32s6.3-16.2,14.1-16.2
				S341.7,213.6,341.7,226.4z"/>
			
				<ellipse transform="matrix(0.1235 -0.9923 0.9923 0.1235 100.4339 474.4884)" class="st18" cx="318.8" cy="180.4" rx="0.9" ry="1.9"/>
			
				<ellipse transform="matrix(0.1235 -0.9923 0.9923 0.1235 105.6614 481.4892)" class="st18" cx="325.4" cy="180.9" rx="0.9" ry="1.9"/>
			<circle cx="320.5" cy="185" r="0.5"/>
			<circle cx="322.3" cy="185.3" r="0.5"/>
			<path d="M319.7,190.3c0.6,0.2,1.2,0.2,1.9,0.3l3.8,0.1c-0.1,1.1-2.6,2.2-5.1,1.9c-2.4-0.3-4.4-2.1-4.2-3.2L319.7,190.3z"/>
			<g>
				<path class="st18" d="M321.3,178.2c-1.6,0.3-2.9,0-4.4-0.3c-0.3-0.1-0.8,0-1.5,0.3c-0.3-0.7,0-1.6,0.7-2.1
					C318.2,174.9,320.7,176.1,321.3,178.2L321.3,178.2z"/>
			</g>
			<g>
				<path class="st18" d="M323.4,178.3c1-1.9,3.8-2.6,5.4-1c0.6,0.6,0.7,1.6,0.3,2.2c-0.6-0.5-1.1-0.6-1.4-0.6
					C326.2,178.9,324.9,178.9,323.4,178.3L323.4,178.3z"/>
			</g>
			<path d="M325.5,180.1c-0.6,0.1-1,0.3-1.1,0.7c0,0.3,0.3,0.7,0.9,0.9c0.6-0.1,1-0.3,1.1-0.7C326.4,180.7,326.1,180.4,325.5,180.1z
				"/>
			<path d="M318.9,179.6c-0.6,0.1-1,0.3-1.1,0.7c0,0.3,0.3,0.7,0.9,0.9c0.6-0.1,1-0.3,1.1-0.7C319.8,180.2,319.4,179.8,318.9,179.6z
				"/>
			<g>
				<path class="st21" d="M308.4,206.8c1.2,8.4-3.7,16.9-10,22.2c0.5-0.9,1-1.8,1.6-2.7C303.6,220.1,306.9,213.8,308.4,206.8
					L308.4,206.8z"/>
			</g>
		</g>
		<g>
			<path class="st21" d="M280.6,276.6c0.4,1.4,0.1,2.4-0.5,3.6c-0.4,1.1-0.7,2.2-0.4,3.4c0,0-0.2,0.1-0.2,0.1c-0.9-1-1.1-2.5-1-3.8
				c-0.1-1.5,0.5-2.8,1.9-3.4C280.4,276.6,280.6,276.6,280.6,276.6L280.6,276.6z"/>
		</g>
	</g>
</g>
<g id="swamp_monster">
	<text transform="matrix(1 0 0 1 434.2773 341.3061)"><tspan x="0" y="0" class="st7 st8 st22">HONEY ISLAND </tspan><tspan x="-12.7" y="21" class="st7 st8 st22">SWAMP MONSTER</tspan></text>
	<g>
		<path class="st18" d="M567.6,297.8c-0.3,9.5-27.8,16.6-77,9.8c-41.8-5.8-65.5,3-75.9-9.8c-8.7-10.7,37-6.5,76.4-4.9
			C533.4,294.5,567.7,294.2,567.6,297.8z"/>
		<path class="st23" d="M545.6,299.5c0.6,3.7-22.9,8.4-54.9,3.5c-30-4.6-54.9-1.6-54.9-3.5c0-1.9,24.6-3.5,54.9-3.5
			S545.3,297.5,545.6,299.5z"/>
		<path class="st12" d="M563.8,279.3c0,0-0.9,2.8-3.2,1.5c0,0,0.2,0.6,0.5,1.6c0,0,0,0,0,0c0,0,0,0,0,0.1c0,0.1,0,0.1,0.1,0.2
			c0.7,2.4,1.4,6.5-0.6,7.7c0,0-1,0.1-1.7-0.3c0,0.4,0,0.6,0,0.6c0.1,0.4,0.2,0.7,0.4,1c-0.3-0.2-0.6-0.6-0.7-1.2
			c0,0-0.1-5.6-1.5-9.2c0,0,0,0,0,0.1c-0.1-0.6-0.3-1.1-0.5-1.6c0,0,1.2,9.7-1.8,10.1c0,0-0.6,0.2-1.3-0.8c0.3,1.2,0.7,1.8,1.1,2.2
			c-0.5-0.4-1.2-1.3-1.7-3.9c-0.2-1.2-0.6-2.5-1-3.6c-0.5-1.1-1-2.5-1.6-3.7c0,0,0,0,0,0c-0.1-0.4-0.1-0.6-0.1-0.6
			c0.2,0.4,0.5,0.9,0.7,1.5c-0.5-1.1-1-2.3-1.4-3.2c0,0,2.5,12.1,0.3,12.8c0,0-0.9,0.5-1.8-1.2c0.5,1.5,1,2.2,1.4,2.6
			c-0.6-0.4-1.3-1.3-2-3.9l-2.6-10.3c0,0,0,0.1,0,0.3l-0.5-1.8c0,0-0.6,7.3-3.6,6.2c0,0-0.1,0-0.2-0.2c0.2,1,0.5,1.5,0.7,1.7
			c0,0,0,0,0,0c0,0-3.6-2.1,2-17c0-0.3,0-0.5,0-0.8c0-0.5,0-0.9,0.1-1.4c0-0.1,0-0.1,0-0.2l-5-24.2L536,230c-0.1,0-0.1-0.1-0.2-0.1
			c-0.1,0-0.2-0.1-0.3-0.2c0.1,0.1,0.2,0.2,0.3,0.2l-8.9,30.4l-0.2,0.7l-0.1,0.3L515.3,300l-49.7-2.4l4.2-4.7c2.7-2.6,0-20.4-1.8-30
			c-0.7-3.7-1.2-6.2-1.2-6.2c0-1.6,0.2-3.1,0.7-4.7l17.4-58.2c2.6-8.9,12.1-14,20.9-11.3l28.7,8.6c2.2,0.6,4.2,1.7,5.8,3.1
			c0,0,0,0,0,0c2.9,1.7,5.4,4.8,6.5,7.6l1.6,5c0,0.1,0,0.1,0.1,0.2c0.7,2.3,3.4,13,2.8,14.7c0.2,0.5,0.3,0.9,0.5,1.4l0,0.1l7.5,36.3
			c0.1,0.4,0.1,0.8,0.1,1.2l0.5,1.6l1,3.1c0,0,0,0,0,0l0.5,1.5c0,0,1.1,1.8,2,4.4c0,0,0,0.1,0,0.1c0,0,0,0,0,0
			C564.1,273.8,564.5,276.7,563.8,279.3z"/>
		<path class="st12" d="M538.1,240.2l-2.3-10.3c-0.1-0.1-0.2-0.2-0.3-0.2c0.1,0.1,0.2,0.1,0.3,0.2c0.1,0,0.1,0.1,0.2,0.1
			L538.1,240.2z"/>
		<path class="st11" d="M487.5,195.5l-4.5-3c-5-3.3-14.1,1.4-17.5,6.4l-4.4,6.5c-1.3,2-8.6,14.2-8.5,16.5c-0.4,0.5-0.7,1-1,1.5
			l-21.4,40.1c-0.2,0.4-0.4,0.9-0.6,1.4l-3.3,4.9l0,0c0,0-8,7.6-8.3,15.5c0,0,0.1,3.5,3.3,2.9c0,0-6.1,8.1-3.3,11.3
			c0,0,2.5,1.1,3.4-0.9c0,0,2-6.5,4.9-10.3c0,0-4.7,10.9-1.4,12.5c0,0,1.7,1.2,4.2-3.9c0.7-1.4,1.5-2.7,2.5-3.9
			c1.1-1.5,2.6-3.3,3.9-4.7c0,0-7.1,13.3-4.7,14.9c0,0,1.6,1.6,4.7-3.7l6.6-11.2c0,0-1.8,8.8,2.1,8.5c0,0,4.9-1.3,3.5-20.7l0,0
			c0.3-0.8,0.6-1.7,0.6-2.6c0-0.1,0.1-0.1,0.1-0.2l20.2-37.9c3.3-0.2,12-10.2,14-13.1l7.7-11.5C493.9,205.7,492.5,198.9,487.5,195.5
			z"/>
		<line class="st12" x1="565.7" y1="223.2" x2="565.7" y2="223.1"/>
		<path class="st12" d="M565.7,223.2c0.2,0.5,0.4,0.9,0.5,1.4"/>
		<g>
			<path class="st11" d="M555.4,291.4c0,0-0.5,0.1-1-0.4c0,0,0,0,0,0c-0.3-0.4-0.7-1-1.1-2.2c0.8,0.8,1.3,0.8,1.3,0.8
				c3-0.5,1.7-10.4,1.7-10.4c0.2,0.5,0.4,1.1,0.5,1.7c0,0,0.1,0.3,0.1,0.3c0.2,0.6,0.3,1.2,0.4,1.9
				C557.5,285.8,557.6,291,555.4,291.4z"/>
			<path class="st11" d="M564.4,280.9c0,0-0.9,2.8-3.2,1.5c0,0,2.9,7.8,0,9.6c0,0-1.3,0.2-2-0.5c0,0,0,0,0,0c-0.2-0.2-0.4-0.5-0.4-1
				c0,0,0-0.2,0-0.6c0.7,0.4,1.7,0.3,1.7,0.3c2-1.3,1.2-5.3,0.6-7.7c0-0.1,0-0.1-0.1-0.2c0,0,0,0,0-0.1c-0.3-1-0.5-1.6-0.5-1.6
				c2.3,1.3,3.2-1.5,3.2-1.5c0.7-2.6,0.3-5.5-0.4-7.9c0,0,0,0,0,0c0,0,0-0.1,0-0.1c-0.2-0.9-0.5-1.7-0.8-2.5
				C563.6,271.3,565.5,276.5,564.4,280.9z"/>
			<path class="st11" d="M535.6,229.8c-0.1-0.1-0.2-0.2-0.3-0.2C535.4,229.6,535.5,229.7,535.6,229.8L535.6,229.8z"/>
			<path class="st11" d="M551.6,223"/>
			<path class="st11" d="M552.3,224.6"/>
			<path class="st11" d="M550.3,291.9c0,0-0.5,0.3-1.2-0.3c0,0,0,0,0,0c-0.4-0.4-0.9-1.2-1.4-2.6c1.3,1.4,1.8,1.2,1.8,1.2
				c2.2-0.7-0.2-12.8-0.2-12.8c0.8,0.8,1.5,3.2,1.7,3.9c0,0-0.6-0.8-1-2c0,0,0,0.2,0.1,0.6c0,0,0,0,0,0
				C550.6,282.2,552.2,291.3,550.3,291.9z"/>
			<path class="st11" d="M544.7,278.5c-0.3,1.9-1.1,6.3-3.5,5.4c0,0-0.1-0.1-0.2-0.2c-0.2-0.2-0.5-0.8-0.7-1.7
				c0.1,0.1,0.2,0.2,0.2,0.2c3.1,1.1,3.7-6.9,3.7-6.9l0.6,2.4L544.7,278.5z"/>
		</g>
		<path class="st11" d="M523.7,221.9c0,0-16.7-7.9-19.5-12.7c-4.3-7.2-24.1-17.1-27.2-17.7c-1.1-0.2,1.6-2.6,2.6-3.2l34.1-17.9
			c3.2-1.7,6.9-2.6,10.6-2.6h5c6.5-0.3,12.2,12.5,12.2,27.9c0,15.4-5.5,27.9-12.2,27.9l0,0C527.3,223.7,525.3,223.1,523.7,221.9z"/>
		<path class="st7" d="M538.4,194.3c-2,10.9-4.6,19.8-10.3,19.8c-5.7,0-7.5-10.6-10.3-19.8c-3.2-10.5,4.6-19.8,10.3-19.8
			C533.8,174.5,540.4,183.6,538.4,194.3z"/>
		<path class="st17" d="M535.2,182.3c0,0.7-3.3,0.1-6.7,0.9c-3.3-1-7-0.2-7-0.9s3.9-2.2,6.8-1.3
			C532.1,180.4,535.2,181.6,535.2,182.3z"/>
		<ellipse cx="524.5" cy="187.5" rx="2.9" ry="2.3"/>
		<ellipse cx="534" cy="187.5" rx="2.9" ry="2.3"/>
		<path class="st17" d="M533.1,191.8c-0.9-0.3-2,0.3-2.9,1.2c-0.9-1-2.1-1.5-2.9-1.2c-1.1,0.3-1.3,1.9-0.3,3.4
			c0.8,1.4,2.2,2.3,3.3,2.3c1.1,0,2.5-0.9,3.3-2.3C534.3,193.7,534.2,192.1,533.1,191.8z"/>
		<path d="M529.4,201.4c-2.1,0-4,1-5.2,2.6c1.2,1.5,3.1,2.6,5.2,2.6c2.1,0,4-1,5.2-2.6C533.4,202.4,531.5,201.4,529.4,201.4z"/>
		<circle class="st14" cx="524.5" cy="187.5" r="1.1"/>
		<circle class="st14" cx="534" cy="187.5" r="1.1"/>
		<path class="st17" d="M532.7,179.2c0,0.4-2.1,0-4.2,0.6c-2.1-0.6-4.4-0.1-4.4-0.6s2.5-1.4,4.3-0.8
			C530.7,178,532.7,178.8,532.7,179.2z"/>
		<circle cx="524.5" cy="187.5" r="0.6"/>
		<circle cx="534" cy="187.5" r="0.6"/>
		<ellipse transform="matrix(0.5 -0.866 0.866 0.5 96.9165 557.9562)" cx="531.7" cy="195" rx="0.7" ry="0.3"/>
		<ellipse transform="matrix(0.866 -0.5 0.5 0.866 -26.6679 290.5659)" cx="528.9" cy="195" rx="0.3" ry="0.7"/>
		<g>
			<path class="st12" d="M521.9,169.6c-4.1,1.3-8.5,3-11.4,6.3c-1.3,1.8-2.6,3.8-4.6,4.9c-2,1.2-4.1,2-6.3,2.5
				c-2.2,0.3-4.1,1.2-5.7,2.7c-2.2,1.8-3.9,3.9-5,6.4c-1,1.4-2.8,2.2-4.4,2.6c-2.2,0.6-4.4,0.8-6.6,0.8c2.2-0.2,4.4-0.6,6.5-1.3
				c1.3-0.4,2.5-1,3.5-1.9c0,0,0.5-0.6,0.5-0.6c0.2-0.4,0.4-1,0.6-1.5c1.6-3.1,4.1-5.5,7.1-7.2c3.1-1.3,6.5-1.4,9.3-3.3
				c2-1,3.1-2.9,4.5-4.6C513.1,172.1,517.5,170.5,521.9,169.6L521.9,169.6z"/>
		</g>
		<g>
			<path class="st12" d="M513.8,178c-2.1,3.9-6.7,5.7-10.8,6.5c-1,0.2-1.9,0.6-2.8,1.1c-1.7,1.1-3.4,2.6-4.7,4.1
				c-0.7,0.8-1.3,1.6-1.8,2.6c0.9-3.2,3.5-5.6,6-7.5c0.9-0.6,2-1.1,3.1-1.3C506.8,182.7,511.1,181.4,513.8,178L513.8,178z"/>
		</g>
		<g>
			<path class="st12" d="M531.1,171.3c-4.1,1.3-8.5,3-11.4,6.3c-1.3,1.8-2.6,3.8-4.6,4.9c-2,1.2-4.1,2-6.3,2.5
				c-2.2,0.3-4.1,1.2-5.7,2.7c-2.2,1.8-3.9,3.9-5,6.4c-1,1.4-2.8,2.2-4.4,2.6c-2.2,0.6-4.4,0.8-6.6,0.8c2.2-0.2,4.4-0.6,6.5-1.3
				c1.3-0.4,2.5-1,3.5-1.9c0,0,0.5-0.6,0.5-0.6c0.2-0.4,0.4-1,0.6-1.5c1.6-3.1,4.1-5.5,7.1-7.2c3.1-1.3,6.5-1.4,9.3-3.3
				c2-1,3.1-2.9,4.5-4.6C522.3,173.8,526.8,172.2,531.1,171.3L531.1,171.3z"/>
		</g>
		<g>
			<path class="st12" d="M516.7,185.2c-4.1,1.3-8.5,3-11.4,6.3c-1.3,1.8-2.6,3.8-4.6,4.9c-2,1.2-4.1,2-6.3,2.5
				c-2.2,0.3-4.1,1.2-5.7,2.7c-2.2,1.8-3.9,3.9-5,6.4c-1,1.4-2.8,2.2-4.4,2.6c-2.2,0.6-4.4,0.8-6.6,0.8c2.2-0.2,4.4-0.6,6.5-1.3
				c1.3-0.4,2.5-1,3.5-1.9c0,0,0.5-0.6,0.5-0.6c0.2-0.4,0.4-1,0.6-1.5c1.6-3.1,4.1-5.5,7.1-7.2c3.1-1.3,6.5-1.4,9.3-3.3
				c2-1,3.1-2.9,4.5-4.6C507.9,187.7,512.3,186.1,516.7,185.2L516.7,185.2z"/>
		</g>
		<g>
			<path class="st12" d="M517,189.8c-2.1,3.9-6.7,5.7-10.8,6.5c-1,0.2-1.9,0.6-2.8,1.1c-1.7,1.1-3.4,2.6-4.7,4.1
				c-0.7,0.8-1.3,1.6-1.8,2.6c0.9-3.2,3.5-5.6,6-7.5c0.9-0.6,2-1.1,3.1-1.3C510,194.4,514.3,193.2,517,189.8L517,189.8z"/>
		</g>
		<g>
			<path class="st12" d="M489,187.1c-2.1,3.9-6.7,5.7-10.8,6.5c-1,0.2-1.9,0.6-2.8,1.1c-1.7,1.1-3.4,2.6-4.7,4.1
				c-0.7,0.8-1.3,1.6-1.8,2.6c0.9-3.2,3.5-5.6,6-7.5c0.9-0.6,2-1.1,3.1-1.3C482,191.8,486.3,190.6,489,187.1L489,187.1z"/>
		</g>
		<g>
			<path class="st12" d="M517,194.6c-2.1,3.9-6.7,5.7-10.8,6.5c-1,0.2-1.9,0.6-2.8,1.1c-1.7,1.1-3.4,2.6-4.7,4.1
				c-0.7,0.8-1.3,1.6-1.8,2.6c0.9-3.2,3.5-5.6,6-7.5c0.9-0.6,2-1.1,3.1-1.3C510,199.3,514.3,198,517,194.6L517,194.6z"/>
		</g>
		<g>
			<path class="st11" d="M517.1,201.4c-3.9,1.8-8,4-10.5,7.6c-1.1,2-2.1,4.1-4,5.4c-1.8,1.4-3.8,2.5-5.9,3.3
				c-2.1,0.6-3.9,1.6-5.3,3.4c-1.9,2-3.4,4.3-4.1,7c-0.9,1.5-2.5,2.5-4,3.1c-2.1,0.8-4.3,1.4-6.5,1.6c2.2-0.5,4.3-1.1,6.3-2.1
				c1.2-0.6,2.4-1.3,3.2-2.4c0,0,0.4-0.7,0.4-0.7c0.2-0.5,0.3-1.1,0.5-1.6c1.2-3.2,3.4-6,6.2-8c2.9-1.6,6.3-2.2,8.8-4.4
				c1.9-1.3,2.8-3.3,3.9-5.1C508.7,205,512.9,202.8,517.1,201.4L517.1,201.4z"/>
		</g>
		<g>
			<path class="st11" d="M501.4,219c-3.9,1.8-8,4-10.5,7.6c-1.1,2-2.1,4.1-4,5.4c-1.8,1.4-3.8,2.5-5.9,3.3c-2.1,0.6-3.9,1.6-5.3,3.4
				c-1.9,2-3.4,4.3-4.1,7c-0.9,1.5-2.5,2.5-4,3.1c-2.1,0.8-4.3,1.4-6.5,1.6c2.2-0.5,4.3-1.1,6.3-2.1c1.2-0.6,2.4-1.3,3.2-2.4
				c0,0,0.4-0.7,0.4-0.7c0.2-0.5,0.3-1.1,0.5-1.6c1.2-3.2,3.4-6,6.2-8c2.9-1.6,6.3-2.2,8.8-4.4c1.9-1.3,2.8-3.3,3.9-5.1
				C493,222.5,497.2,220.4,501.4,219L501.4,219z"/>
		</g>
		<g>
			<path class="st11" d="M504.8,222c-3.9,1.8-8,4-10.5,7.6c-1.1,2-2.1,4.1-4,5.4c-1.8,1.4-3.8,2.5-5.9,3.3c-2.1,0.6-3.9,1.6-5.3,3.4
				c-1.9,2-3.4,4.3-4.1,7c-0.9,1.5-2.5,2.5-4,3.1c-2.1,0.8-4.3,1.4-6.5,1.6c2.2-0.5,4.3-1.1,6.3-2.1c1.2-0.6,2.4-1.3,3.2-2.4
				c0,0,0.4-0.7,0.4-0.7c0.2-0.5,0.3-1.1,0.5-1.6c1.2-3.2,3.4-6,6.2-8c2.9-1.6,6.3-2.2,8.8-4.4c1.9-1.3,2.8-3.3,3.9-5.1
				C496.4,225.5,500.6,223.4,504.8,222L504.8,222z"/>
		</g>
		<g>
			<path class="st11" d="M489.1,239.6c-3.9,1.8-8,4-10.5,7.6c-1.1,2-2.1,4.1-4,5.4c-1.8,1.4-3.8,2.5-5.9,3.3
				c-2.1,0.6-3.9,1.6-5.3,3.4c-1.9,2-3.4,4.3-4.1,7c-0.9,1.5-2.5,2.5-4,3.1c-2.1,0.8-4.3,1.4-6.5,1.6c2.2-0.5,4.3-1.1,6.3-2.1
				c1.2-0.6,2.4-1.3,3.2-2.4c0,0,0.4-0.7,0.4-0.7c0.2-0.5,0.3-1.1,0.5-1.6c1.2-3.2,3.4-6,6.2-8c2.9-1.6,6.3-2.2,8.8-4.4
				c1.9-1.3,2.8-3.3,3.9-5.1C480.7,243.1,484.9,241,489.1,239.6L489.1,239.6z"/>
		</g>
		<g>
			<path class="st11" d="M521.5,210.5c-3.6,1.7-7.3,3.8-9.4,7.2c-0.6,0.9-0.8,1.8-1.4,2.7c-1.7,2.6-4.6,4.3-7.5,5.4
				c-3.8,1.1-6.4,4.7-7.9,8.2c-0.4,2.2-2.1,3.7-4,4.5c-1.9,0.8-3.9,1.3-5.9,1.6c2-0.5,3.9-1,5.7-2c1.3-0.7,2.6-1.5,3.2-2.9
				c0.5-2.6,1.9-4.8,3.6-6.8c1-1.2,2.2-2.4,3.7-3c2.4-0.9,4.7-1.8,6.6-3.4c1.7-1.2,2.4-3.1,3.5-4.8
				C513.9,213.9,517.7,211.9,521.5,210.5L521.5,210.5z"/>
		</g>
		<g>
			<path class="st11" d="M507.5,227.1c-3.6,1.7-7.3,3.8-9.4,7.2c-0.6,0.9-0.8,1.8-1.4,2.7c-1.7,2.6-4.6,4.3-7.5,5.4
				c-3.8,1.1-6.4,4.7-7.9,8.2c-0.4,2.2-2.1,3.7-4,4.5c-1.9,0.8-3.9,1.3-5.9,1.6c2-0.5,3.9-1,5.7-2c1.3-0.7,2.6-1.5,3.2-2.9
				c0.5-2.6,1.9-4.8,3.6-6.8c1-1.2,2.2-2.4,3.7-3c2.4-0.9,4.7-1.8,6.6-3.4c1.7-1.2,2.4-3.1,3.5-4.8
				C499.9,230.5,503.7,228.5,507.5,227.1L507.5,227.1z"/>
		</g>
		<g>
			<path class="st11" d="M510.6,230c-3.6,1.7-7.3,3.8-9.4,7.2c-0.6,0.9-0.8,1.8-1.4,2.7c-1.7,2.6-4.6,4.3-7.5,5.4
				c-3.8,1.1-6.4,4.7-7.9,8.2c-0.4,2.2-2.1,3.7-4,4.5c-1.9,0.8-3.9,1.3-5.9,1.6c2-0.5,3.9-1,5.7-2c1.3-0.7,2.6-1.5,3.2-2.9
				c0.5-2.6,1.9-4.8,3.6-6.8c1-1.2,2.2-2.4,3.7-3c2.4-0.9,4.7-1.8,6.6-3.4c1.7-1.2,2.4-3.1,3.5-4.8C503,233.4,506.8,231.3,510.6,230
				L510.6,230z"/>
		</g>
		<g>
			<path class="st11" d="M496.6,246.6c-3.6,1.7-7.3,3.8-9.4,7.2c-0.6,0.9-0.8,1.8-1.4,2.7c-1.7,2.6-4.6,4.3-7.5,5.4
				c-3.8,1.1-6.4,4.7-7.9,8.2c-0.4,2.2-2.1,3.7-4,4.5c-1.9,0.8-3.9,1.3-5.9,1.6c2-0.5,3.9-1,5.7-2c1.3-0.7,2.6-1.5,3.2-2.9
				c0.5-2.6,1.9-4.8,3.6-6.8c1-1.2,2.2-2.4,3.7-3c2.4-0.9,4.7-1.8,6.6-3.4c1.7-1.2,2.4-3.1,3.5-4.8C489,250,492.8,247.9,496.6,246.6
				L496.6,246.6z"/>
		</g>
		<g>
			<path class="st12" d="M480.6,194.8c-3.6,2.4-7.3,5.3-9.1,9.2c-0.8,2.1-1.4,4.3-3.1,6c-1.5,1.7-3.4,3.1-5.3,4.2
				c-2,0.9-3.6,2.3-4.7,4.2c-1.6,2.3-2.6,4.8-2.9,7.6c-0.6,1.6-2,2.9-3.5,3.8c-1.9,1.2-4,2-6.1,2.7c2-0.8,4.1-1.8,5.8-3.1
				c1.1-0.8,2.1-1.7,2.8-2.8c0,0,0.3-0.7,0.3-0.7c0.1-0.5,0.1-1.1,0.2-1.6c0.7-3.4,2.4-6.5,4.8-8.9c2.6-2.1,5.8-3.2,8-5.8
				c1.6-1.6,2.2-3.7,3-5.7C472.9,199.7,476.7,196.9,480.6,194.8L480.6,194.8z"/>
		</g>
		<g>
			<path class="st12" d="M475.2,205.2c-0.8,4.4-4.9,7.3-8.5,9.3c-0.9,0.5-1.7,1.1-2.4,1.9c-1.3,1.6-2.5,3.4-3.4,5.3
				c-0.5,0.9-0.8,2-1,3c0-3.3,1.7-6.3,3.6-8.9c0.7-0.9,1.6-1.6,2.6-2.1C469.8,211.6,473.6,209.2,475.2,205.2L475.2,205.2z"/>
		</g>
		<g>
			<path class="st12" d="M489.9,193.8c-3.6,2.4-7.3,5.3-9.1,9.2c-0.8,2.1-1.4,4.3-3.1,6c-1.5,1.7-3.4,3.1-5.3,4.2
				c-2,0.9-3.6,2.3-4.7,4.2c-1.6,2.3-2.6,4.8-2.9,7.6c-0.6,1.6-2,2.9-3.5,3.8c-1.9,1.2-4,2-6.1,2.7c2-0.8,4.1-1.8,5.8-3.1
				c1.1-0.8,2.1-1.7,2.8-2.8c0,0,0.3-0.7,0.3-0.7c0.1-0.5,0.1-1.1,0.2-1.6c0.7-3.4,2.4-6.5,4.8-8.9c2.6-2.1,5.8-3.2,8-5.8
				c1.6-1.6,2.2-3.7,3-5.7C482.2,198.7,486,195.9,489.9,193.8L489.9,193.8z"/>
		</g>
		<g>
			<path class="st12" d="M480,211.2c-3.6,2.4-7.3,5.3-9.1,9.2c-0.8,2.1-1.4,4.3-3.1,6c-1.5,1.7-3.4,3.1-5.3,4.2
				c-2,0.9-3.6,2.3-4.7,4.2c-1.6,2.3-2.6,4.8-2.9,7.6c-0.6,1.6-2,2.9-3.5,3.8c-1.9,1.2-4,2-6.1,2.7c2-0.8,4.1-1.8,5.8-3.1
				c1.1-0.8,2.1-1.7,2.8-2.8c0,0,0.3-0.7,0.3-0.7c0.1-0.5,0.1-1.1,0.2-1.6c0.7-3.4,2.4-6.5,4.8-8.9c2.6-2.1,5.8-3.2,8-5.8
				c1.6-1.6,2.2-3.7,3-5.7C472.3,216.1,476.1,213.3,480,211.2L480,211.2z"/>
		</g>
		<g>
			<path class="st12" d="M481.6,215.5c-0.8,4.4-4.9,7.3-8.5,9.3c-0.9,0.5-1.7,1.1-2.4,1.9c-1.3,1.6-2.5,3.4-3.4,5.3
				c-0.5,0.9-0.8,2-1,3c0-3.3,1.7-6.3,3.6-8.9c0.7-0.9,1.6-1.6,2.6-2.1C476.3,222,480.1,219.5,481.6,215.5L481.6,215.5z"/>
		</g>
		<g>
			<path class="st12" d="M454,221c-0.8,4.4-4.9,7.3-8.5,9.3c-0.9,0.5-1.7,1.1-2.4,1.9c-1.3,1.6-2.5,3.4-3.4,5.3c-0.5,0.9-0.8,2-1,3
				c0-3.3,1.7-6.3,3.6-8.9c0.7-0.9,1.6-1.6,2.6-2.1C448.7,227.5,452.4,225,454,221L454,221z"/>
		</g>
		<g>
			<path class="st12" d="M483,220.1c-0.8,4.4-4.9,7.3-8.5,9.3c-0.9,0.5-1.7,1.1-2.4,1.9c-1.3,1.6-2.5,3.4-3.4,5.3
				c-0.5,0.9-0.8,2-1,3c0-3.3,1.7-6.3,3.6-8.9c0.7-0.9,1.6-1.6,2.6-2.1C477.7,226.6,481.4,224.2,483,220.1L483,220.1z"/>
		</g>
		<g>
			<path class="st12" d="M517.6,199.4c-2.1,3.9-6.7,5.7-10.8,6.5c-1,0.2-1.9,0.6-2.8,1.1c-1.7,1.1-3.4,2.6-4.7,4.1
				c-0.7,0.8-1.3,1.6-1.8,2.6c0.9-3.2,3.5-5.6,6-7.5c0.9-0.6,2-1.1,3.1-1.3C510.6,204,514.9,202.8,517.6,199.4L517.6,199.4z"/>
		</g>
		<g>
			<path class="st12" d="M517.6,204.2c-2.1,3.9-6.7,5.7-10.8,6.5c-1,0.2-1.9,0.6-2.8,1.1c-1.7,1.1-3.4,2.6-4.7,4.1
				c-0.7,0.8-1.3,1.6-1.8,2.6c0.9-3.2,3.5-5.6,6-7.5c0.9-0.6,2-1.1,3.1-1.3C510.6,208.9,514.9,207.6,517.6,204.2L517.6,204.2z"/>
		</g>
		<g>
			<path class="st12" d="M426.2,299.1c-3.3-1.6,1.4-12.5,1.4-12.5c-0.8,1.1-1.6,2.4-2.3,3.8c-1.2,3.2-3.1,9.4-0.6,10.6
				c0,0,1.3,0.9,3.4-2.3C426.9,299.5,426.2,299.1,426.2,299.1z"/>
			<path class="st12" d="M419.2,297.8c-2.8-3.2,3.3-11.3,3.3-11.3c-3.2,0.7-3.3-2.9-3.3-2.9c0.2-4.5,2.9-9,5.1-11.9
				c-2.4,2.7-6.5,8.1-6.6,13.7c0,0,0.1,3.5,3.3,2.9c0,0-6.1,8.1-3.3,11.3c0,0,2.5,1.1,3.4-0.9c0,0,0.1-0.3,0.2-0.7
				C420.3,298.3,419.2,297.8,419.2,297.8z"/>
			<path class="st12" d="M470,233.7l-0.9,1.7c3.1-1,9.3-7.7,12.2-11.4C477.8,228.1,472.4,233.6,470,233.7z"/>
			<path class="st12" d="M427.5,268.2l3.3-4.9c0.2-0.5,0.3-0.9,0.6-1.4l21.4-40.1c0.3-0.6,0.6-1.1,1-1.5c-0.1-2.3,7.1-14.5,8.5-16.5
				l4.4-6.5c0,0,0,0,0.1-0.1c-0.6,0.6-1.1,1.3-1.6,1.9l-4.4,6.5c-1.3,2-8.6,14.2-8.5,16.5c-0.4,0.5-0.7,1-1,1.5l-21.4,40.1
				c-0.2,0.4-0.4,0.9-0.6,1.4l-2.7,4C427.2,268.5,427.5,268.2,427.5,268.2z"/>
			<path class="st12" d="M432,301.5c-2.4-1.6,4.7-14.9,4.7-14.9c-0.9,0.9-1.9,2.2-2.8,3.3c0.4-0.5,0.9-1,1.3-1.5
				c0,0-7.1,13.3-4.7,14.9c0,0,1.4,1.3,4-2.6C432.9,302.3,432,301.5,432,301.5z"/>
			<path class="st12" d="M445.5,295.1c-4,0.3-2.1-8.5-2.1-8.5l-1.7,2.9c-0.3,2.3-0.8,7.7,2.3,7.5c0,0,0.9-0.2,1.8-2
				C445.6,295.1,445.5,295.1,445.5,295.1z"/>
		</g>
		<path class="st11" d="M575.9,279.4"/>
		<polygon class="st12" points="535.8,229.9 526.7,261 526.3,261.4 		"/>
		<g>
			<path class="st11" d="M525.6,226.2c-3.9,1.8-8,4-10.5,7.6c-1.1,2-2.1,4.1-4,5.4c-1.8,1.4-3.8,2.5-5.9,3.3
				c-2.1,0.6-3.9,1.6-5.3,3.4c-1.9,2-3.4,4.3-4.1,7c-0.9,1.5-2.5,2.5-4,3.1c-2.1,0.8-4.3,1.4-6.5,1.6c2.2-0.5,4.3-1.1,6.3-2.1
				c1.2-0.6,2.4-1.3,3.2-2.4c0,0,0.4-0.7,0.4-0.7c0.2-0.5,0.3-1.1,0.5-1.6c1.2-3.2,3.4-6,6.2-8c2.9-1.6,6.3-2.2,8.8-4.4
				c1.9-1.3,2.8-3.3,3.9-5.1C517.2,229.8,521.4,227.7,525.6,226.2L525.6,226.2z"/>
		</g>
		<g>
			<path class="st11" d="M509.9,243.8c-3.9,1.8-8,4-10.5,7.6c-1.1,2-2.1,4.1-4,5.4c-1.8,1.4-3.8,2.5-5.9,3.3
				c-2.1,0.6-3.9,1.6-5.3,3.4c-1.9,2-3.4,4.3-4.1,7c-0.9,1.5-2.5,2.5-4,3.1c-2.1,0.8-4.3,1.4-6.5,1.6c2.2-0.5,4.3-1.1,6.3-2.1
				c1.2-0.6,2.4-1.3,3.2-2.4c0,0,0.4-0.7,0.4-0.7c0.2-0.5,0.3-1.1,0.5-1.6c1.2-3.2,3.4-6,6.2-8c2.9-1.6,6.3-2.2,8.8-4.4
				c1.9-1.3,2.8-3.3,3.9-5.1C501.5,247.4,505.7,245.2,509.9,243.8L509.9,243.8z"/>
		</g>
		<g>
			<path class="st11" d="M513.4,246.8c-3.9,1.8-8,4-10.5,7.6c-1.1,2-2.1,4.1-4,5.4c-1.8,1.4-3.8,2.5-5.9,3.3
				c-2.1,0.6-3.9,1.6-5.3,3.4c-1.9,2-3.4,4.3-4.1,7c-0.9,1.5-2.5,2.5-4,3.1c-2.1,0.8-4.3,1.4-6.5,1.6c2.2-0.5,4.3-1.1,6.3-2.1
				c1.2-0.6,2.4-1.3,3.2-2.4c0,0,0.4-0.7,0.4-0.7c0.2-0.5,0.3-1.1,0.5-1.6c1.2-3.2,3.4-6,6.2-8c2.9-1.6,6.3-2.2,8.8-4.4
				c1.9-1.3,2.8-3.3,3.9-5.1C505,250.3,509.2,248.2,513.4,246.8L513.4,246.8z"/>
		</g>
		<g>
			<path class="st11" d="M497.7,264.4c-3.9,1.8-8,4-10.5,7.6c-1.1,2-2.1,4.1-4,5.4c-1.8,1.4-3.8,2.5-5.9,3.3
				c-2.1,0.6-3.9,1.6-5.3,3.4c-1.9,2-3.4,4.3-4.1,7c-0.9,1.5-2.5,2.5-4,3.1c-2.1,0.8-4.3,1.4-6.5,1.6c2.2-0.5,4.3-1.1,6.3-2.1
				c1.2-0.6,2.4-1.3,3.2-2.4c0,0,0.4-0.7,0.4-0.7c0.2-0.5,0.3-1.1,0.5-1.6c1.2-3.2,3.4-6,6.2-8c2.9-1.6,6.3-2.2,8.8-4.4
				c1.9-1.3,2.8-3.3,3.9-5.1C489.3,267.9,493.5,265.8,497.7,264.4L497.7,264.4z"/>
		</g>
		<g>
			<path class="st11" d="M530.1,235.4c-3.6,1.7-7.3,3.8-9.4,7.2c-0.6,0.9-0.8,1.8-1.4,2.7c-1.7,2.6-4.6,4.3-7.5,5.4
				c-3.8,1.1-6.4,4.7-7.9,8.2c-0.4,2.2-2.1,3.7-4,4.5c-1.9,0.8-3.9,1.3-5.9,1.6c2-0.5,3.9-1,5.7-2c1.3-0.7,2.6-1.5,3.2-2.9
				c0.5-2.6,1.9-4.8,3.6-6.8c1-1.2,2.2-2.4,3.7-3c2.4-0.9,4.7-1.8,6.6-3.4c1.7-1.2,2.4-3.1,3.5-4.8
				C522.5,238.7,526.3,236.7,530.1,235.4L530.1,235.4z"/>
		</g>
		<g>
			<path class="st11" d="M516.1,251.9c-3.6,1.7-7.3,3.8-9.4,7.2c-0.6,0.9-0.8,1.8-1.4,2.7c-1.7,2.6-4.6,4.3-7.5,5.4
				c-3.8,1.1-6.4,4.7-7.9,8.2c-0.4,2.2-2.1,3.7-4,4.5c-1.9,0.8-3.9,1.3-5.9,1.6c2-0.5,3.9-1,5.7-2c1.3-0.7,2.6-1.5,3.2-2.9
				c0.5-2.6,1.9-4.8,3.6-6.8c1-1.2,2.2-2.4,3.7-3c2.4-0.9,4.7-1.8,6.6-3.4c1.7-1.2,2.4-3.1,3.5-4.8
				C508.5,255.3,512.3,253.3,516.1,251.9L516.1,251.9z"/>
		</g>
		<g>
			<path class="st11" d="M519.2,254.8c-3.6,1.7-7.3,3.8-9.4,7.2c-0.6,0.9-0.8,1.8-1.4,2.7c-1.7,2.6-4.6,4.3-7.5,5.4
				c-3.8,1.1-6.4,4.7-7.9,8.2c-0.4,2.2-2.1,3.7-4,4.5c-1.9,0.8-3.9,1.3-5.9,1.6c2-0.5,3.9-1,5.7-2c1.3-0.7,2.6-1.5,3.2-2.9
				c0.5-2.6,1.9-4.8,3.6-6.8c1-1.2,2.2-2.4,3.7-3c2.4-0.9,4.7-1.8,6.6-3.4c1.7-1.2,2.4-3.1,3.5-4.8
				C511.6,258.2,515.4,256.2,519.2,254.8L519.2,254.8z"/>
		</g>
		<g>
			<path class="st11" d="M505.2,271.4c-3.6,1.7-7.3,3.8-9.4,7.2c-0.6,0.9-0.8,1.8-1.4,2.7c-1.7,2.6-4.6,4.3-7.5,5.4
				c-3.8,1.1-6.4,4.7-7.9,8.2c-0.4,2.2-2.1,3.7-4,4.5c-1.9,0.8-3.9,1.3-5.9,1.6c2-0.5,3.9-1,5.7-2c1.3-0.7,2.6-1.5,3.2-2.9
				c0.5-2.6,1.9-4.8,3.6-6.8c1-1.2,2.2-2.4,3.7-3c2.4-0.9,4.7-1.8,6.6-3.4c1.7-1.2,2.4-3.1,3.5-4.8
				C497.6,274.8,501.4,272.7,505.2,271.4L505.2,271.4z"/>
		</g>
		<g>
			<path class="st11" d="M545.3,198.7c-2.8,2.7-5.6,6-6.5,9.9c-0.2,1-0.2,2-0.4,3c-0.8,3.1-2.9,5.6-5.3,7.6
				c-3.3,2.3-4.5,6.6-4.8,10.3c0.4,2.2-0.7,4.2-2.3,5.6c-1.5,1.4-3.2,2.5-5.1,3.4c1.7-1.1,3.4-2.3,4.7-3.7c1-1.1,1.9-2.3,2-3.7
				c-0.4-2.6,0.2-5.2,1.1-7.5c0.5-1.4,1.3-2.9,2.5-4c1.9-1.6,3.8-3.2,5.1-5.4c1.2-1.7,1.3-3.7,1.7-5.7
				C539.2,204.4,542.1,201.2,545.3,198.7L545.3,198.7z"/>
		</g>
		<g>
			<path class="st11" d="M548.3,207.6c-3.3,2.8-6.5,6.1-7.9,10.3c-0.5,2.2-0.9,4.5-2.3,6.3c-1.3,1.9-3,3.5-4.8,4.8
				c-1.9,1.2-3.3,2.7-4.2,4.8c-1.3,2.5-2,5.1-2,7.9c0,0-0.3,0.9-0.3,0.9c-0.6,1.3-1.6,2.4-2.7,3.3c-1.8,1.4-3.7,2.5-5.7,3.4
				c1.9-1.1,3.8-2.3,5.4-3.8c1-0.9,1.9-1.9,2.4-3.2c0,0,0.2-0.7,0.2-0.7c0-0.5,0-1.1,0-1.6c0.2-3.5,1.6-6.7,3.6-9.5
				c2.3-2.4,5.4-3.9,7.2-6.8c1.4-1.8,1.7-4,2.3-6C541.3,213.4,544.7,210.2,548.3,207.6L548.3,207.6z"/>
		</g>
		<g>
			<path class="st11" d="M549.7,213.5c-3.1,3-6.2,6.5-7.4,10.7c-0.4,2.2-0.6,4.5-2,6.4c-1.2,1.9-2.8,3.6-4.5,5
				c-1.8,1.3-3.1,2.8-3.9,4.9c-1.2,2.5-1.8,5.2-1.6,7.9c0,0-0.2,0.9-0.2,0.9c-0.5,1.3-1.5,2.5-2.5,3.4c-1.7,1.5-3.6,2.7-5.6,3.7
				c1.9-1.2,3.7-2.5,5.2-4c0.9-1,1.8-2,2.2-3.3c0,0,0.2-0.7,0.2-0.7c0-0.5-0.1-1.1-0.1-1.6c0.1-3.5,1.3-6.8,3.2-9.6
				c2.2-2.5,5.2-4.2,6.9-7.1c1.3-1.8,1.5-4,2-6.1C543,219.7,546.2,216.3,549.7,213.5L549.7,213.5z"/>
		</g>
		<g>
			<path class="st11" d="M551.1,219.6c-3.1,3-6.2,6.5-7.4,10.7c-0.4,2.2-0.6,4.5-2,6.4c-1.2,1.9-2.8,3.6-4.5,5
				c-1.8,1.3-3.1,2.8-3.9,4.9c-1.2,2.5-1.8,5.2-1.6,7.9c0,0-0.2,0.9-0.2,0.9c-0.5,1.3-1.5,2.5-2.5,3.4c-1.7,1.5-3.6,2.7-5.6,3.7
				c1.9-1.2,3.7-2.5,5.2-4c0.9-1,1.8-2,2.2-3.3c0,0,0.2-0.7,0.2-0.7c0-0.5-0.1-1.1-0.1-1.6c0.1-3.5,1.3-6.8,3.2-9.6
				c2.2-2.5,5.2-4.2,6.9-7.1c1.3-1.8,1.5-4,2-6.1C544.4,225.7,547.6,222.3,551.1,219.6L551.1,219.6z"/>
		</g>
		<g>
			<path class="st11" d="M552,225.2c-2.1,2.1-4.2,4.5-4.9,7.4c-0.2,0.7-0.1,1.5-0.3,2.2c-0.6,2.3-2.2,4.2-3.9,5.7
				c-2.5,1.7-3.4,4.9-3.6,7.7c0.3,1.6-0.6,3.1-1.7,4.2c-1.1,1-2.4,1.9-3.8,2.6c1.3-0.8,2.5-1.7,3.5-2.8c0.7-0.8,1.4-1.7,1.5-2.8
				c0-0.4-0.1-0.8-0.1-1.1c0.1-3.1,1.1-6.4,3.7-8.3c1.7-1.4,3.2-3.1,3.8-5.3c0.2-0.7,0.2-1.5,0.4-2.2
				C547.4,229.4,549.6,227.1,552,225.2L552,225.2z"/>
		</g>
		<g>
			<path class="st11" d="M550.4,215.2c-1.8,1.8-3.6,3.9-4.2,6.4c-0.1,2.8-1.6,5.2-3.7,6.9c-2.1,1.5-2.9,4.3-3.1,6.7
				c0.3,1.4-0.5,2.7-1.5,3.6c-1,0.9-2.1,1.6-3.3,2.2c1.1-0.7,2.2-1.5,3.1-2.4c0.9-1,1.5-2,1.2-3.4c0.1-2.7,1-5.6,3.2-7.2
				c1.5-1.2,2.8-2.7,3.3-4.6c0.2-0.6,0.2-1.3,0.3-1.9C546.4,218.8,548.3,216.8,550.4,215.2L550.4,215.2z"/>
		</g>
	</g>
</g>
<g id="flatwoods">
	<text transform="matrix(1 0 0 1 27.0924 563.0004)"><tspan x="0" y="0" class="st7 st8 st24">FLATWOODS</tspan><tspan x="11.4" y="25.2" class="st7 st8 st24">MONSTER</tspan></text>
	<g>
		<path class="st18" d="M63.3,493l2.6-24.3l-9.5-12.7c-1.3-1.7-0.4-4.3,1.9-5.5l5.1-2.6l31.5-1c0.9,0.1,1.8,0.4,2.6,0.9l6.1,2.9
			c1.9,0.9,2.4,3.3,1.2,5l-8.9,12.1v27.8l0,0c0,0,10.5,7.2,13.1,25.4c1.2,10.3,4,14.8,5.7,16.6c0.4,0.4,0.1,1.1-0.5,1.2l-68.9,1.4
			c-1.5,0-2.5-1.6-1.7-2.9c2-3.4,5.1-9.7,8.1-19C56.3,499.1,63.3,493,63.3,493z"/>
		<path class="st14" d="M114.6,537.5c-1.7-1.8-4.5-6.3-5.7-16.6c-2.6-18.2-13.1-25.4-13.1-25.4v-27.8l8.9-12.1
			c1.2-1.7,0.7-4.1-1.2-5l-6.1-2.9c-0.8-0.5-1.7-0.8-2.6-0.9l-5.8,0.2c0.6,0.2,1.1,0.4,1.6,0.7l6.1,2.9c1.9,0.9,2.4,3.3,1.2,5
			L89,467.7v27.8c0,0,10.5,7.2,13.1,25.4c1.2,10.3,4,14.8,5.7,16.6c0.4,0.4,0.1,1.1-0.5,1.2l-62.8,1.3c0.2,0.1,0.4,0.1,0.7,0.1
			l68.9-1.4C114.7,538.7,115,538,114.6,537.5z"/>
		<path class="st11" d="M101.1,431.3c0,8.2-4.4,15.4-11,19.3v-4.9h-0.5c3.8-2.4,6.3-6.7,6.3-11.5c0-7.5-6.1-13.6-13.7-13.6
			c-7.5,0-13.6,6.1-13.6,13.6c0,4.8,2.5,9.1,6.3,11.5h-0.7v7.5c-10.2-2.1-18-11.1-18-22c0-8.9,5.2-16.7,12.8-20.2l7.1-11
			c1.5-2.2,4.7-2.2,6.2,0L90,412C96.6,415.9,101.1,423.1,101.1,431.3z"/>
		<path class="st7" d="M89.5,445.7l0.6-0.4l-0.1,5.3c-0.6,0.4-1.2,0.7-1.9,1l-2.6,3.9l-2.8,4.1l-2.8-4.1l-1.2-1.8h-0.1
			c-1.5,0-3-0.1-4.5-0.5l0-8l0.7,0.5c-3.8-2.4-6.3-6.7-6.3-11.5c0-7.5,6.1-13.6,13.6-13.6c7.5,0,13.7,6.1,13.7,13.6
			C95.8,439,93.3,443.3,89.5,445.7z"/>
		<path class="st17" d="M56.1,482.8c0,0.3,0.1,0.6,0.2,0.8c-0.1-0.3-0.2-0.6-0.2-0.9c0-0.1,0-0.3,0-0.4c0-0.1,0-0.3,0-0.4
			L56.1,482.8z"/>
		<path class="st17" d="M105.2,454.6l-2.7,4l-2.4,3.3l-3.9,5.3l0.4,8.5l-10.7,0.1l-1.2-6.5l-0.7,6.5c-0.1,0-0.2,0-0.3,0L78,470
			l3.5,7l-6.9-1.4l5.9,3.2l-6.6,2h7c0,0,0,0.1,0.1,0.1l-2.9,5l3.9-3.7c0.4,0.3,1,0.5,1.5,0.6l7.7,2c2.5,0.7,5.2,0.8,7.7,0.4l3.1-0.5
			c1.1,0.1,2.1-0.3,2.7-1.1c0.1-0.1,0.2-0.2,0.2-0.3c0.1-0.2,0.2-0.3,0.3-0.5c0-0.1,0.1-0.2,0.1-0.3c0.1-0.2,0.1-0.5,0.2-0.8l0-1
			l0.7-15.9C106.5,463.5,106.7,454.7,105.2,454.6z"/>
		<path class="st7" d="M82,483.1c0.1-0.1,0.2-0.3,0.2-0.5h6.7l-6.4-1.9c0,0,0-0.1,0-0.1l5.8-3.1l-6.6,1.3c-0.1-0.1-0.1-0.1-0.2-0.2
			l3.3-6.8l-5.4,5.7c-0.2,0-0.4,0-0.5,0l-0.7-6.3l-1.2,6.3l-11.3,0l0.3-8.9l-4.1-5.5l-2.6-3.5l-2.8-3.7c-1.6,0.1-1.4,8.8-1.3,10.4
			L56,483l0,1c0,0.3,0.1,0.6,0.2,0.8c0,0.1,0.1,0.2,0.1,0.3c0.1,0.2,0.2,0.4,0.3,0.6c0.1,0.1,0.2,0.2,0.3,0.3
			c0.7,0.8,1.8,1.2,2.9,1.1l3.3,0.4c2.7,0.4,5.5,0.2,8.1-0.5l8.1-2.2c0.6-0.1,1.1-0.3,1.5-0.6l3.8,3.5L82,483.1z"/>
		<path class="st17" d="M95.9,434.2c0-7.5-6.1-13.6-13.7-13.6c-0.7,0-1.3,0.1-2,0.2c6.6,1,11.7,6.6,11.7,13.5
			c0,4.8-2.5,9.1-6.3,11.5l0.6-0.4l-0.1,5.3c-0.6,0.4-1.2,0.7-1.9,1l-2.6,3.9l-0.8,1.2l2,2.9l2.8-4.1l2.6-3.9c0.7-0.3,1.3-0.6,1.9-1
			l0.1-5.3l-0.6,0.4C93.4,443.3,95.9,439,95.9,434.2z"/>
		<circle class="st14" cx="78.7" cy="433.2" r="3"/>
		<circle class="st14" cx="91" cy="433.2" r="3"/>
		<circle cx="84.5" cy="440.8" r="4.2"/>
		<path class="st21" d="M87.5,443.2c0.1-0.2,0.2-0.4,0.3-0.7c-1.5-0.9-3.5-0.5-4.5,1c-0.1,0.2-0.2,0.4-0.3,0.7
			C84.5,445.2,86.5,444.8,87.5,443.2z"/>
		<circle class="st19" cx="79" cy="433.2" r="1.5"/>
		<circle cx="79" cy="433.2" r="1.2"/>
		<circle class="st19" cx="91.3" cy="433.4" r="1.5"/>
		<circle cx="91.3" cy="433.4" r="1.2"/>
	</g>
</g>
<g id="wendigo">
	<text transform="matrix(1 0 0 1 448.2025 592.2926)" class="st7 st8 st24">WENDIGO</text>
	<g>
		<polygon class="st6" points="504.9,451.3 507.1,453.1 502.5,455.3 		"/>
		<polygon class="st6" points="502.7,449.3 504.8,451.2 501.3,452.7 		"/>
		<polygon class="st6" points="500.3,447.3 502.6,449.1 499.3,450.7 		"/>
		<path class="st7" d="M507.1,403.6h-2.2l1.8-4c0.3-0.8-0.3-1.1-0.3-1.1s-0.6-0.4-1.1,0.3l-3.6,5c-1.3-5.2-4.2-8.9-8-9.4
			c-0.6-0.1-1.2-0.1-1.8,0c-1,0.1-2,2-1,2.2c5.2,1.2,7.2,9.7,6.3,16.5c-0.8,5.9-3.2,10.8-6.4,13.6l-0.4,0c0-0.1,0-0.2-0.1-0.3
			l-2-3.4c-0.3-0.6-1.1-0.8-1.7-0.4c-0.6,0.3-0.8,1.1-0.4,1.7l2,3.4c0,0,0,0,0,0c-0.2,0.3-0.3,0.3-0.4,0.7c-0.1,0-0.2,0.6-0.2,0.6
			l-0.1,4.1c0,1.3,1,2.4,2.2,2.4l1.5,0.1c1.3,0,2.4-1,2.4-2.2l2.1-6.6l0,0c3.1-2.8,5.6-7.7,6.4-13.6c0.2-1.3,0.2-2.7,0.2-4
			c0.1-0.1,0.2-0.5,0.2-0.6l1.8-3.8c0,0,0,0,0.1,0h2.6c0.3,0,0.6-0.3,0.6-0.6C507.7,403.9,507.5,403.6,507.1,403.6z"/>
		<path class="st14" d="M536.2,528.3l0.2-0.1l15.9,7.6l-13.8-9.9c-0.6-0.5-1.6-1.5-2.8-2.7l8.4-0.4l-11.1-2.3c-2-2-3.9-4-4.6-5.1
			c-1.8-2.7-21.9-41-23.4-43.2c-1.5-2.2-11.4-12.3-11.4-12.3l0,0c-3.8-7.1-17.1-12.3-33-12.3c-16.1,0-29.5,5.4-33.1,12.5l-0.1-0.1
			l-49.1,85.1l-14.3,8.5l10.3-3l-14.4,20.3l15-14.8L364,579.7l12.4-19.8l-3.1,21.3l7.1-23l0.7,15.9l3.5-21.8
			c8.5-14.2,36-59.9,40.5-65.7c2.3-3,6.6-6,10.8-8.6c1.5-0.9,3.4-1.1,5.1-0.5c0.4,0.1,0.8,0.3,1.2,0.4c1.5,0.4,2.6,1.6,3.1,3
			l1.1,3.2l1.4,11.6c0.5,4.6,0.5,9.3,0,14l-0.7,5.7l-20,50.3v0.4v0.4v11.9v0.4c-0.2,1,0.2,1.8,0.8,3c1.1,2.3,3.3,3.5,4.8,2.7
			c1.6-0.8,2-3,0.9-5.3c-0.1-0.2-0.3-0.5-0.4-0.7l0-0.2l0.2-6.7l0.1-0.8c0,0,3.6-9.7,5.4-12.9c1.9-3.2,8.8-19.7,13.3-28.8
			c4.1-8.4,7.1-7.6,8.4-7.9h7.1c5.6,5.7,12.8,13.1,15.6,15.9c4.8,5,9.2,12.9,9.2,12.9l0.9,14.6l0,0.4c0,1,0,0.7,0,1.4
			c0,1.9,2.2,3.5,4.9,3.5c2.7,0,4.9-1.6,4.9-3.5c0-1.4-1.1-2.6-2.8-3.2l-1-17.7c0-0.4-0.1-0.7-0.3-1.2c-0.1-0.3-0.3-0.5-0.5-0.8
			l-27.2-38l-1.3-7c-0.8-4.2-2.5-11.3,0.3-13.8l2.1-2.2l2.1-2.2c1.2-1.3,2.8-2.2,4.5-2.8c0.3-0.1,0.7-0.2,1-0.3
			c2.6-0.9,5.4-0.8,7.9,0.4c2.5,1.2,4.7,2.6,6.2,4c3.8,3.9,25.7,36.4,33.1,47.5l8,15.1l-3.8-12.7l0.1-0.1l12,16.4l-8.5-16.6
			l15.7,12.7L536.2,528.3z"/>
		<g>
			<path class="st17" d="M490.9,396.7c5.2,1.2,7.2,9.7,6.3,16.5c-0.7,5.5-3.5,10.7-6.4,13.6l0.7-0.4c3.2-2.8,6.2-7.3,7-13.2
				c0.9-6.8-1.1-15.3-6.3-16.5c-1-0.2,0-2.1,1-2.2c0.1,0,0.2,0,0.3,0c-0.5,0-1,0-1.6,0C490.8,394.6,489.8,396.5,490.9,396.7z"/>
			<path class="st17" d="M501.7,403.9l4.9-5c0,0,0.1-0.1,0.1-0.1c-0.1-0.1-0.2-0.2-0.2-0.2s-0.6-0.4-1.1,0.3l-2.7,3.7
				C502.6,402.6,502,403.6,501.7,403.9z"/>
			<path class="st17" d="M491,435.6c-1.3,0-2.3-1.1-2.2-2.4l0.1-4.1c0-0.2,0.2-1.1,0.5-1.3c0,0,0,0,0,0l-2-3.4
				c-0.3-0.6-0.1-1.3,0.4-1.7c-0.4-0.2-0.8-0.2-1.2,0c-0.6,0.3-0.8,1.1-0.4,1.7l2,3.4c0,0,0,0,0,0c-0.4,0.2-0.5,1.3-0.5,1.3
				l-0.1,4.1c0,1.3,1,2.4,2.2,2.4l1.5,0.1c0.1,0,0.1,0,0.2,0L491,435.6z"/>
			<path class="st17" d="M505.7,404.9L505.7,404.9C505.7,404.9,505.7,404.8,505.7,404.9L505.7,404.9z"/>
		</g>
		<path class="st16" d="M496.4,436.1c-6.3-4.7-12.3-8-15.5-8.6c-1.9-0.9-3.9-1.5-6.1-1.7c-1-0.1-2,0.4-2.6,1.2l-18,20.9
			c0,0-0.6,3.6,1.5,6.2c2.2,2.6,1.1,9.5,3.1,13c2,3.4,2.7,11.1,2.7,11.1c0.6,2.6,3.5,4.2,5.7,1.3c0,0,2.8-2.4,3.7-6.2
			c0.6-2.7,2.4-4.5,8-8c5.6-3.5,7.8-9.4,7.8-9.4c1.9-2.5,1.2-1.5,2.5-4.2l0.7-0.1c0.7-0.1,1.4,0.2,1.9,0.7
			c4.3,4.5,11.3,8.3,12.2,7.7c0.7-0.6-0.9-2.7-3.8-6.3c-1.7-2-6-7.9-7.1-11c7.2,2.7,14.6,12.3,15.6,10.9c0.1-0.1,0.2-0.6,0.1-0.7
			C509.2,450.9,504.2,441.8,496.4,436.1z"/>
		<path class="st18" d="M475.7,430.7c0.6-0.8,1.6-1.3,2.6-1.2c2.2,0.2,4.2,0.8,6.1,1.7c3.1,0.6,9.1,3.9,15.5,8.6
			c1.7,1.2,3.2,2.6,4.6,4c-2.1-2.7-4.8-5.6-7.9-7.9c-6.3-4.7-12.3-8-15.5-8.6c-1.9-0.9-3.9-1.5-6.1-1.7c-1-0.1-2,0.4-2.6,1.2
			l-18,20.9c0,0-1.9,1.4,1.5,6.4L475.7,430.7z"/>
		<path class="st7" d="M479,422.3l-1.4,4v0c0,0,0,0,0,0c0,1.1-1.4,2-3,2c-1,0-2-0.4-2.5-0.9l0,0c-0.2-0.1-0.3-0.3-0.4-0.5l-8.1-12.4
			H462c-0.7,0-1.3-0.6-1.3-1.3V413c0-0.5,0.3-1,0.7-1.3v-6.3c0-0.5,0.2-1,0.5-1.4c0.1-0.2,0.2-0.3,0.2-0.4l9.6-12
			c0.5-0.6,1.9-0.8,2.4-0.4l0.3,0.2c0.5,0.5,0.5,1.3,0.3,1.9l-6.8,10.8c-0.9,1.2-1.4,2.7-1.4,4.2v2.4c0,0.2,0,0.2,0,0.5
			c0.1,0.2,0.1,0.2,0.2,0.3l5.8,8.8l0.2-0.6c0.2-0.6,0.7-0.9,1.3-0.7c0.6,0.2,0.9,0.7,0.7,1.3l-0.7,2.3l1.1,1.7l0.2,0.3
			c0,0,0,0.1,0,0.1l0.1-0.3l1-3c0.2-0.7,1-1.1,1.7-0.8C478.9,420.9,479.2,421.6,479,422.3z"/>
		<path class="st13" d="M475.4,424.7l-0.1,0.3c0,0,0-0.1,0-0.1l-0.2-0.3C475.2,424.7,475.3,424.7,475.4,424.7z"/>
		<circle class="st7" cx="481.1" cy="437.2" r="3.7"/>
		<circle cx="481.1" cy="437.2" r="2.1"/>
		<path class="st17" d="M476.4,426.4c-1,0-2-0.4-2.5-0.9l0,0c-0.2-0.1-0.3-0.3-0.4-0.5l-8.1-12.4h-1.5c-0.7,0-1.3-0.6-1.3-1.3V411
			c0-0.5,0.3-1,0.7-1.3v-6.3c0-0.5,0.2-1,0.5-1.4c0.1-0.2,0.2-0.3,0.2-0.4l8.2-10.3c-0.4,0.2-1.1,0.6-1.3,1l-8.8,11.3
			c-0.1,0.1-0.2,0.3-0.2,0.4c-0.3,0.4-0.5,0.9-0.5,1.4v6.3c-0.4,0.3-0.7,0.7-0.7,1.3v0.4c0,0.7,0.6,1.3,1.3,1.3h1.5l8.1,12.4
			c0.1,0.2,0.3,0.3,0.4,0.5l0,0c0.5,0.6,1.5,0.9,2.5,0.9c1.7,0,3-0.9,3-2c0,0,0,0,0,0v0l0-0.1C477.3,426.3,476.9,426.4,476.4,426.4z
			"/>
		<g>
			<path class="st25" d="M366.1,564.6l10.4-14.7l-10.3,3l14.3-8.5l49.1-85.1l0.1,0.1c1.8-3.7,6.3-6.9,12.3-9.1
				c-7.4,2.2-12.8,5.8-14.9,10l-0.1-0.1L378,545.2l-14.3,8.5l10.3-3l-14.4,20.3L366.1,564.6z"/>
			<path class="st25" d="M430.5,581c-0.6-1.2-0.9-2-0.8-3v-0.4v-11.9v-0.4v-0.4l20-50.3l0.7-5.7c0.5-4.6,0.5-9.3,0-14l-1.4-11.6
				l-1.1-3.2c-0.5-1.4-1.6-2.5-3-3c-0.5-0.2-1-0.3-1.5-0.5c-1.6-0.6-3.4-0.3-4.9,0.6c0,0,0,0-0.1,0c0.8-0.1,1.6,0,2.4,0.3
				c0.5,0.2,1,0.3,1.5,0.5c1.4,0.4,2.6,1.6,3,3l1.1,3.2l1.4,11.6c0.5,4.6,0.5,9.3,0,14l-0.7,5.7l-20,50.3v0.4v0.4v11.9v0.4
				c-0.2,1,0.2,1.8,0.8,3c1.1,2.3,3.3,3.5,4.8,2.7c0.4-0.2,0.7-0.4,0.9-0.8C432.4,583.5,431.2,582.5,430.5,581z"/>
			<path class="st25" d="M531.7,531.6l-1.7-3.2c-7.4-11.1-29.3-43.6-33.1-47.5c-1.4-1.4-3.7-2.8-6.2-4c-2.4-1.2-5.2-1.4-7.7-0.5
				c-0.4,0.2-0.9,0.3-1.3,0.5c-0.2,0.1-0.4,0.2-0.6,0.2c2.3-0.6,4.9-0.4,7.1,0.7c2.5,1.2,4.7,2.6,6.2,4c3.8,3.9,25.7,36.4,33.1,47.5
				l8,15.1L531.7,531.6L531.7,531.6z"/>
			<path class="st25" d="M501,569.2c-2.7,0-4.9-1.6-4.9-3.5c0-0.7,0-0.4,0-1.4l0-0.4l-0.9-14.6c0,0-4.4-7.9-9.2-12.9
				c-2.8-2.9-10-10.2-15.6-15.9h-7.1c-0.2,0.3-0.4,0.6-0.6,0.9h5.1c5.6,5.7,12.8,13.1,15.6,15.9c4.8,5,9.2,12.9,9.2,12.9l0.9,14.6
				l0,0.4c0,1,0,0.7,0,1.4c0,1.9,2.2,3.5,4.9,3.5c1.3,0,2.4-0.4,3.3-0.9C501.5,569.1,501.3,569.2,501,569.2z"/>
		</g>
		<g>
			<path class="st15" d="M477.6,431.8c1.1-0.5,2.3-1,3.5-1.4c1.5,0.7,3.1,1.5,4.5,2.4c1.4,0.8,2.8,1.7,4.1,2.8
				c-1.6-0.5-3.1-1.2-4.6-2c-1.5-0.8-2.9-1.6-4.3-2.4l0.3,0C480,431.5,478.8,431.7,477.6,431.8L477.6,431.8z"/>
		</g>
		<g>
			<path class="st14" d="M486.9,452.9c0,1-0.5,1.8-1.4,2.3C485.5,454.2,486,453.4,486.9,452.9L486.9,452.9z"/>
		</g>
		<g>
			<path class="st14" d="M483.9,454.5c-0.1,1-0.6,1.6-1.6,2C482.5,455.5,483,454.8,483.9,454.5L483.9,454.5z"/>
		</g>
		<g>
			<path class="st14" d="M484.7,457c-0.1,1-0.7,1.7-1.6,2C483.3,458,483.8,457.3,484.7,457L484.7,457z"/>
		</g>
		<g>
			<path class="st14" d="M481.7,458.6c0,0.9-0.4,1.4-1.3,1.7C480.4,459.4,480.8,458.8,481.7,458.6L481.7,458.6z"/>
		</g>
		<g>
			<path class="st14" d="M481.7,461.7c-0.4,0.9-1.1,1.5-2,1.6C480,462.4,480.7,461.8,481.7,461.7L481.7,461.7z"/>
		</g>
		<g>
			<path class="st14" d="M479.1,459.9c-0.1,1.1-0.7,2-1.7,2.6C477.6,461.4,478.1,460.5,479.1,459.9L479.1,459.9z"/>
		</g>
		<g>
			<path class="st14" d="M479,462.5c-0.3,1.2-1.1,2.1-2.2,2.6C477.1,463.9,477.9,463,479,462.5L479,462.5z"/>
		</g>
		<circle class="st19" cx="481.7" cy="437.2" r="0.8"/>
	</g>
</g>
<g id="Layer_13">
	<g>
		<g>
			<path class="st7" d="M296.4,56.8c-0.2,0.5,0.1,1,0.2,1.6c0,0.5,0,1.5-0.4,1.6c-0.8,0.4-1.5,0.2-2.2,0.6c-1,0.5,0,2.3-1.5,3
				c-0.8,0.4-1.1-0.9-1.9-0.5c-0.2,0.1-0.6,0.3-0.6,0.7c0.1,2.3,1.1,2.8,1.2,4.3c0,0.3,0,0.7-0.1,1c-0.3,0-0.7,0.2-1,0.4
				c-1.3,0.6-2.4,2-3.2,3.8c-2.5-1-2.1-4.9-5.6-3c-1.3,0.7-2.9,2.4-3.9,4.1c-4.9,9.3-11.7,33-11.5,40.9c0.1,3.3,1.2,9.4,4.8,8.8
				c0.9-0.2,1.5-1.4,2.5-1.6c0.5-0.1,1,0.1,1.4,0.1c1.3-0.2,2.4-4.2,4.5-4.6c0.2,0,0.5,0,0.5,0.4c0,0.9-0.5,2-0.4,3
				c0,0.5,0,0.9-0.1,1.5c0.1,0,0.2,0,0.2,0c1.2-0.2,1.6-2,2.7-2.2c0.2,0,0.4,0,0.6,0.1c0,0.1,0,0.1,0,0.2c0,1-0.3,1.7-0.3,2.5
				c0,0.2,0.1,0.3,0.1,0.5c0.7,0.5,1.2,1.6,1.3,2.6c0.4,0.3,0.9,0,1.3,0c0.3,0,0.6,0,0.8,0.2c0.1,0.1,0.1,0.3,0.1,0.4
				c0,0.7-0.3,1.2-0.6,1.7c-2.7,6.5-11.2,12.1-16.6,12.1c-3.8,0-10.8-1.6-13.2-4.8c-0.5-0.6-0.5-1.5-0.9-2.2
				c-0.3-0.5-0.9-0.8-1.2-1.3c-0.2-0.4-1.2-5.6-1.2-6.2c0-0.7,0.2-1.4,0.2-2.1c0-0.6-0.2-1.1-0.2-1.8c0-0.8,0.4-1.7,0.5-2.6
				c0.1-0.8,0-1.7,0-2.5c0-3,1-6.2,1.7-9.4c1.1-4.8,2.4-9.8,4.2-15.1c0.8-2.4,2-4.8,2.6-7.3c0.1-0.4,0.1-0.8,0.3-1.2
				c0.2-0.7,0.8-1.3,1-2.1c0.3-0.7,0.3-1.4,0.5-2.1c0.3-1.1,1.7-3.2,1.9-4.1c0.1-0.3,0-0.9,0.2-1.2c0.1-0.4,0.6-0.5,0.8-1
				c0.2-0.3,0.2-1.5,0.5-2.1c2-5.6,10.1-18.4,14.1-21.3c0.6-0.4,1.1-0.3,1.6-0.7c0.5-0.4,0.9-1.4,1.4-1.7c6.2-4.3,10.8-0.8,14.6,5.2
				C298.3,55.1,296.9,55.7,296.4,56.8z M261,101.6c0-0.5-0.4-0.5-0.8-0.4c-0.1,0.1-0.2,0.1-0.4,0.2c0,0.4,0,0.9,0,1.3
				c0,0,0.1,0,0.1-0.1c0.3-0.1,0.7-0.4,1-0.8C261,101.7,261,101.7,261,101.6z"/>
			<path class="st7" d="M335.2,63.8c-0.3,1.9-0.5,3.8-1,5.6c-0.7,2.1-1.1,4.2-1.9,6.2c-1.2,3.2-2.6,6.7-4.3,9.2
				c-2.6,3.8-5.6,6.8-8.7,9.3c0.7,8.2,2.6,16,4.4,23.9c0.8,3.8,1.5,7.6,2.6,11.3c1,3.4,2.7,6.9,2.9,10.7c0,0.1,0,0.3,0,0.4
				c-0.5,1-1,1.9-1.6,2.6c-1.5-0.7-2.1-3.1-2.9-5.1c-0.1,0-0.2,0-0.3,0c-1,0-1.1,2-1.7,2c-0.8,0-1.2-1-1.6-2
				c-0.6,0.3-0.6,1.6-1.4,1.6c-0.1,0-0.2-0.1-0.3-0.1c-1.2-2.1-2.1-4.8-3.3-6.6c-1,0.4-0.2,3.9-1.3,3.9c-2.6,0.1-2.6-3.7-3.3-6.6
				c-0.7-2.9-1.5-5.4-2.2-8.3c-0.8-2.8-1.2-5.9-1.9-8.7c-0.2-0.6-0.6-1-0.7-1.8c-0.4-2.2-0.2-4.8-1.5-6.3c-0.2,0-0.2-0.1-0.4,0
				c-1.1,0.2-0.7,2.9-1.2,4c-0.1,0.4-0.4,0.7-0.6,1.1c-0.2,0.8-0.1,3.8-0.3,5.1c-0.3,1.3-0.8,2.6-1,3.8c-0.2,1.2,0,2.4-0.1,3.6
				c-0.2,1.2-0.8,2.1-1,3.2c-0.3,1.1-0.4,2.4-1,3.2c0.3,0.5,0.4,0.9,0.4,1.5c0.1,1.1-0.4,2.4-0.5,3.5c-0.3,2.3-0.2,6.3-2.3,6.3
				c-0.2,0-0.2-0.1-0.4-0.1c-0.7-1.3-0.8-2.8-0.8-4.3c-0.2-0.2-0.3-0.5-0.6-0.4c-0.4,0-0.6,0.4-1,0.4c-0.2,0-0.3-0.1-0.5-0.3
				c-0.3-1-0.4-2-0.8-2.9c-0.3,0.2-0.7,0.4-1,0.4c-0.9,0.1-1.4-1.2-2-1.9c-1.3,1.3-1.3,4-2.5,5.5c-1.1-0.4-1.8-1.1-1.9-2.7
				c-0.1-2.2,1-5.6,1.4-7.9c1.7-8.3,3.1-17,4.8-25.9c1.3-6.6,2.6-13.5,4.1-20.4c0.1-0.6,0.3-1.3,0.5-2c0.3-1.2,0.5-4.1,0.7-4.7
				c0.1-0.4,0.4-0.8,0.5-1.2c0.3-1,0.3-2.3,0.5-3.4c0.6-2.9,1.5-6,2.9-8.6c-0.1-1.3-1.5-0.1-1.6-1.4c-0.1-1.6,0.7-2.2,1-3.5
				c0-0.5,0-1-0.1-1.5c0-0.5-0.1-1.3,0.2-1.9c0.7-1.2,2.9-1.9,4-3.8c-0.1-1.7-1-1.3-1.5-2.2c0.2-1.1,0.3-2.2,0.3-3.2
				c-0.1-1.2-0.3-2.2-0.6-3.3c4.6-4.2,9.4-7.7,14.4-9.9c4.3-2,9.6-3.6,13.6-1c0.4,0.3,0.9,0.2,1.3,0.5c2.9,2.6,4.7,11.3,4.9,17.1
				C337,52,336.2,57.9,335.2,63.8z M300.2,91.4c-0.3,0.1-0.6,0.2-0.9,0.3c-0.2,0.5-0.3,1.2-0.2,1.8c0,0.2,0.1,0.3,0.1,0.6
				c0.2,0,0.2,0,0.3-0.1c0.6-0.2,0.8-1,0.8-1.8C300.2,91.9,300.2,91.6,300.2,91.4z M317.4,51.1c-0.6,0.2-1.2,0.4-1.8,0.7
				c-0.1,0.7-0.4,1.1-0.5,1.6c-1.6,8-3.9,15.5-5,23.3c0.4,0.4,1,0.5,1.5,0.3c0.8-0.2,3.9-2.4,4.4-3.5c0.4-0.9-0.2-0.9,0.7-1.1
				c0.4-0.1,0.2-0.7,0.4-1.2c0.4-0.9,1-1.2,1.4-2.4c0.1-0.4,0.4-0.6,0.5-1.1c1.5-3.8,2.9-9.2,2.7-13.7
				C321.6,49.9,319.4,50.4,317.4,51.1z M312.6,88.1c0,0.8-0.6,0.9-0.6,1.7c0,0.1,0.1,0.2,0.1,0.4c0.4,0,0.5,0.8,0.9,0.8
				c0.2-0.4,0.3-1.1,0.2-1.6C313.3,88.7,313.1,88,312.6,88.1z M316.6,76.3c-0.3,0.1-0.6,0.2-0.9,0.2c0,0.3,0,0.5,0,0.8
				c0,0.6,0.1,1.2,0.5,1c0.2,0,0.2-0.1,0.4-0.1C316.7,77.6,316.7,77,316.6,76.3z"/>
			<path class="st7" d="M381.7,27.7c-0.6,2.7-0.2,1.7-1.2,4.3c-0.6,1.4-1,3.9-1.4,5.6c-1,4.5-2,9.1-3.1,13.5c-0.8,3-1.8,5.7-2.6,8.6
				c-0.8,3.1-1.5,6.2-2.3,9.2c-1.6,5.8-3.7,11.1-4.9,17c-1,1.1-1.4,2.7-2,4.4c-0.2,0.5-0.5,0.8-0.6,1.2c-0.3,0.9,0,2.8-0.2,3.5
				c-0.4,1.2-0.6-0.4-0.5,1.5c0,0.7-0.4,0.5-0.6,0.9c-0.2,0.6-0.4,2-0.6,2.7c-0.7,2.6-1.7,5.5-3.1,6.9c0,3.8-1.5,6.2-2.5,9
				c-0.2,0.7-0.4,1.6-0.6,2.4c-0.7,2.1-1.5,3.7-2.2,5.7c-1.8,5.2-3.7,10.3-5.8,15c-0.2,2-0.8,3.3-2,3.3c-0.4-0.7-0.7-1.6-0.7-2.6
				c-0.1-2.1,0.5-4.1,0.4-6.3c0-0.6-0.1-1.1-0.3-1.7c-0.1,0-0.2,0-0.3,0c-1.2,0-0.8,2.9-2,2.9c-0.7,0-1.4,0.3-2.2,0.3
				c-0.6,0-1.1-0.5-1.5-1.5c-1.1,1-1.6,3.4-2.5,4.5c-1.3-0.4-1.6-3.2-2.9-3.7c1.1-4.2,2.9-7.8,4.3-11.7c1.2-3,2.3-6.1,3.3-9.1
				c3.1-9.2,6.2-19,9.1-28.9c-3.5-14.8-5-31.1-6.6-46.5c-0.4-3.9-1.4-7.3-1.5-11.4c-0.1-1.6,0.1-3.4,0.9-4.5c0.1,0,0.1,0,0.2-0.1
				c1.8-0.5,1.6,3.1,2.8,3.8c1.7-1.2,0.8-5.8,1.9-7.8c1.8-0.7,1.8,2.6,2.7,4.3c1.5-0.2,0.9-3.8,2.4-4c0.2,0.7,0.4,0.8,0.9,0.7
				c0.4-0.1,0.7-0.3,1.1-0.4c0.3-0.1,0.4-0.1,0.6,0.2c0.3,1.6,0.4,3.3,0.5,4.9c0.1,1.9,0,3.8,0.1,5.8c0.1,2.8,0.5,3.2,0.8,5.5
				c0.9,6.1,0.7,14.2,2.5,19.4c0.1,0.1,0.2,0.1,0.3,0.1c1.2-0.2,3.5-11.2,4-13.2c2-8,3.8-16.1,5.1-24.5c1.3-1.1,2.6-1.2,3.8-2.5
				c0.1,0,0.3-0.2,0.3-0.2c0.7-0.1,0.4,2.8,1,3c0.1,0,0.4-0.2,0.5-0.2c0.3-0.1,1.6,2.8,1.9,3.4c1.9-1.6,2.2-5.9,3.7-8.3
				c0.1,0,0.2,0,0.3,0c0.9-0.1,1.1,0.9,1.7,1.6c0.7-0.2,1.4-1.4,2.1-1.5c0.3,0,0.6,0.1,0.9,0.5C384.6,18.4,382.9,22.8,381.7,27.7z
				 M350.7,38.7c-0.2,0-0.4,0.1-0.3-0.4c-0.2,0-0.4,0.1-0.6,0.1c0,0.4-0.1,0.6-0.3,0.5c0,0.4,0,0.9,0,1.3c0.2,0,0.4,0,0.4,0.5
				c0.2,0,0.4-0.1,0.6-0.1c0-0.4,0.1-0.7,0.3-0.7C350.7,39.5,350.7,39.1,350.7,38.7z M353.2,68.8c-0.3-0.1-0.5-0.2-0.8-0.2
				c-0.7,0.1-1.1,1.2-1.1,2.5c0,0.1,0,0.2,0,0.3c0.3,0.3,0.5,0.5,0.8,0.5c0.7-0.1,1.1-0.9,1.1-2.1C353.3,69.5,353.3,69.1,353.2,68.8
				z M355.1,61c-0.4,0.1-0.8,0.1-1.2,0.2c0,0.3-0.1,0.5-0.1,0.7c0,1.2,0.6,1.1,1,1.4c0.1-0.6,0.4-1.1,0.4-1.8
				C355.2,61.4,355.1,61.2,355.1,61z M362.6,72.2c-0.2,0.6-0.3,1.5-0.3,2.3c0,0.9,0.2,1.9,0.8,1.8c0.1,0,0.2-0.2,0.2-0.2
				c0.1-0.8,0.2-1.4,0.2-2.1C363.6,73,363.2,72.2,362.6,72.2z"/>
			<path class="st7" d="M427.6,41.7c-1.2,12.1-4.4,23.6-9.4,32c-1.2,2-2.4,4.1-3.9,5.6c-1.4,1.5-2.8,2.9-4.3,4.1
				c-3.1,2.6-6.2,5.4-9.6,6.4c-2.9,0.8-5.8,0-8.7,1.3c-1,1.6-2,10.1-2.7,12.8c-0.3,1.2-1,2-1.2,3.4c-0.3,1.7-0.3,3.5-0.5,5.2
				c-1.1,6.8-2.4,13.2-3.1,20.1c-0.1,0.8-0.1,1.5-0.3,2.3c-0.4,2.8-0.8,6.3-2.5,6.4c-0.8-1.1-1-4.1-1.1-5.8
				c-0.1-0.2-0.2-0.3-0.3-0.3c-0.6,0-0.9,2.1-1.6,2.1c-0.2,0-0.5-0.3-0.7-0.6c0-1.7,0.3-6.8-0.8-6.8c-0.4,0-0.8,0.3-1.2,0.5
				c-0.4-1.1-0.5-2.9-1.3-3.3c-1.8,1.7-1.2,7.6-4,7.5c-0.4-0.9-0.6-1.9-0.6-3.1c-0.1-3.9,1.7-10.1,2.3-13.9c0.9-5.5,1.2-12.3,3-17.1
				c0.1-5.5,1.6-10.4,2.5-15.6c0.2-1.4,0.3-2.6,0.5-4c1.7-9.3,3.7-18.3,5.7-27.5c0.9-3.9,1.9-9.7,2.9-13.3c0.3-1.1,1.9-1.5,1.9-3.7
				c0-2-1.1-1.1-1.6-2.2c0.1-1.8,0.7-3.1,1.6-4.1c0-0.8,0-1.5,0-2.3c0-0.8,0-1.7,0.3-2.3c1.5-0.4,3-1,4.4-2c0-0.2,0-0.6,0-0.8
				c0-2.3-1.7-1.6-1.7-3.7c0-1.5,0.7-2.2,0.7-3.6c0-1.2-0.6-2.1-0.6-3c0-0.5,0.1-0.6,0.3-0.9c1.9-1.1,4-0.9,6-1
				c5.2-0.3,10.3-2,15.5-1.9c1.8,0,7.5,1,8.7,3.3c0.6,1-0.3,1.1,0.8,1.1c0.4,0,1.1,3,1.4,3.6c0.4,0.8,1.4,1.6,1.6,2.4
				c0.3,0.8,0.2,1.6,0.3,2.3c0.5,2.2,1.2,4.1,1.2,6.6c0,0.8-0.1,1.5-0.1,2.3c0,2,0.6,3.9,0.6,6C428,38.1,427.8,40,427.6,41.7z
				 M389,70.1c-0.4,0-0.8,0-1.3,0.1c-0.1,0.6-0.2,1.1-0.2,1.7c0,0.6,0.2,1.1,0.3,1.7c0.4,0,0.8,0,1.3-0.1c0.2-0.5,0.3-1.1,0.3-1.7
				C389.4,71.1,389.3,70.5,389,70.1z M397.5,67.9c-1,0-1.5,1.4-2.4,1.5c-0.3,0-0.4,0-0.7-0.1c-0.1,0.5-0.2,0.9-0.2,1.5
				c0,2.2,0.8,4.1,2,4.1c1.2-1,1.2-3.7,1.2-5.7C397.5,68.7,397.5,68.3,397.5,67.9z M406.9,33.5c-0.7,0-1.3,0-2,0
				c-1.5,4.2-2.6,8.9-3.8,13.4c-0.5,2-3.5,12.6-3.5,13.7c0,0.3,0,0.6,0.1,0.9c0.7,0.9,1.5,1,2.3,1c2-0.1,3.9-1.5,5.6-3.5
				c0.6-0.6,1.4-3.6,1.9-4.7c0.6-1.5,1.4-2.9,1.9-4.6c0.9-3.1,2-7.6,2-11.1C411.4,33.7,409,33.5,406.9,33.5z M399.5,37.2
				c0-0.8,0-1.5,0-2.3c-0.1,0-0.1-0.1-0.2-0.1c-0.3,0-0.8,0.5-0.8,1.3c0,0.8,0.4,1.2,0.8,1.2C399.4,37.2,399.4,37.2,399.5,37.2z
				 M413.8,61.4c-0.2,0-0.3,0-0.4,0c-1.1,0-1.5,1.1-1.5,2.9c0,0.3,0,0.8,0,1.1c0.7,0.8,1.4,1.3,2.3,1.3c0.3,0,0.3,0,0.6,0
				c0.1-0.2,0.2-0.5,0.2-0.8C414.9,64.5,414,62.8,413.8,61.4z M416.1,54.5c-0.8,0-2.1,0-2.5,1.7c0.5,0.6,1.1,1.3,1.7,1.3
				c0.3,0,0.6-0.1,0.8-0.6C416,56,416,55.3,416.1,54.5z M418,46.8c0-0.8-0.2-1.4-0.6-1.4c-0.5,0-1,0.9-1,1.8c0,0.1,0,0.2,0,0.3
				c0.2,0.3,0.5,0.6,0.8,0.6c0.3,0,0.7-0.3,0.9-0.6C418,47.3,418,47.1,418,46.8z M418.9,52.1c0-1.2-0.5-1.7-1.1-1.7
				c-0.2,0-0.3,0.1-0.5,0.1c0,0.3,0,0.3,0,0.6c0,1.2,0.5,1.7,1.1,1.7c0.2,0,0.3,0,0.5,0C418.9,52.6,418.9,52.4,418.9,52.1z
				 M418.6,34.8c-0.1,0-0.1,0.1-0.2,0.1c-0.3,0.6-0.4,1.2-0.4,2c0,0.3,0.1,0.5,0.1,0.8c0.3,0.5,0.7,0.9,1.1,1c0.4,0,0.8-0.4,1.1-0.9
				C420.2,35.8,419.7,34.8,418.6,34.8z M421.8,54.7c0-0.2,0-0.4,0-0.6c0-0.8-0.2-1.5-0.7-1.7c-0.1,0.6-0.3,1.1-0.4,1.8
				c0,0.2,0.1,0.3,0.1,0.5C421.2,54.6,421.5,54.7,421.8,54.7z"/>
			<path class="st7" d="M468.2,29.6c0,0.1-0.1,0.4-0.1,0.6c0,1.2,0.7,1.5,0.7,2.7c-0.1,2.9-1.3,2.3-2.1,4c0,0.1,0,0.3,0,0.4
				c0,1.3,0.5,2.6,0.5,3.6c0,0.4-0.1,0.7-0.3,1c-1.7,0.6-4.4-0.5-6.3-0.9c-0.7-0.1-2.3-0.4-2.9,0c-1.3,0.8-1.1,3.7-1.8,5.4
				c-0.7,1.8-0.6-0.1-0.7,2.3c0,0.7-0.5,0.8-0.7,1.4c-0.1,0.1,0.1,1.1,0,1.4c0,0.9-1.4,4-1.7,5.1c-1.5,5.3-2.8,11-4.2,16.5
				c-0.6,2.3-1.1,4.7-1.7,7.1c-0.6,2.2-0.8,5.8-2.1,7.2c-0.3,3.9-2.5,16.6-4.1,19.1c-0.3,4.8-1.1,10-2.9,13.6c0.1,0.8,0,1.4,0,2.1
				c-0.1,5.9-1.7,11.4-2.5,17.2c-0.1,0-0.1,0-0.2,0c-0.5,0-1.1,1.1-1.5,1.1c-0.2,0-0.3-0.2-0.4-0.5c-1,0.2-0.8-2.3-0.8-3.5
				c-0.8-1.8-2.2-1.2-2-4.6c-1.8,1.2-1.9,5.8-4.3,5.8c-0.2-0.6-0.3-1.5-0.3-2.3c0-1.2,0.2-2.2,0.2-3.4c0-0.5-0.1-0.9-0.1-1.2
				c-0.1,0-0.2,0-0.2,0c-1.5,0-0.9,3.4-2.4,3.4c-0.8,0-1.4-2.3-1.4-3.6c0-2.9,1.5-7.9,2.1-10.8c0.6-2.9,1.5-8.8,2.6-11
				c0.6-6.3,2.1-11.9,3.3-17.7c2.5-11.3,5-22.4,7.7-33.4c0.6-2.7,1.3-5.4,2-7.9c0.7-2.5,1.8-4.8,2.1-7.7c-0.4-1-1-1.3-1.7-1.4
				c-2.4-0.3-4.8,1.3-7.1,1.1c-0.1,0-0.1,0-0.2,0c-0.4-1-1-2.1-1-3.5c0.1-4.5,3.5-2.9,4.3-6c-0.6-2.5-3.5-1.4-3.4-4.9
				c0-3.4,5.3-1.9,6.5-3.9c-0.5-3-3.3-2.4-3.2-6.4c0-0.5,0.1-1.1,0.2-1.5c1.8-1.6,4-0.6,5.9-0.3c5.6,0.8,11.1,0,16.6,0.8
				c1.1,0.1,2.1,0.5,3.2,0.8c1.9,0.4,3.7,0,5.5,0.5c0.9,0.3,1.9,0.8,2.7,2.1c0.1,0.8,0.2,1.5,0.2,2.2c0,0.9-0.3,1.7-0.3,2.5
				c0,1.4,1.2,0.9,1.2,2.4C470.8,29.1,468.9,28.3,468.2,29.6z M433.8,110.2c-0.2,0-0.4-0.2-0.3-0.6c-0.2,0-0.4,0-0.6,0
				c0,0.3-0.1,0.8-0.3,0.6c0,0.4,0,0.7,0,1.1c0.2,0,0.4,0.2,0.3,0.6c0.2,0,0.4,0,0.6,0c0-0.3,0.1-0.8,0.3-0.6
				C433.8,110.9,433.8,110.5,433.8,110.2z M444.7,57.2c-0.4,0-0.8-0.1-1.3-0.1c-0.3,0.4-0.5,2.4-0.5,3c0,0.8,0.1,1.7,0.7,1.6
				c0.1,0.2,0.2,0.3,0.2,0.3c0.6,0.1,0.8-2.6,0.8-3.4C444.7,58.1,444.8,57.6,444.7,57.2z"/>
			<path class="st7" d="M492.2,39.8c-0.9,2.6-1.6,5.4-2.5,8c-1.4,4.4-2.9,8.8-4.3,13.4c-1.1,3.5-1.6,7.7-3.5,10.1c0,0.3,0.1,0.7,0,1
				c-0.1,3.1-1.5,7-2.3,9.7c-0.3,1.1-0.7,2-1,3.1c-0.7,2.3-0.8,4.8-1.5,7.1c-0.3,1.1-0.8,2-1.1,3.1c-0.8,2.9-1.4,5.8-2.1,8.7
				c-2.1,9.2-4.4,18.6-6.2,28.2c-0.6,3.2-0.8,8.2-3.2,8.2c-0.2,0-0.5-0.1-0.6-0.1c-0.3-1.5-0.7-1.9-0.4-3.8
				c-0.9-1.2-2.2-0.8-1.7-3.8c-1.9-0.2-1.7,4.4-3.4,4.3c-0.1,0-0.2,0-0.3,0c-0.1-0.6-0.1-1.3-0.1-1.9c0-1.6,0.3-3.2,0.4-4.9
				c0-0.4,0-1,0-1.5c-0.1,0-0.1,0-0.2,0c-1.5,0-1.9,5.4-3.3,5.4c-1.1,0-1.9-1.5-1.8-3.6c0.1-4.2,2.1-12.7,3-17
				c2.1-10.1,4.4-20.9,6.8-30.4c1.1-4.4,2.2-8.8,3.5-13.1c0.6-2.1,0.8-5.1,1.5-6.9c0.2-0.4,0.5-0.6,0.7-1c0.2-0.6,1.4-5.6,1.7-6.6
				c1-3.6,1.8-7.3,2.9-10.8c1-3.5,2.4-6.6,3.5-9.9c1-3,1.9-7.2,3.8-8.6c0.1,0,0.1,0,0.2,0.1c1,0.3,0.9,2,1.7,2.7
				c2,0,1.8-5.2,4.2-4.3c0,1-0.1,1.9-0.1,2.9c0,0.7-0.1,1.8,0.2,2.5c0,0.3,0.1,0.6,0.3,0.7c0.3,0.1,0.8-0.3,1-0.2
				c0.1,0,0.2,0.1,0.2,0.1c1,0.4,0.5,2.1,1.1,2.9c1.7-0.8,3.4-7.1,5.2-6.3c0.7,0.3,1.3,1.6,1.5,2.7
				C495.3,33.8,493.4,36.5,492.2,39.8z M467.9,111.1c-0.3,0-0.6,0-1-0.1c0,0.2,0,0.4,0,0.6c0,0.7,0.1,1.5,0.6,1.6
				c0.1-0.6,0.4-1,0.4-1.7C467.9,111.4,467.9,111.3,467.9,111.1z M474.4,65c-0.3-0.1-0.7-0.1-1-0.2c0,0.2,0,0.4,0,0.6
				c0,0.7,0.1,1.5,0.6,1.7c0.1-0.6,0.4-0.9,0.4-1.6C474.4,65.3,474.4,65.1,474.4,65z M476.7,69.8c0.1-1.7-0.5-2.5-1.5-3
				c-0.3,0.4-0.5,0.8-0.6,1.5c0,0.7,0,1.4,0.1,2.2c-0.3,0.5-0.5,1.1-0.5,1.8c0,0.7,0.4,1.2,0.7,1.6c0.7-0.4,0.3-1.9,0.7-2.6
				c0.3-0.4,0.9,0.2,1-0.4C476.8,70.5,476.7,70,476.7,69.8z"/>
			<path class="st7" d="M522.6,114.9c-0.7,1.4-1.6,2.7-2.3,4.1c-0.3,0.6-0.4,1.1-0.6,1.7c-0.5,1-1.4,1.4-1.9,2.4
				c-0.3,0.6-0.4,1.2-0.6,1.7c-0.7,1.4-1.7,2.9-2.6,3.9c-0.6,0.7-1.4,1-1.9,1.7c-0.3,0.4-0.3,1-0.6,1.3c-0.3,0.2-0.6,0.2-0.9,0.4
				c-0.6,0.5-1,1.7-1.6,2.3c-3.7,3.7-9.4,5.5-13.6,5.4c-3.9,0-7.8-1.3-11.4-3.7c0.1-1.2,0.5-2.5,0.6-3.7c0-0.8-0.3-1.7-0.6-2.1
				c0.1-1.7,1-1.6,1-3.5c0-1-1.7-0.5-2-0.5c-0.2,0-0.2-0.2-0.4-0.2c-0.3-0.8-0.2-2-0.8-2.5c-1.2,0.1-1.6,2-3,1.9c-0.2,0-0.2,0-0.4,0
				c-0.5-0.9-0.8-2.2-0.8-3.4c0.1-2.4,1-5,2-6.6c0.4-6,2.3-11.1,3.7-16.4c0.7-2.7,1.2-5.4,1.9-8c3-11.3,6.2-22,9.6-32.1
				c0.9-2.7,1.8-5,3.7-5.8c0-0.1,0-0.2,0-0.3c0.1-1.9-1.6-1.8-1.5-3.9c0.1-2,1.3-0.5,1.5-4c0-0.7,0.1-1.3,0.4-1.7
				c1.4-0.1,3,0.5,4.3-0.3c0-0.1,0.1-0.5,0.1-0.6c0.1-1.7-1.5-2.1-1.5-3.6c0.1-1.3,1-1.4,1.1-2.4c0-1-0.9-2-0.8-3.3
				c0-0.2,0-0.3,0-0.5c5.2,0.8,10.4,2.7,15.4,5.5c3.6,2,6.8,4.3,10.1,7.7c0.5,0.4,0.9,0.8,1.3,1.3c0.1,0.3,0.2,0.7,0.3,1
				c4.2,5.7,4.3,16,4.1,22C533.2,84.6,528.6,102.4,522.6,114.9z M515.9,57.8c-1-0.5-1.7-0.5-2.4,0.6c-1.5,2.2-5,13-6.2,16.9
				c-2.1,6.7-5,13.3-6.7,20.7c-0.2,0.7-0.2,1.7-0.4,2.4c-1.2,5-3.3,9.3-4.3,14.7c0.6,2.2,1.8,3.4,3.2,3.5
				c10.8,0.4,20.3-35.8,20.9-48.2C520.2,64.1,519,59.2,515.9,57.8z M505.7,57c0-0.8-0.2-1.5-0.7-1.7c-0.1,0-0.1,0-0.2,0.1
				c-0.2,0.3-0.4,0.7-0.4,1c0,0.5,0.1,1.1,0.5,1.2c0.2,0.1,0.5,0.1,0.7,0C505.7,57.5,505.7,57.2,505.7,57z M505.4,121.8
				c-0.5,0.2-0.7,1.2-0.7,1.8c0,0.8,0.2,1.5,0.7,1.6c0.2,0,0.2,0,0.4,0c0.1-0.5,0.2-1.1,0.2-1.8
				C506.1,122.8,505.8,122.3,505.4,121.8z M510.7,46.4c-0.6-0.3-1.1,0.3-1.2,1.1c0.5,0.5,0.8,1.3,1.4,1.5c0,0,0.1,0,0.1,0
				c0.2-0.3,0.4-0.7,0.4-1.2C511.4,47.2,511.1,46.6,510.7,46.4z M511.4,122.4c-0.1,0-0.3,0-0.4,0c-0.4,0-0.7,0.3-0.8,0.9
				c0.3,0.2,0.6,0.6,0.9,0.6c0.1,0,0.2,0,0.2,0C511.4,123.4,511.4,122.9,511.4,122.4z M515,109.7c0-0.7-0.1-1.5-0.6-1.6
				c-0.1,0-0.1,0-0.2,0c-0.2,0.2-0.4,0.7-0.4,1c0,0.7,0.3,1.4,0.7,1.5c0.2,0,0.2-0.1,0.4-0.1C515,110.2,515,109.9,515,109.7z
				 M518.2,102c-0.1,0-0.1,0-0.2,0c-0.3,0.3-0.4,0.9-0.4,1.4c0,0.7,0.2,1.4,0.6,1.5c0.1,0,0.1,0,0.2,0c0.3-0.3,0.4-0.9,0.4-1.4
				C518.9,102.8,518.7,102.2,518.2,102z"/>
			<path class="st7" d="M564.5,77.8c0,0.4,0.1,0.8,0.2,1.2c-0.7,0.1-2-1.3-2.8-1.2c0.2,2.1,2.3,3.2,3.1,5c-0.1,1.1-1.1,0.4-1.6,0.9
				c0.1,0.6,0.3,1.2,0.3,1.8c0,0.3-0.1,0.6-0.3,0.7c-0.1-0.1-0.3-0.2-0.4-0.3c-1.1-0.8-2.2-2.1-3.4-2.9c-3.9-2.9-5.6,1-5.7,5.4
				c-0.1,4.1,1.2,8.8,2.2,12.9c1.3,5.3,2.4,10.5,2.4,15.3c0,2.7-0.5,5.3-1.4,7.7c-0.4,1.1-1,1.9-1.5,3c-0.1,0.3-0.2,0.8-0.3,0.9
				c-0.2,0.2-0.4,0.1-0.6,0.3c-0.2,0.3-0.3,1.2-0.7,1.6c-0.2,0.3-1.5,1.6-1.8,1.8c-0.2,0.2-0.8,0.1-1,0.3c-0.2,0.2-0.1,0.7-0.3,1
				c-0.2,0.3-1.6,1.8-1.9,2c-0.3,0.2-0.6,0.2-0.9,0.3c-1,0.7-2,1.2-3.1,2c-0.9,0.6-2,0.9-3,1.4c-0.7,0.4-1.4,0.8-2.1,1.1
				c-2,0.7-4.3,1-6.3,0.9c-2.6,0-12.8-1.8-12.5-7.4c0.1-1.3,1.9-0.4,2.4-1.1c0.2-1.7,0.3-3.8,1.4-4.7c0-0.1,0-0.2,0-0.2
				c0.1-1.1-0.5-2.1-0.5-3c0-0.3,0.2-0.8,0.4-1c0.1,0,0.1,0,0.2,0c1.3,0.2,2.5,1.5,3.8,1.7c0.1,0,0.3,0,0.4,0c0-0.2,0.1-0.4,0.1-0.7
				c0.1-1.4-0.9-2.1-0.8-3.2c0.1-1.5,1.8-1.6,2.2-3c1.5,1.5,3.2,2.4,5,2.7c3.8,0.6,7.3-1.9,8.7-6.2c0.6-1.8,0.1-4.3,1.4-5.6
				c0-1.1-0.7-1.6-1.1-2.5c0-3.6-1.9-7.3-2.8-11c-1.3-4.9-1.8-10.7-1.6-15.6c0.2-4.4,1.3-10.4,3.3-12.7c0.2-0.3,0.6-0.3,0.8-0.6
				c1-1.1,1.9-2,3.1-2.4c3.7-1.1,7.9,0.2,12.1,4.1c1.9,1.8,3.8,4,5.4,6.7c0.1,0.1,0,0.2,0,0.3C565.3,76.5,564.5,76.7,564.5,77.8z
				 M536.1,129.4c-0.3,0-0.6-0.1-0.9-0.1c-0.2,0.2-0.3,0.6-0.4,0.9c0,0.6,0.3,1.2,0.8,1.2c0.2,0,0.2-0.1,0.3-0.1
				C536,130.7,536,130,536.1,129.4z M546.5,116.5c-0.1,0-0.2,0.1-0.2,0c-0.2,0.3-0.3,0.7-0.4,1.2c0,0.2,0,0.3,0,0.5
				c0.2,0,0.3,0.2,0.5,0.2c0.6,0.1,0.9-0.3,1-0.9C547,117.3,547,116.6,546.5,116.5z M548.3,116.6c-0.2,0.3-0.6,0.6-0.6,1
				c0,0.3,0.1,0.5,0.3,0.7c0.1,0,0.1,0,0.2,0c0.4,0.1,0.7-0.3,0.7-0.8C548.9,117.1,548.7,116.7,548.3,116.6z M548.8,121.6
				c0-0.6,0-1.4-0.7-1.5c-0.1,0-0.1,0-0.2,0c-0.2,0.2-0.3,0.7-0.3,1.1c0,0.6,0.2,1.2,0.7,1.3c0.2,0,0.2-0.1,0.4,0
				C548.8,122.2,548.8,121.9,548.8,121.6z M552.4,75.6c-0.1-0.1-0.2-0.2-0.4-0.3c-0.7-0.5-1.5-0.2-1.5,0.8c0,0.3,0,0.6,0.1,0.9
				c0.9,0.3,1.7,0.4,1.7-0.9C552.3,75.9,552.3,75.8,552.4,75.6z M552.2,70.1c-0.3-0.2-0.5-0.4-0.8-0.6c0,0.6,0,1.2-0.1,1.8
				c0,0,0.1,0.1,0.1,0.1c0.6,0.4,0.7-0.2,0.7-0.7C552.2,70.5,552.2,70.3,552.2,70.1z"/>
		</g>
	</g>
</g>
</svg>
