<?xml version="1.0" encoding="utf-8"?>
<!-- Generator: Adobe Illustrator 27.4.0, SVG Export Plug-In . SVG Version: 6.00 Build 0)  -->
<svg version="1.1" xmlns="http://www.w3.org/2000/svg" xmlns:xlink="http://www.w3.org/1999/xlink" x="0px" y="0px"
	 viewBox="0 0 612 792" style="enable-background:new 0 0 612 792;" xml:space="preserve">
<style type="text/css">
	.st0{fill:#6A5E27;}
	.st1{opacity:0.39;fill:#101116;}
	.st2{fill:#CECBC3;}
	.st3{fill:url(#SVGID_1_);}
	.st4{fill:#101116;}
	.st5{fill:#4D5C5D;}
	.st6{fill:url(#SVGID_00000065051381919653240330000005946739275388277392_);}
	.st7{fill:none;stroke:#FFFFFF;stroke-width:1.0533;stroke-miterlimit:10;}
	.st8{fill:#99A797;}
	.st9{fill:#7A8879;}
	.st10{fill:none;}
	.st11{fill:url(#SVGID_00000136401513190006790280000003376960990128465306_);}
	
		.st12{fill:none;stroke:url(#SVGID_00000079481195402928904620000010200613213234837154_);stroke-width:0.8149;stroke-miterlimit:10;}
	
		.st13{fill:none;stroke:url(#SVGID_00000070086220915699609580000003123123982965308051_);stroke-width:0.6471;stroke-miterlimit:10;}
	
		.st14{fill:none;stroke:url(#SVGID_00000140726475419341165990000006343704829705338015_);stroke-width:0.4821;stroke-miterlimit:10;}
	.st15{fill:url(#SVGID_00000116943512685937954930000006516396293764555948_);}
	.st16{fill:#3F4643;}
	.st17{fill:url(#SVGID_00000181766870600967114100000001600007007409133715_);}
	.st18{fill:url(#SVGID_00000023967428784076679510000015758803053516134285_);}
	.st19{fill:url(#SVGID_00000075131615639889939730000006562575563366108070_);}
	.st20{fill:none;stroke:#000000;stroke-width:1.0364;stroke-linejoin:bevel;stroke-miterlimit:10;}
	.st21{fill:none;stroke:#000000;stroke-width:1.0784;stroke-linejoin:bevel;stroke-miterlimit:10;}
	.st22{fill:url(#SVGID_00000112603782583098122010000003102674889446340799_);}
	.st23{fill:#31524C;}
	.st24{fill:url(#SVGID_00000084491787353621665950000014825655320090801599_);}
	.st25{fill:url(#SVGID_00000093890304448446963790000011995578448065195416_);}
	.st26{fill:url(#SVGID_00000031887408755709963140000014780055417660988830_);}
	.st27{fill:none;stroke:#000000;stroke-width:1.2072;stroke-miterlimit:10;}
	.st28{fill:url(#SVGID_00000142137018689364613070000011861519032274273202_);}
	.st29{fill:#704758;}
	.st30{fill:#5B3C4B;}
	.st31{fill:#243755;}
	.st32{fill:#A78E31;}
	.st33{fill:#81885B;}
	.st34{fill:url(#SVGID_00000116918411532720853090000012463398786966244236_);}
	.st35{opacity:0.23;}
	.st36{fill:url(#SVGID_00000039093389761406949320000015244838624892471194_);}
	.st37{fill:#28423D;}
	.st38{fill:url(#SVGID_00000031170153303965212060000014024020416607295390_);}
	.st39{fill:#F7F0E2;}
	.st40{fill:url(#SVGID_00000001636026013575386360000004636357896139246514_);}
	.st41{fill:#31524C;stroke:#3F4643;stroke-miterlimit:10;}
	.st42{fill:url(#SVGID_00000141444781052934125090000017958309212954369460_);}
	.st43{fill:url(#SVGID_00000026123984079931779450000000113345411848594104_);}
	.st44{fill:url(#SVGID_00000083790342407634125160000011229028958207451283_);}
	.st45{opacity:0.48;fill:#F7F0E2;}
	.st46{opacity:0.51;fill:#F7F0E2;}
	.st47{fill:#727752;}
	.st48{opacity:0.5;fill:#F7F0E2;}
	.st49{fill:#967D2E;}
	.st50{fill:#18263A;}
	.st51{fill:none;stroke:#788277;stroke-linejoin:round;stroke-miterlimit:10;}
	.st52{fill:#58595B;}
	.st53{fill:#65665F;}
	.st54{opacity:0.39;fill:#3F4643;}
	.st55{fill:#677066;}
	.st56{fill:#38577C;}
	.st57{fill:#485454;}
	.st58{opacity:0.36;fill:#F7F0E2;}
	.st59{opacity:0.42;fill:#F7F0E2;}
	.st60{fill:url(#SVGID_00000058575000723506333570000013473906960506251433_);}
	.st61{fill:#60665F;}
	.st62{opacity:0.31;}
	.st63{fill:none;stroke:url(#SVGID_00000170269488233860526900000012985074625122479257_);stroke-width:0.75;stroke-miterlimit:10;}
</style>
<g id="Layer_1">
	<path class="st0" d="M346.3,179.1c1.1,0.2,2.9,0.5,4.9,0.1c2.5-0.5,3-1.4,5.6-2c2.7-0.5,3,0.3,5.7-0.2c2.6-0.5,2.5-1.3,5.5-2.2
		c2.9-0.9,3.7-0.3,6.8-1c1.4-0.3,3.4-0.9,5.8-2.3c-0.9,1.5-2.2,3.3-4.1,5.1c-1.1,1-2.1,1.9-3.1,2.6c1.3,0.3,3.3,0.6,5.7,0.3
		c2.5-0.3,4.4-1.1,5.6-1.8c0,0.5-0.4,3.6-3.2,5.6c-1.3,0.9-2.6,1.2-3.6,1.3c-1,0.1-1.9,0.2-2.8,0.6c-0.8,0.3-1.8,0.6-2.9,0.6
		c-2,0.1-2.4-0.6-4.5-0.7c-2.8-0.1-3.3,1.1-6.6,1.3c-2.4,0.2-2.9-0.4-4.8-0.4c-1.9,0-5.2-2.1-8.6,0.6L346.3,179.1z"/>
	<ellipse class="st1" cx="306.8" cy="657.1" rx="263.6" ry="18"/>
	<ellipse class="st1" cx="296.6" cy="653" rx="98.8" ry="18"/>
	<circle class="st2" cx="316.6" cy="430" r="214"/>
	<linearGradient id="SVGID_1_" gradientUnits="userSpaceOnUse" x1="233.5849" y1="618.292" x2="301.49" y2="618.292">
		<stop  offset="2.889857e-02" style="stop-color:#677066"/>
		<stop  offset="0.2442" style="stop-color:#687267"/>
		<stop  offset="0.533" style="stop-color:#788277"/>
		<stop  offset="0.8595" style="stop-color:#7A8879"/>
	</linearGradient>
	<path class="st3" d="M300,636.1c-6.4,1.4-42.7,8.7-65.5,2.1c0,0-5-23.4,8.6-25.1c0,0,8-1.3,22.2,1c0,0,9.5,0.7,6.7-18.1l17.5-0.4
		c0,0,10.4,12.5,12.1,28.3"/>
	<path class="st4" d="M184.5,463.8c-0.1,0.4-0.2,0.7-0.2,1c-0.1,0.5-0.2,0.9-0.4,1.4c0,0,0,0,0,0c-0.1,0.5-0.2,0.9-0.4,1.3
		c0,0,0,0,0,0c-0.1,0.3-0.2,0.6-0.3,0.9c-0.1,0.3-0.2,0.6-0.3,0.9c-2.7,8.2-6.5,13.5-9.2,12.3c-3.4-1.4-4-11.8-1.4-23
		c2.6-11.3,7.4-19.3,10.8-17.8C186.4,442.2,187.1,452.6,184.5,463.8z"/>
	<ellipse class="st5" cx="280.8" cy="595.9" rx="8.8" ry="1.8"/>
	
		<linearGradient id="SVGID_00000063592732653575925690000008806496369991019436_" gradientUnits="userSpaceOnUse" x1="281.1987" y1="596.3959" x2="281.1987" y2="574.7079">
		<stop  offset="0" style="stop-color:#7A8879"/>
		<stop  offset="0.2662" style="stop-color:#7A8879"/>
		<stop  offset="0.7265" style="stop-color:#788277"/>
	</linearGradient>
	<path style="fill:url(#SVGID_00000063592732653575925690000008806496369991019436_);" d="M286.2,594.5c0.1,0.6-0.3,1.2-0.9,1.3
		c-1.7,0.4-3.6,0.5-5.2,0.5c-0.1,0-0.1,0-0.2,0c-0.6,0-1.1,0-1.7,0c-0.4,0-0.7-0.3-0.7-0.7l-0.1-1.7l-1.2-19.2h7.5l2.4,19.4
		L286.2,594.5z"/>
	<path class="st7" d="M289,229.8"/>
	<polyline class="st8" points="388.5,317.9 397.8,254.6 275.4,245.7 266.5,305.1 276.2,305.9 278.7,326.7 377.8,331.3 386.3,315.4 
		386.4,315.5 	"/>
	<polygon class="st9" points="409.3,269.1 402.3,317.5 400.2,331.7 388.5,317.9 388.9,315.8 397.8,254.6 	"/>
	<polygon class="st10" points="379.8,377.4 257.4,367.4 257.3,367.2 	"/>
	
		<linearGradient id="SVGID_00000057120598466813287510000001808347357637716893_" gradientUnits="userSpaceOnUse" x1="266.5325" y1="422.206" x2="371.1728" y2="422.206">
		<stop  offset="0" style="stop-color:#B5BDA6"/>
		<stop  offset="0.6193" style="stop-color:#7A8879"/>
		<stop  offset="0.9837" style="stop-color:#4D5C5D"/>
	</linearGradient>
	<path style="fill:url(#SVGID_00000057120598466813287510000001808347357637716893_);" d="M371.1,430.6c0,0.3-0.1,0.6-0.2,0.9
		c-2.9,8.7-26.8,12.2-54.8,7.7c-27.7-4.5-49.3-15.1-49.6-24.3c0-0.4,0-0.7,0.1-1.1c1.5-9.4,26.1-13.2,55-8.6
		C350.4,409.9,372.6,421.2,371.1,430.6z"/>
	
		<linearGradient id="SVGID_00000093134886302901764810000018426798866624910259_" gradientUnits="userSpaceOnUse" x1="277.1956" y1="421.23" x2="363.2782" y2="421.23">
		<stop  offset="0" style="stop-color:#B5BDA6"/>
		<stop  offset="0.6193" style="stop-color:#7A8879"/>
		<stop  offset="0.9837" style="stop-color:#4D5C5D"/>
	</linearGradient>
	
		<path style="fill:none;stroke:url(#SVGID_00000093134886302901764810000018426798866624910259_);stroke-width:0.8149;stroke-miterlimit:10;" d="
		M362.8,428.1c0,0.2-0.1,0.5-0.2,0.7c-2.3,7.1-21.9,9.9-44.6,6.2c-22.6-3.6-40.2-12.3-40.4-19.8c0-0.3,0-0.6,0-0.9
		c1.2-7.6,21.3-10.8,44.8-7C346,411.2,364,420.4,362.8,428.1z"/>
	
		<linearGradient id="SVGID_00000119820090096172012220000014424691357391741858_" gradientUnits="userSpaceOnUse" x1="284.6758" y1="419.7738" x2="353.0342" y2="419.7738">
		<stop  offset="0" style="stop-color:#B5BDA6"/>
		<stop  offset="0.6193" style="stop-color:#7A8879"/>
		<stop  offset="0.9837" style="stop-color:#4D5C5D"/>
	</linearGradient>
	
		<path style="fill:none;stroke:url(#SVGID_00000119820090096172012220000014424691357391741858_);stroke-width:0.6471;stroke-miterlimit:10;" d="
		M352.7,425.2c0,0.2-0.1,0.4-0.1,0.6c-1.9,5.6-17.4,7.9-35.4,5c-18-2.9-31.9-9.8-32.1-15.7c0-0.2,0-0.5,0-0.7
		c1-6.1,16.9-8.5,35.6-5.5C339.3,411.8,353.6,419.1,352.7,425.2z"/>
	
		<linearGradient id="SVGID_00000129884305614061125660000004313713544043054521_" gradientUnits="userSpaceOnUse" x1="292.2818" y1="419.7738" x2="343.215" y2="419.7738">
		<stop  offset="0" style="stop-color:#B5BDA6"/>
		<stop  offset="0.6193" style="stop-color:#7A8879"/>
		<stop  offset="0.9837" style="stop-color:#4D5C5D"/>
	</linearGradient>
	
		<path style="fill:none;stroke:url(#SVGID_00000129884305614061125660000004313713544043054521_);stroke-width:0.4821;stroke-miterlimit:10;" d="
		M342.9,423.8c0,0.1-0.1,0.3-0.1,0.4c-1.4,4.2-12.9,5.9-26.4,3.7c-13.4-2.2-23.8-7.3-23.9-11.7c0-0.2,0-0.4,0-0.5
		c0.7-4.5,12.6-6.4,26.5-4.1C333,413.8,343.7,419.3,342.9,423.8z"/>
	
		<linearGradient id="SVGID_00000020388966967087501900000005774845888452822926_" gradientUnits="userSpaceOnUse" x1="247.9772" y1="482.5057" x2="370.88" y2="482.5057">
		<stop  offset="0" style="stop-color:#B5BDA6"/>
		<stop  offset="0.4905" style="stop-color:#7A8879"/>
	</linearGradient>
	<path style="fill:url(#SVGID_00000020388966967087501900000005774845888452822926_);" d="M370.9,431.3l-18.3,107.5v0
		c0,0.3,0,0.6-0.1,1c-1.5,9.4-26.1,13.2-55,8.6c-28.8-4.6-51-16-49.5-25.4c0-0.3,0.1-0.7,0.3-1v0l18.2-107.3
		c0,9.8,21.8,19.8,49.6,24.3C344,443.5,368,440,370.9,431.3z"/>
	<path class="st16" d="M268.3,554.7c0,0,5.4-1.1,10.8-0.1c0,0,7.6,2.3,11.2,7.8L268.3,554.7z"/>
	
		<linearGradient id="SVGID_00000021090790929915501060000000873392825428127899_" gradientUnits="userSpaceOnUse" x1="280.5614" y1="561.7722" x2="280.5614" y2="542.7707">
		<stop  offset="0" style="stop-color:#7A8879"/>
		<stop  offset="0.1794" style="stop-color:#7A8879"/>
		<stop  offset="0.4526" style="stop-color:#7A8879"/>
		<stop  offset="0.767" style="stop-color:#4D5C5D"/>
	</linearGradient>
	<polygon style="fill:url(#SVGID_00000021090790929915501060000000873392825428127899_);" points="274.4,542.8 272.8,556.8 
		286.3,561.8 288.3,546.6 	"/>
	<path class="st16" d="M327,565.9c0,0-4.5-2.4-10-2.5c0,0-7.4,0.6-12.1,5.2L327,565.9z"/>
	
		<linearGradient id="SVGID_00000038395726575933075780000001483586016029043371_" gradientUnits="userSpaceOnUse" x1="318.855" y1="570.7881" x2="318.855" y2="550.1547">
		<stop  offset="0" style="stop-color:#7A8879"/>
		<stop  offset="0.2758" style="stop-color:#7A8879"/>
		<stop  offset="0.5755" style="stop-color:#7A8879"/>
		<stop  offset="1" style="stop-color:#4D5C5D"/>
	</linearGradient>
	<polygon style="fill:url(#SVGID_00000038395726575933075780000001483586016029043371_);" points="314.7,550.2 311.8,568 
		321.7,570.8 326,550.2 	"/>
	
		<linearGradient id="SVGID_00000167382760580558754600000017831766054211697281_" gradientUnits="userSpaceOnUse" x1="266.3954" y1="555.616" x2="288.1115" y2="577.3321">
		<stop  offset="0" style="stop-color:#99A797"/>
		<stop  offset="0.3148" style="stop-color:#31524C"/>
	</linearGradient>
	<path style="fill:url(#SVGID_00000167382760580558754600000017831766054211697281_);" d="M269.7,575.6c-0.3,0.1-1,0.1-2-1.1
		c-0.7-0.8-1.1-1.9-1.1-3v-15.4c0-1,1-1.7,2-1.4l22,7.7c0.9,0.3,1.5,1.2,1.5,2.2l-0.6,8.5c-0.1,1.3-1.2,2.3-2.5,2.3"/>
	<path class="st20" d="M272,596"/>
	<path class="st20" d="M277.6,597.2"/>
	<path class="st20" d="M277.4,594.7"/>
	<path class="st21" d="M310,594.8"/>
	
		<ellipse transform="matrix(0.8469 -0.5318 0.5318 0.8469 -192.3582 273.1423)" class="st4" cx="378.1" cy="470.6" rx="24.7" ry="7.6"/>
	
		<linearGradient id="SVGID_00000063603124486297059750000004121387517372815542_" gradientUnits="userSpaceOnUse" x1="381.5965" y1="484.1613" x2="390.9002" y2="478.7899">
		<stop  offset="0.1533" style="stop-color:#7A8879"/>
		<stop  offset="0.3854" style="stop-color:#C7C4BB"/>
		<stop  offset="0.8582" style="stop-color:#7A8879"/>
	</linearGradient>
	<path style="fill:url(#SVGID_00000063603124486297059750000004121387517372815542_);" d="M398.4,491.8l-10.7,0.5
		c-0.5-0.1-0.9,0-1.4,0.1l-12.2-21.2l9.3-5.4L398.4,491.8z"/>
	
		<ellipse transform="matrix(0.1785 -0.9839 0.9839 0.1785 -38.5344 543.2949)" class="st4" cx="306.1" cy="294.7" rx="16.8" ry="9.2"/>
	
		<ellipse transform="matrix(0.1785 -0.9839 0.9839 0.1785 1.0633 600.0527)" class="st4" cx="359.9" cy="299.4" rx="16.8" ry="9.2"/>
	<path class="st23" d="M400.5,493.4"/>
	<path class="st9" d="M390.1,512.7c0,0-5.6,0.5-6.9-0.3l-6.1,26.6c0,0-12.5-5.6-18.8,25.3l6.4,2.8c0,0,0-0.1,0-0.2
		c0-0.1,0-0.4,0.1-0.6c0.6-1.7,1.1-4.9,2.8-8.6c0,0,1.2-2.8,1.2-2.8c9.9-16.2,14.7-13.3,14.7-13.3l5.7-25L390.1,512.7"/>
	<path class="st9" d="M394.5,575.8l-6.4-2.5c3.4-13.1,0.3-19.2-2.5-22.1c0.1,0,0.2,0,0.3,0c1.5,0,4,0.2,6.2,1.8
		c4.2,3.1,4.3,9.1,4.3,12.7C396.5,567.9,396.2,571.5,394.5,575.8z"/>
	
		<linearGradient id="SVGID_00000080902009834956991980000000393144083546296223_" gradientUnits="userSpaceOnUse" x1="383.8776" y1="512.4744" x2="383.8776" y2="577.642">
		<stop  offset="0" style="stop-color:#7A8879"/>
		<stop  offset="0.443" style="stop-color:#99A797"/>
	</linearGradient>
	<path style="fill:url(#SVGID_00000080902009834956991980000000393144083546296223_);" d="M401.3,577.6l-6.9-1.8
		c0.1-0.3,0.1-0.5,0.2-0.8c6.1-25-8.8-23.8-8.8-23.8c-0.1,0-0.2,0-0.3,0c-13.8-2-14.4,18.5-14.4,18.5l-6.4-2.5
		c0-0.1,0.1-0.6,0.1-0.9c0.8-3.6,1.6-6.7,2.5-9.3c0,0,0-0.1,0-0.1c6.8-19.5,16.1-15.2,16.1-15.2l5.7-25.8c0.2-0.6,0.4-2.1,0.6-2.8
		c0.4-1.2,8.6,0,8.6,0L392,544C408.8,553.4,401.3,577.6,401.3,577.6z"/>
	
		<linearGradient id="SVGID_00000115487926775939593360000005828337269442129326_" gradientUnits="userSpaceOnUse" x1="244.7673" y1="456.4685" x2="236.2115" y2="446.2721">
		<stop  offset="0.3102" style="stop-color:#7A8879"/>
		<stop  offset="0.6926" style="stop-color:#C7C4BB"/>
		<stop  offset="0.9027" style="stop-color:#7A8879"/>
	</linearGradient>
	<path style="fill:url(#SVGID_00000115487926775939593360000005828337269442129326_);" d="M230.3,468.6c1.9-7.3,1.7-13.3,0-17.2
		l20.3-17.2l3.6,14.4L230.3,468.6z"/>
	<path class="st5" d="M299.4,650.7c-21,7.3-63.3,0.7-70-0.4c-0.5-0.1-0.9-0.5-0.9-1v-9.9c0-0.6,0.5-1.1,1.1-1.1h4.9
		c0,0,45.5,2.6,65.5-2.1"/>
	
		<linearGradient id="SVGID_00000001640668872819205440000000064901301862560397_" gradientUnits="userSpaceOnUse" x1="299.37" y1="623.3845" x2="351.8043" y2="623.3845">
		<stop  offset="2.889857e-02" style="stop-color:#788277"/>
		<stop  offset="0.2646" style="stop-color:#7A8879"/>
		<stop  offset="0.8001" style="stop-color:#99A797"/>
	</linearGradient>
	<path style="fill:url(#SVGID_00000001640668872819205440000000064901301862560397_);" d="M310.1,597.2l0,0.2h10.4l0-0.3
		c2.2-0.2,3.6-0.8,3.6-1.1l1.9,20.5c12.9-3,22.8,10.9,22.8,10.9c3.1,5.7,3.5,10,2.7,13.2l-1.4,3.1l0,0c-3.5,5.1-10.8,6.2-10.8,6.2
		c-21.8,3.9-34.1-4-38.2-7.4c-1.1-0.9-1.6-2.8-1.6-2.8l0.6-3.5l1.5-12.2v0L305,596"/>
	<path class="st5" d="M349.5,644.1c-2.9,4.2-10.4,5.6-10.4,5.6c-21.8,3.9-34.1-4-38.2-7.4c-1.1-0.9-1.6-2.8-1.6-2.8v13.7
		c0,0.5,0.3,0.9,0.7,1.1c3.7,1.9,22,10.6,39.2,5.6c0,0,12.7-2.2,17.1-8.2c0.3-0.4,0.3-0.8,0.1-1.3l-4.7-11.5l0,0
		c-0.2,1.1-0.6,2-1.1,3"/>
	<path class="st27" d="M140.3,428.9l-1.9,2.1c-0.2-0.2,0.2,0.2,0,0L140.3,428.9L140.3,428.9z"/>
	<path class="st9" d="M158.6,432.8c-0.4,0.4-0.8,0.8-1.2,1.1c2.4-7.3-7.6-15.9-7.6-15.9l-3.7,3.9l-4.4-3.5l4-4.2l4.1,3.8l5.4-4.6
		C155.2,413.3,166.2,425.1,158.6,432.8z"/>
	<path class="st9" d="M186.1,469.6l-2.5,5.1l-27.1-26.4c-10.2,9.9-29.5-11.6-29.5-11.6l8.7-12.2l0,0l-5.3,7.6
		c0,0,19.2,21.6,29.5,11.6l20.3,21.4l3,3.6L186.1,469.6z"/>
	
		<linearGradient id="SVGID_00000070809871368312635210000016452670925666683264_" gradientUnits="userSpaceOnUse" x1="130.4704" y1="435.8404" x2="188.6443" y2="435.8404">
		<stop  offset="0.5903" style="stop-color:#99A797"/>
		<stop  offset="0.827" style="stop-color:#7A8879"/>
	</linearGradient>
	<path style="fill:url(#SVGID_00000070809871368312635210000016452670925666683264_);" d="M188.6,461.4l-1.3,2.7
		c-1.2,1.6-1.9,2.9-3.6,3.9l-1.3-0.5l-22.5-24c-10.2,9.9-29.5-11.6-29.5-11.6l5.3-7.6l3.3-4.8l5.1,5l-3.9,4.2l-2,2
		c0.2,0.2,0.4,0.4,0.6,0.5c4.5,4.5,11.5,8.5,18.6,2.5c0.4-0.3,0.8-0.8,1.1-1.2c7.7-7.7-3.4-19.5-3.4-19.5l-5.4,4.6l-3.5-3.2
		l-0.6-0.5l10.2-10.4c19.8,19.4,10,33.5,10,33.5L188.6,461.4z"/>
	<g>
		<path d="M141.6,418.3c-2.2-16.7-3.4-33.8-4.7-50.6c-0.7-8.4-2.5-16.9-2.1-25.4c0.1-8.5,2-16.9,3-25.3c1.4-11.1,0.5-22.5-2-33.5
			l0.1,0c3.3,10.8,4.5,22.4,3.2,33.7c-0.6,5.7-1.9,11.2-2.5,16.8c-1.2,8.4-1.2,16.9-0.1,25.2C138.4,378.3,141.1,399.3,141.6,418.3
			L141.6,418.3z"/>
	</g>
	<g>
		<path d="M167.6,249.2c1.7,14.6,1,29.5-2.2,43.8c-1.5,7.2-3.5,14.3-5.4,21.3c-3.3,12.5-8.4,30.1-11.4,42.5
			c-5.2,21.4-7.1,43.4-6.6,65.4c0,0-0.6-0.1-0.6-0.1c4.6-14.7,9.6-29.2,15.2-43.5c5.6-14.2,12.3-28.1,15.2-43.2
			c1.8-7.5,1.6-15.3,3.3-22.8c3.2-15.1,11.2-28.7,13.2-44c1.2-7.6,1.3-15.4,0.9-23c0.9,7.6,0.7,15.4-0.3,23.1
			c-1.8,15.3-9.7,29.1-12.7,44.2c-1.7,7.5-1.5,15.3-3.3,22.8c-2.9,15.2-9.7,29.2-15.4,43.4c-5.7,14.2-11,28.7-15.7,43.3
			c-0.1,0.3-0.6,0.3-0.6-0.1c-0.3-22,1.8-44.1,6.5-65.6c3.3-14.3,7.3-28.4,11.1-42.6c1.9-7.1,3.9-14.1,5.5-21.3
			C168,278.6,168.5,263.3,167.6,249.2L167.6,249.2z"/>
	</g>
	<g>
		<path d="M141.8,422.2c4.3,9.9,6.6,21.2,4.2,31.9c-1.2,5.2-1.7,10.6-0.3,15.8c1.9,5,3.3,10.5,2.7,16c-0.3,3.6-1.2,7.1-0.7,10.7
			c0.2,1.8,0.6,3.5,1.1,5.2c0.5,1.8,1.6,3.2,2.2,5c1.1,3.5,1,7.3,0.2,10.9c-0.9,3.5-1.5,7-0.9,10.5c0.2,1.8,1,3.3,1.8,4.9
			c2.5,5,2.7,10.7,2.3,16.2c-0.3,7.2-0.6,14.4-0.6,21.6c-0.6,7.3-2.9,14.3-6.3,20.7l-0.1-0.1c3-6.5,5-13.6,5.4-20.7
			c0-3.6-0.1-7.2,0-10.8c-0.1-7.1,1.3-14.5-0.1-21.4c-0.5-3.7-3.1-6.6-3.6-10.2c-0.6-3.7,0.1-7.4,1.1-10.9c0.9-3.4,1.1-7.1,0.1-10.5
			c-1.5-3.4-2.8-6.5-3.1-10.3c-0.5-3.6,0.4-7.3,0.7-10.8c0.2-3.6-0.2-7.2-1.3-10.6c-1.2-3.4-2.8-6.8-2.8-10.5
			c-0.2-3.6,0.2-7.3,1.1-10.9c0.8-3.5,1.1-7,1-10.6C145.9,436.1,143.9,428.7,141.8,422.2L141.8,422.2z"/>
	</g>
	<path class="st29" d="M130.3,205.6c7.1,21.2,19.6,46.1,35,43.4c17.1-3,27.1-21.3,31.3-46.2c4.1-24.4-16.7-44.2-35-43.4
		S122.4,182.1,130.3,205.6z"/>
	<path class="st30" d="M197.4,202.8c-4.1,24.9-14.1,43.2-31.2,46.2c-9,1.6-17-6.3-23.5-17.3c4.8,5,10.1,7.9,15.9,6.9
		c17.1-3,27.1-21.3,31.3-46.2c1.4-8.4-0.1-16.2-3.5-22.8C194.4,177.5,199.6,189.4,197.4,202.8z"/>
	<path class="st31" d="M174,186.6c-3.3,28.2-0.6,56.6,15.1,58.9c16.1,2.3,34.7-18.5,47.2-38.3c15-24,2.1-53.2-15.1-58.9
		C204,142.6,177.3,158.6,174,186.6z"/>
	<path class="st32" d="M158.8,250.2c0,18.4-11.9,39.9-31.8,37.6c-17.4-2-34.9-19.2-34.9-37.6s14.9-33.3,33.3-33.3
		S158.8,231.8,158.8,250.2z"/>
	<path class="st33" d="M130.5,635.2c0,6.7,3.3,6.4,5,17.1c1,6.9-0.1,8.9,2,13.5c0.5,1.2,4,9.1,9.2,9.2c5.4,0.2,11-8,11.3-15.2
		c0.3-6.1-3.4-7.5-3-14.5c0.4-5.5,2.6-5.8,2.9-11.5c0.3-5.5-1.7-6-2.6-13.3c-0.9-7.2,1-7.7,0-15.9c-1.1-9.1-3.8-11.4-5.3-12.3
		c-0.6-0.4-1.8-1.1-3.3-0.8c-1.3,0.2-3.8,1.2-6.6,9.2c-2.3,6.7-1.7,9.4-2.9,15.3C134.8,627.8,130.5,627.6,130.5,635.2z"/>
	<polygon class="st33" points="151.3,588.9 146,586.9 146.8,592.6 	"/>
	<polygon class="st32" points="136.6,286 140.4,290.3 134.7,291.4 	"/>
	<polygon class="st29" points="167.8,247.6 171.6,251.9 165.9,253.1 	"/>
	<polygon class="st31" points="189.7,244.9 192.6,249.8 186.8,249.8 	"/>
	<polygon class="st4" points="275.4,245.7 262.4,267.2 272,268.3 	"/>
	<polygon class="st23" points="397.8,254.6 409.4,296.3 420.5,283.5 409.4,269.1 	"/>
	<polygon class="st4" points="420.5,283.5 417.4,301.4 412.7,292.4 	"/>
	
		<linearGradient id="SVGID_00000059993154850354674920000008198762909811264130_" gradientUnits="userSpaceOnUse" x1="324.9867" y1="208.2953" x2="369.0975" y2="233.7627">
		<stop  offset="3.590544e-02" style="stop-color:#38577C"/>
		<stop  offset="0.1976" style="stop-color:#294060"/>
		<stop  offset="0.4876" style="stop-color:#243755"/>
		<stop  offset="0.9196" style="stop-color:#18263A"/>
	</linearGradient>
	<path style="fill:url(#SVGID_00000059993154850354674920000008198762909811264130_);" d="M345.1,173.4l14.5,75.6
		c0.3,1.5-0.9,2.8-2.4,2.7l-42.1-3c-2.1-0.1-3.3-2.3-2.5-4.2L345.1,173.4z"/>
	<path class="st29" d="M336.9,191.4c0,0,2.6,4,0.9,7.9c0,0-1.7,3.4-6,3.1L336.9,191.4z"/>
	<path class="st32" d="M325.6,216.3c0,0,3.7,1.5,1.8,8.3c0,0-0.7,2.8-7,3.2L325.6,216.3z"/>
	<path class="st29" d="M351.8,208c0,0-3,3-2.4,6.7c0,0,0.6,4.5,4.9,6.6L351.8,208z"/>
	<circle class="st33" cx="337.1" cy="212.6" r="4.6"/>
	<circle class="st32" cx="345.4" cy="233.7" r="5.8"/>
	<circle class="st29" cx="327.3" cy="239.5" r="4"/>
	<path class="st33" d="M348.1,188.8c0,0-2.2,3.1-1.7,6c0,0,0,2.9,3.7,4L348.1,188.8z"/>
	<path class="st32" d="M345.7,176.5c1.1,0.2,2.9,0.5,4.9,0.1c2.5-0.5,3-1.4,5.6-2c2.7-0.5,3,0.3,5.7-0.2c2.6-0.5,2.5-1.3,5.5-2.2
		c2.9-0.9,3.7-0.3,6.8-1c1.4-0.3,3.4-0.9,5.8-2.3c-0.9,1.5-2.2,3.3-4.1,5.1c-1.1,1-2.1,1.9-3.1,2.6c1.3,0.3,3.3,0.6,5.7,0.3
		c2.5-0.3,4.4-1.1,5.6-1.8c0,0.5-0.4,3.6-3.2,5.6c-1.3,0.9-2.6,1.2-3.6,1.3c-1,0.1-1.9,0.2-2.8,0.6c-0.8,0.3-1.8,0.6-2.9,0.6
		c-2,0.1-2.4-0.6-4.5-0.7c-2.8-0.1-3.3,1.1-6.6,1.3c-2.4,0.2-2.9-0.4-4.8-0.4c-1.9,0-5.2-2.1-8.6,0.6L345.7,176.5z"/>
	<polygon class="st35" points="384.1,328.8 378.8,338.7 279.7,334 278.5,323.8 291.7,324.4 291.7,324.5 	"/>
	<g>
		<polygon class="st8" points="257.3,366.7 257.2,366.9 255.2,366.7 264.8,305.5 275.7,306.3 278.2,326.7 278.7,327.2 377.8,331.8 
			378.3,331.5 386.4,316.2 388,318.1 379.4,376.9 		"/>
		<path class="st9" d="M265.3,306l1.2,0.1l8.8,0.7l2.4,20l0.9,0.9l99.1,4.6l0.9-0.5l7.8-14.7l1,1.1l-8.5,58.1l-121.7-10.1l-0.1,0.2
			l-1.5-0.1L265.3,306 M264.4,305l-9.8,62.2l2.8,0.2l-0.1-0.2l122.6,10.2l8.7-59.5l-2.1-2.5l-0.2,0l-8.5,15.9l-99.1-4.6l-2.5-20.8
			l-9.7-0.7L264.4,305L264.4,305z"/>
	</g>
	
		<linearGradient id="SVGID_00000123420852615750093830000000855501321380655801_" gradientUnits="userSpaceOnUse" x1="324.9778" y1="366.8276" x2="324.9778" y2="391.96">
		<stop  offset="0.1679" style="stop-color:#416D64"/>
		<stop  offset="0.4251" style="stop-color:#31524C"/>
		<stop  offset="0.6235" style="stop-color:#28423D"/>
		<stop  offset="0.9196" style="stop-color:#28423D"/>
	</linearGradient>
	<path style="fill:url(#SVGID_00000123420852615750093830000000855501321380655801_);" d="M395.3,392L266.5,382l-11.9-15.2h1.7
		c0.9,0,1.8,0,2.7,0.1l120.8,10.5l12.1,11.3L395.3,392z"/>
	<polygon class="st10" points="402.8,334.7 395.3,392 402.8,334.7 	"/>
	<g>
		<polygon class="st9" points="392.2,388.4 380.4,377.2 388.9,319.1 402.2,334.9 394.9,390.9 		"/>
		<path class="st9" d="M389.2,320.3l10.2,12.1l2.3,2.7l-7.2,54.9l-2-1.9l-11.7-11L389.2,320.3 M388.5,317.9l-8.7,59.5l12.1,11.3
			l3.4,3.2l7.5-57.2l-2.6-3L388.5,317.9L388.5,317.9z"/>
	</g>
	<polyline class="st10" points="386.2,315.2 386.4,315.5 388.5,317.9 	"/>
	
		<ellipse transform="matrix(0.1785 -0.9839 0.9839 0.1785 -9.8483 666.5403)" class="st10" cx="394.2" cy="339.2" rx="4.5" ry="2.9"/>
	
		<ellipse transform="matrix(8.428095e-02 -0.9964 0.9964 8.428095e-02 -83.5009 672.5189)" class="st37" cx="324.2" cy="381.7" rx="6.1" ry="21.2"/>
	
		<linearGradient id="SVGID_00000124879348229818657860000004093052341963411594_" gradientUnits="userSpaceOnUse" x1="302.008" y1="397.7892" x2="340.3639" y2="404.5523">
		<stop  offset="0" style="stop-color:#7A8879"/>
		<stop  offset="0.1794" style="stop-color:#7A8879"/>
		<stop  offset="0.4843" style="stop-color:#7A8879"/>
		<stop  offset="0.9393" style="stop-color:#4D5C5D"/>
	</linearGradient>
	<path style="fill:url(#SVGID_00000124879348229818657860000004093052341963411594_);" d="M341.4,380.9c1,0.7,2,1.3,1.8,2.5
		l-5.7,37.9v0c-0.1,0.7-9,5.2-19.5,4.3c-10.5-0.8-18.6-6.6-18.5-7.3l6-39.6v0c0.9-1.9,9.6-2.8,19.6-1.9
		C332.2,377.4,339.2,379.4,341.4,380.9z"/>
	<path class="st23" d="M357.2,483.8c0,0-9.2-18.5,7.9-37.4c0.1-0.1,0.2-0.2,0.3-0.4c0,0,20.3-6.3,33.7,11.4"/>
	<path class="st39" d="M353.3,298.7c-1.4,7.7,0.3,14.7,4,17.2c-0.2,0-0.4,0-0.7-0.1c-5-0.9-7.8-9-6.1-18.1
		c1.6-9.1,7.1-15.8,12.1-14.8c0.8,0.1,1.5,0.5,2.1,0.9C359.9,283.6,354.9,290,353.3,298.7z"/>
	<path class="st39" d="M299.8,294.1c-1.4,7.7,0.3,14.7,4,17.2c-0.2,0-0.4,0-0.7-0.1c-5-0.9-7.8-9-6.1-18.1
		c1.6-9.1,7.1-15.8,12.1-14.8c0.8,0.1,1.5,0.5,2.1,0.9C306.4,278.9,301.3,285.4,299.8,294.1z"/>
	
		<linearGradient id="SVGID_00000137819048117014208900000014770736450206907827_" gradientUnits="userSpaceOnUse" x1="393.0479" y1="491.2007" x2="393.0479" y2="513.1295">
		<stop  offset="0" style="stop-color:#99A797"/>
		<stop  offset="0.443" style="stop-color:#31524C"/>
	</linearGradient>
	<path style="fill:url(#SVGID_00000137819048117014208900000014770736450206907827_);" d="M403.8,501.1c0,0.6,0.6,9.8-3.9,11.9
		c-0.7,0.3-2.7-0.1-6.8-0.1c-3.1,0-7.3,0.2-7.9,0c-3.6-1.5-3.2-7.2-2.8-11.8c0.1-0.6-1-7.1,3.8-9.1c2.4-1,5.7-0.8,10-0.7
		c0.6,0,1.5,0.1,2.6,0.5c0,0,1,0.5,1.9,1.4C403.5,496.1,403.8,501.1,403.8,501.1z"/>
	<path class="st41" d="M392.6,503.4c-0.7,4.9-3.3,8.8-6.2,9.4c-0.5,0.1-0.9,0.1-1.4,0.1c-3.4-0.5-5.6-5.4-4.9-11.1
		c0.7-4.9,3.3-8.8,6.2-9.4c0.5-0.1,0.9-0.1,1.4-0.1c1.9,0.2,3.4,1.9,4.3,4.2C392.7,498.4,392.9,500.9,392.6,503.4z"/>
	<path class="st9" d="M413.4,565.3"/>
	
		<linearGradient id="SVGID_00000036251111674387900790000008581438518484222356_" gradientUnits="userSpaceOnUse" x1="202.6478" y1="440.6313" x2="202.6478" y2="492.8959">
		<stop  offset="0" style="stop-color:#99A797"/>
		<stop  offset="0.443" style="stop-color:#31524C"/>
	</linearGradient>
	<path style="fill:url(#SVGID_00000036251111674387900790000008581438518484222356_);" d="M182.6,466.8c0.3-0.8,1.2-3.7,1.4-4.4
		c2.9-11.6,1.8-20.6-2-21.7c15.6-0.2,45.8,7.2,45.8,7.2c1.1,0.8,2,2,2.6,3.6c1.7,3.9,1.9,9.9,0,17.2c-0.2,0.8-0.4,1.5-0.7,2.3
		c-2.9,9.3-6.7,16.1-10.2,18.9c-1.8,1.5-5.8,2.1-7.4,2.6c-11.8,3.4-38.4-10.7-38.4-10.7c1.1-0.2,2.9-2.1,3.5-2.9
		c0.3-0.3,0.5-0.6,0.7-0.8c0.3-0.4,0.7-0.7,0.9-1.2c0-0.1,0.1-0.2,0.1-0.2c0.4-0.6,0.7-1.3,0.9-2c0.3-0.8,0.7-1.6,0.7-1.6
		c0.2-0.4,0.8-2.3,1-2.8"/>
	<line class="st10" x1="300" y1="636.1" x2="299.4" y2="650.7"/>
	<ellipse class="st5" cx="314.5" cy="596" rx="9.6" ry="1.8"/>
	
		<linearGradient id="SVGID_00000076598811051688252190000008423977498129047950_" gradientUnits="userSpaceOnUse" x1="315.0121" y1="596.8638" x2="315.0121" y2="577.4803" gradientTransform="matrix(0.999 4.504792e-02 -4.504792e-02 0.999 26.7707 -13.5946)">
		<stop  offset="0" style="stop-color:#7A8879"/>
		<stop  offset="0.4557" style="stop-color:#7A8879"/>
		<stop  offset="0.7382" style="stop-color:#788277"/>
	</linearGradient>
	<path style="fill:url(#SVGID_00000076598811051688252190000008423977498129047950_);" d="M320.2,595.2c0,0.8-0.6,1.5-1.3,1.5
		c-1.3,0.1-2.6,0.2-4.3,0.2c-1.4-0.1-2.9-0.4-4.2-0.6c-0.4-0.1-0.7-0.5-0.7-1l0-0.9l0.1-16l10.3-0.6l0.1,17.2L320.2,595.2z"/>
	
		<linearGradient id="SVGID_00000172424799243246851700000016104558948076982410_" gradientUnits="userSpaceOnUse" x1="306.1239" y1="564.3094" x2="323.4474" y2="581.6329" gradientTransform="matrix(-1 0 0 1 631.7889 0)">
		<stop  offset="0" style="stop-color:#99A797"/>
		<stop  offset="0.443" style="stop-color:#31524C"/>
	</linearGradient>
	<path style="fill:url(#SVGID_00000172424799243246851700000016104558948076982410_);" d="M303.9,570.4l0.4,6.5c0.1,1.1,0.9,2,2,2.1
		l18.6,1.8c0.9,0.1,1.7-0.6,1.8-1.5l1.2-9.9c0.1-1.1-0.2-4-1.3-3.8l-21.2,2.7C304.5,568.6,303.9,569.4,303.9,570.4z"/>
	<path class="st45" d="M130.5,226.7c-1-0.1-2.1-0.2-3.1-0.2c-15,0-27.1,12.2-27.1,27.1c0,3,0.6,6,1.6,8.9c-3.1-4.3-5.1-9.3-5.1-14.5
		c0-13,10.6-23.6,23.6-23.6C124,224.4,127.4,225.2,130.5,226.7z"/>
	<path class="st46" d="M173.8,170.9c-1.8-0.3-3.7-0.5-5.5-0.4c-16.5,0.7-35.4,20.5-28.2,41.8c0,0,0,0.1,0,0.2h-1.1
		c-1.3-3.4-2.5-6.8-3.6-10.1c-5.9-19,9.5-36.6,23.1-37.2C163.8,164.9,169.2,167,173.8,170.9z"/>
	<path class="st47" d="M157.9,659.9c-0.3,7.2-5.9,15.4-11.3,15.2c-2.8-0.1-5.1-2.4-6.7-4.7c0.1,0,0.2,0,0.3,0
		c5.3,0.5,11.5-7.2,12.3-14.4c0.7-6-2.9-7.7-1.9-14.7c0.7-5.4,3-5.6,3.8-11.2c0.7-5.4-1.3-6.1-1.7-13.4c-0.4-7.3,1.5-7.6,1.1-15.8
		c-0.1-1.4-0.2-2.7-0.4-3.8c0.7,1.8,1.4,4.2,1.8,7.6c1,8.2-0.9,8.6,0,15.8c0.9,7.3,2.9,7.8,2.6,13.3c-0.3,5.7-2.6,6-2.9,11.5
		C154.5,652.5,158.1,653.8,157.9,659.9z"/>
	<path class="st48" d="M233.1,162.8c-3.4-3.9-8.4-6.4-13.9-6.8c-13.8-1-34.5,11.3-36.4,27.3c-0.3,2.7-0.5,5.4-0.5,8
		c-0.9-3.4-1.5-7-1.8-10.7c-1.4-15.6,17.2-29.6,31.4-30.2C220.8,150.1,229.8,155.1,233.1,162.8z"/>
	<path class="st49" d="M158.7,250.2c0,18.4-11.9,39.9-31.8,37.6c-5.3-0.6-10.6-2.6-15.4-5.7c2.5,0.9,5.1,1.6,7.7,1.8
		c19.8,2.3,31.8-19.2,31.8-37.6c0-11.6-5.9-21.8-14.9-27.8C149.3,223,158.7,235.5,158.7,250.2z"/>
	<path class="st50" d="M236.3,207.2c-12.4,19.9-31.1,40.7-47.2,38.3c-8.1-1.2-12.8-9.3-14.9-20.8c2.6,4.8,6.2,7.9,11,8.6
		c16.1,2.3,34.7-18.5,47.2-38.3c6.2-9.9,7.6-20.7,6-30.3C244.3,176.6,245.3,192.9,236.3,207.2z"/>
	<line class="st51" x1="386.4" y1="315.5" x2="402.8" y2="334.7"/>
	<path class="st5" d="M511.2,196.7"/>
	<g>
		<path class="st16" d="M232.7,638.2c0.5,4.2,0.3,8.4-0.5,12.5C231.7,646.5,231.8,642.4,232.7,638.2L232.7,638.2z"/>
	</g>
	<g>
		<path class="st16" d="M237.3,638.4c0.7,4.4,0.7,8.7,0,13.1C236.7,647.1,236.7,642.7,237.3,638.4L237.3,638.4z"/>
	</g>
	<g>
		<path class="st16" d="M243.7,638.6c0.8,4.5,0.8,9.1,0,13.6C242.9,647.7,242.9,643.2,243.7,638.6L243.7,638.6z"/>
	</g>
	<g>
		<path class="st16" d="M251.3,639.1c1,4.6,1,9.3,0,13.9C250.3,648.5,250.3,643.7,251.3,639.1L251.3,639.1z"/>
	</g>
	<g>
		<path class="st16" d="M258.4,639c1,4.8,1,9.8,0,14.6C257.3,648.8,257.3,643.8,258.4,639L258.4,639z"/>
	</g>
	<g>
		<path class="st16" d="M265.6,639c1.4,4.9,1.4,10.1,0,15C264.2,649.1,264.2,643.8,265.6,639L265.6,639z"/>
	</g>
	<g>
		<path class="st16" d="M274.3,638.8c1.4,5,1.4,10.3,0,15.3C272.9,649.1,273,643.8,274.3,638.8L274.3,638.8z"/>
	</g>
	<g>
		<path class="st16" d="M282.7,638.4c1,5.1,1,10.3,0,15.4C281.6,648.7,281.7,643.4,282.7,638.4L282.7,638.4z"/>
	</g>
	<g>
		<path class="st16" d="M291,637.6c1.3,4.9,1.5,10,0.8,15C290.4,647.8,290.2,642.6,291,637.6L291,637.6z"/>
	</g>
	<g>
		<path class="st16" d="M297.6,636.6c1.2,4.7,1.7,9.4,1.3,14.2C297.7,646.2,297.2,641.4,297.6,636.6L297.6,636.6z"/>
	</g>
	<path class="st4" d="M389.4,502.8c-0.3,2.5-1.7,4.4-3.1,4.7c-0.2,0.1-0.5,0.1-0.7,0c-1.7-0.2-2.8-2.7-2.4-5.6
		c0.3-2.5,1.7-4.4,3.1-4.7c0.2-0.1,0.4-0.1,0.7,0c1,0.1,1.7,0.9,2.1,2.1C389.4,500.3,389.5,501.6,389.4,502.8z"/>
	<path class="st52" d="M388.8,502.6c-0.3,2.5-1.7,4.4-3.1,4.7c-0.2,0.1-0.5,0.1-0.7,0c-1.7-0.2-2.8-2.7-2.4-5.6
		c0.3-2.5,1.7-4.4,3.1-4.7c0.2-0.1,0.4-0.1,0.7,0c1,0.1,1.7,0.9,2.1,2.1C388.8,500.1,388.9,501.3,388.8,502.6z"/>
	<path class="st4" d="M387.6,502.7c-0.2,1.6-1.1,2.8-2,3c-0.1,0-0.3,0-0.4,0c-0.1,0-0.1,0-0.2,0c0.9-0.2,1.7-1.4,2-3
		c0.1-0.8,0-1.6-0.2-2.2c-0.2-0.7-0.7-1.2-1.2-1.3c0,0,0,0,0,0c0.1,0,0.3,0,0.4,0c0.6,0.1,1.1,0.6,1.4,1.4
		C387.6,501.1,387.7,501.9,387.6,502.7z"/>
	<path d="M391.2,337.7c0.3,2.5,1.7,4.4,3.1,4.7c0.2,0.1,0.5,0.1,0.7,0c1.7-0.2,2.8-2.7,2.4-5.6c-0.3-2.5-1.7-4.4-3.1-4.7
		c-0.2-0.1-0.4-0.1-0.7,0c-1,0.1-1.7,0.9-2.1,2.1C391.1,335.2,391,336.4,391.2,337.7z"/>
	<path class="st52" d="M391.8,337.4c0.3,2.5,1.7,4.4,3.1,4.7c0.2,0.1,0.5,0.1,0.7,0c1.7-0.2,2.8-2.7,2.4-5.6
		c-0.3-2.5-1.7-4.4-3.1-4.7c-0.2-0.1-0.4-0.1-0.7,0c-1,0.1-1.7,0.9-2.1,2.1C391.7,334.9,391.6,336.2,391.8,337.4z"/>
	<path d="M393,337.5c0.2,1.6,1.1,2.8,2,3c0.1,0,0.3,0,0.4,0c0.1,0,0.1,0,0.2,0c-0.9-0.2-1.7-1.4-2-3c-0.1-0.8,0-1.6,0.2-2.2
		c0.2-0.7,0.7-1.2,1.2-1.3c0,0,0,0,0,0c-0.1,0-0.3,0-0.4,0c-0.6,0.1-1.1,0.6-1.4,1.4C392.9,336,392.8,336.7,393,337.5z"/>
	<path class="st37" d="M377.4,445.2c-3.1,0.3-5.1,0.9-5.1,0.9c-0.1,0.1-0.2,0.2-0.3,0.4c-12.6,13.9-10.9,27.6-9.2,33.9l-5.6,3.5
		c0,0-9.2-18.5,7.9-37.4c0.1-0.1,0.2-0.2,0.3-0.4C365.4,446.1,370.6,444.5,377.4,445.2z"/>
	<path class="st23" d="M265.3,422c0,0-4.2-2.3-14.5-1.1c0,0-3.1,28.6,9.1,32.7L265.3,422z"/>
	<path class="st37" d="M265.1,422l-5.4,31.6c-6.1-2-8.4-10.2-9.1-17.8c1.3,4.9,3.7,9.1,7.8,10.5l4.3-25.1
		C264.4,421.6,265.1,422,265.1,422z"/>
	<g>
		<path class="st16" d="M302.3,643.4c0.7,4,0.7,8.1,0,12.1C301.6,651.5,301.6,647.4,302.3,643.4L302.3,643.4z"/>
	</g>
	<g>
		<path class="st16" d="M309.1,647.3c0.8,3.6,0.8,7.3,0,10.9C308.3,654.6,308.3,650.9,309.1,647.3L309.1,647.3z"/>
	</g>
	<g>
		<path class="st16" d="M318.6,650.1c1,3.4,1,7.2,0,10.6C317.6,657.2,317.6,653.5,318.6,650.1L318.6,650.1z"/>
	</g>
	<g>
		<path class="st16" d="M330.3,650.8c1.4,3.4,1.4,7.3,0,10.8C328.9,658.1,328.9,654.2,330.3,650.8L330.3,650.8z"/>
	</g>
	<g>
		<path class="st16" d="M340.3,649.5c1.4,3.2,1.7,6.7,1,10.1C340,656.4,339.6,652.9,340.3,649.5L340.3,649.5z"/>
	</g>
	<g>
		<path class="st16" d="M347.2,646.4c1.6,3.2,2.4,6.7,2.4,10.3C348,653.5,347.2,650,347.2,646.4L347.2,646.4z"/>
	</g>
	<line class="st5" x1="350" y1="643.6" x2="353.8" y2="654.3"/>
	<g>
		<path class="st16" d="M350.5,642.6c2.1,3.4,3.5,7,4.3,10.9C352.7,650.1,351.2,646.5,350.5,642.6L350.5,642.6z"/>
	</g>
	<polygon class="st53" points="276.2,305.9 278.1,307.6 280.7,326.8 278.7,326.7 	"/>
	<path class="st54" d="M343.6,383.5l-5.7,37.9v0c0,0.6-6.5,3.9-14.9,4.4c3.5-1.1,5.7-2.3,5.7-2.7v0l5.7-37.9
		c0.2-1.1-0.8-1.8-1.8-2.5c-2.2-1.5-9.2-3.5-16.4-4.1c-3.6-0.3-7-0.4-10-0.3c2.1-1.5,10.1-2.2,19.1-1.4c7.2,0.6,14.2,2.6,16.4,4.1
		C342.8,381.7,343.8,382.3,343.6,383.5z"/>
	<path class="st4" d="M308.4,637.3c-0.3,2.5-1.7,4.4-3.1,4.7c-0.2,0.1-0.5,0.1-0.7,0c-1.7-0.2-2.8-2.7-2.4-5.6
		c0.3-2.5,1.7-4.4,3.1-4.7c0.2-0.1,0.4-0.1,0.7,0c1,0.1,1.7,0.9,2.1,2.1C308.5,634.8,308.6,636,308.4,637.3z"/>
	<path class="st16" d="M307.8,637.1c-0.3,2.5-1.7,4.4-3.1,4.7c-0.2,0.1-0.5,0.1-0.7,0c-1.7-0.2-2.8-2.7-2.4-5.6
		c0.3-2.5,1.7-4.4,3.1-4.7c0.2-0.1,0.4-0.1,0.7,0c1,0.1,1.7,0.9,2.1,2.1C307.8,634.6,308,635.8,307.8,637.1z"/>
	<path class="st4" d="M306.6,637.2c-0.2,1.6-1.1,2.8-2,3c-0.1,0-0.3,0-0.4,0c-0.1,0-0.1,0-0.2,0c0.9-0.2,1.7-1.4,2-3
		c0.1-0.8,0-1.6-0.2-2.2c-0.2-0.7-0.7-1.2-1.2-1.3c0,0,0,0,0,0c0.1,0,0.3,0,0.4,0c0.6,0.1,1.1,0.6,1.4,1.4
		C306.7,635.6,306.7,636.3,306.6,637.2z"/>
	<g>
		<path class="st4" d="M286,606.4c0.3,2.5,1.7,4.4,3.1,4.7c0.2,0.1,0.5,0.1,0.7,0c1.7-0.2,2.8-2.7,2.4-5.6c-0.3-2.5-1.7-4.4-3.1-4.7
			c-0.2-0.1-0.4-0.1-0.7,0c-1,0.1-1.7,0.9-2.1,2.1C286,603.9,285.8,605.1,286,606.4z"/>
		<path class="st16" d="M286.6,606.2c0.3,2.5,1.7,4.4,3.1,4.7c0.2,0.1,0.5,0.1,0.7,0c1.7-0.2,2.8-2.7,2.4-5.6
			c-0.3-2.5-1.7-4.4-3.1-4.7c-0.2-0.1-0.4-0.1-0.7,0c-1,0.1-1.7,0.9-2.1,2.1C286.6,603.7,286.5,604.9,286.6,606.2z"/>
		<path class="st4" d="M287.8,606.3c0.2,1.6,1.1,2.8,2,3c0.1,0,0.3,0,0.4,0c0.1,0,0.1,0,0.2,0c-0.9-0.2-1.7-1.4-2-3
			c-0.1-0.8,0-1.6,0.2-2.2c0.2-0.7,0.7-1.2,1.2-1.3c0,0,0,0,0,0c-0.1,0-0.3,0-0.4,0c-0.6,0.1-1.1,0.6-1.4,1.4
			C287.8,604.7,287.7,605.5,287.8,606.3z"/>
	</g>
	<g>
		<path class="st55" d="M314.4,649.2c-1.1-7.5-1.2-16-0.9-23c1-8.8,10.2-12.1,17.9-10.1c0,0,0,0.2,0,0.2c-7.6-0.5-16.1,2.8-16,11.6
			c0,0-0.8,21.3-0.8,21.3L314.4,649.2L314.4,649.2z"/>
	</g>
	<g>
		<path class="st55" d="M261.8,613.5c9.6-0.6,17.9,7.3,21.1,15.8c1.1,2.9,1.7,5.9,1.9,8.9c0,0-0.2,0.1-0.2,0.1l-1.4-4.2
			c-2.6-6.9-6.9-13.3-13.3-17.2c-2.5-1.5-5.3-2.7-8.2-3.1L261.8,613.5L261.8,613.5z"/>
	</g>
	<g>
		<circle class="st0" cx="273.6" cy="443.9" r="5.7"/>
		<circle class="st32" cx="272.2" cy="443.9" r="5.7"/>
	</g>
	<circle class="st16" cx="304.3" cy="453.6" r="5.7"/>
	<circle class="st29" cx="302.8" cy="453.6" r="5.7"/>
	<circle class="st50" cx="341.2" cy="457.1" r="5.7"/>
	<circle class="st56" cx="342.5" cy="457.1" r="5.7"/>
	<path class="st57" d="M229.1,638.4c0,0,2-1.2,5.2-1.7l0.2,1.5L229.1,638.4z"/>
	<path class="st58" d="M335.2,618.9c0,0,12.1,4.4,12.8,14.2c0,0-4.5-1.6-6.9-7.1C340,623.5,335.2,622.5,335.2,618.9z"/>
	<path class="st59" d="M303.9,252.8l-20-1.7c-1.8-0.2-3.4,1.1-3.6,2.9l-2.5,19.3c-0.1,0.6,0.7,0.8,1,0.3c2.8-6.6,9.9-18.4,25.1-20.1
		C304.3,253.4,304.3,252.9,303.9,252.8z"/>
	<path class="st37" d="M226.2,479.5c-2.2,4.7-4.5,8.1-6.8,9.9c-1.8,1.5-5.8,2.1-7.4,2.6c-11.8,3.4-38.4-10.7-38.4-10.7
		c1.1-0.2,2.9-2.1,3.5-2.9c0.2-0.3,0.5-0.6,0.7-0.8c0.3-0.4,0.7-0.7,0.9-1.2c0-0.1,0.1-0.2,0.1-0.2c0.3-0.6,0.7-1.3,1-2
		c0.3-0.8,0.7-1.6,0.7-1.6c0.1-0.2,0.2-0.5,0.3-0.9c3.6,1.8,27.1,13.6,37.9,10.5C220.4,481.7,224.4,481,226.2,479.5
		C226.2,479.5,226.2,479.5,226.2,479.5z"/>
	
		<linearGradient id="SVGID_00000134247646631170378860000006877959084713780381_" gradientUnits="userSpaceOnUse" x1="180.6761" y1="471.1448" x2="180.6761" y2="471.6548">
		<stop  offset="0" style="stop-color:#99A797"/>
		<stop  offset="0.443" style="stop-color:#31524C"/>
	</linearGradient>
	<path style="fill:url(#SVGID_00000134247646631170378860000006877959084713780381_);" d="M181,471.1c-0.1,0.2-0.1,0.3-0.2,0.5
		c-0.3-0.2-0.5-0.2-0.5-0.2C180.6,471.4,180.8,471.3,181,471.1z"/>
	<path class="st37" d="M292.5,564.6l-0.6,8.5c-0.1,1.3-1.2,2.3-2.5,2.3l-19.3,0.1c-0.3,0.1-1,0.1-2-1c-0.2-0.3-0.5-0.6-0.6-0.9
		l16.6-0.1c1.3,0,2.4-1,2.5-2.3l0.6-8.5c0-0.8-0.3-1.4-0.9-1.9l4.7,1.6C292,562.7,292.6,563.7,292.5,564.6z"/>
	<path class="st37" d="M303.8,570.6l0.4,6.4c0.1,1.1,0.9,2,2,2.1l18.6,1.8c0.9,0.1,1.7-0.6,1.8-1.5v0l-17.3-1.6c-1.1-0.1-2-1-2-2.1
		l-0.4-6.4c0-0.4,0.1-0.8,0.3-1.1l-2,0.3C304.3,568.6,303.8,569.7,303.8,570.6z"/>
	<path class="st61" d="M242.4,613.2c-3.7,0.8-10.9,4.6-8.4,22.4c0,0.3,0.6,0.1,0.9,0c2.5-0.7,0.7-6,3.9-12.2c1.5-3,2.6-6.3,4-9.4
		C242.8,613.9,243,613.1,242.4,613.2z"/>
	<g>
		<g class="st62">
			<path class="st10" d="M127,502.1"/>
		</g>
		<g class="st62">
			<path class="st10" d="M23.3,482.1"/>
		</g>
	</g>
	
		<linearGradient id="SVGID_00000165919356493253252060000000188463192201526933_" gradientUnits="userSpaceOnUse" x1="270.0171" y1="498.7208" x2="319.7211" y2="498.7208">
		<stop  offset="0" style="stop-color:#B5BDA6"/>
		<stop  offset="0.4905" style="stop-color:#727C71"/>
	</linearGradient>
	
		<ellipse transform="matrix(0.1414 -0.99 0.99 0.1414 -240.5287 720.124)" style="fill:none;stroke:url(#SVGID_00000165919356493253252060000000188463192201526933_);stroke-width:0.75;stroke-miterlimit:10;" cx="294.9" cy="498.7" rx="33.5" ry="24.3"/>
</g>
<g id="Layer_3">
</g>
</svg>
