<?xml version="1.0" encoding="utf-8"?>
<!-- Generator: Adobe Illustrator 27.4.0, SVG Export Plug-In . SVG Version: 6.00 Build 0)  -->
<svg version="1.1" xmlns="http://www.w3.org/2000/svg" xmlns:xlink="http://www.w3.org/1999/xlink" x="0px" y="0px"
	 viewBox="0 0 612 792" style="enable-background:new 0 0 612 792;" xml:space="preserve">
<style type="text/css">
	.st0{fill:#FFFFFF;}
</style>
<g id="branch">
	<rect class="st0" width="612" height="792"/>
	<path d="M402.7,391c0.7-0.8,6.5-6.8,11-18.9c0.7-3.4,7.6-15.7,15.9-20.3c5.8-3.2,22.8-5.3,27.4-7.7s6-12.2,6.2-22.5
		s14.2-15.4,18.5-16.2c4.3-0.8,20.1-2.1,21.1-0.8c1,1.3-5.6,3-8.1,10.5c-1.2,3.7-4.4,11.1-8.5,13c-6,2.7-16.4,2.5-19.5,4.6
		c-2.1,1.5-3.8,9.1-0.9,10.9c5.5,3.4,15.2,0.1,22.1-2.7c7-2.9,20.5-6.8,25.5-9.3c5.1-2.6,14.6-11.9,26.3-8
		c11.7,4,14.3,11.9,16.3,13.8c2,1.9,4.9,6,7.5,7.5c0.3,2.7-20.4,6.1-28.1,3.4c-7.8-2.7-16.2-10.4-21.4-11.4c-5.2-0.9-20,7.2-18.9,10
		c1.1,2.8,28.3,1.7,47.4,17.3c27.5,20.1,24.6,25.7,29.7,32.4s8.6,19.6,8.6,26.9S570,444.8,567.3,446c0.2-2.4-0.1-5.1-2.6-9.4
		c-2.7-4.5-5.1-8.6-6.4-15c-1.1-5.6,4.3-14.4,7.8-21.4c-2.5-21.3-31.1-36.1-34.1-34c-2.5,1.8,0,6.1,1.5,7.8
		c3,3.3,11.2,5.9,13.2,17.3c2.1,11.4-5.8,21.4-6.5,23c-0.6,1.4-3.4-7.5-7.1-10c-5.5-3.6-6.9-7.1-8.4-11.5
		c-2.2-6.2,3.8-17.2,3.5-18.9c-0.3-1.7-0.1-4.8-4.1-10.5c-2.9-4-16.1-6.5-21.2-8.3c-6.2-2.2-16-4.2-23.4-2.8
		c-6.9,1.3-19.4,6.6-25.4,6.9c-6.6,0.3-9.9-1.2-17.5,0.8c-7.6,2-15.1,12.9-19.3,17.6C412.8,382.5,405.6,392.7,402.7,391z"/>
	<path d="M417.7,384.1c0.3-1.5,9.3-16.2,23.2-20.2c13.6-3.9,31.3,8.2,35.4,11.8c4.1,3.6,7.7,1.7,15.8,13.5c8.1,11.8,2,34.9,0.7,35.7
		c-1.3,0.8-2.4-6.2-5.1-8.6s-16.8-11.1-19.2-18c-2.4-6.9,2-14.1-0.7-21.9s-18.5-7.7-26.1-6.3C434.1,371.6,417.4,385.6,417.7,384.1z"
		/>
	<path d="M337.2,510.9c-3-4.6-20.9-24.3-24.6-28.7c-3.9-4.7-8.5-18.6-5.6-26.9c2.9-8.2,8.5-16,11.9-24c3.4-8,11.4-32.3,20.6-35.7
		c-1.6,4.5-5.8,13.7-4.8,20c1,6.8,0,11.8-2.4,17.8s-9.7,22.9-9.1,29.8C324.7,487.8,340.4,509.7,337.2,510.9z"/>
	<path d="M334.6,432.5c0-3,3.3-3.8,2.6-10.3s-0.2-14.5,1.1-17.7c1.6-4.3,8.6-11.4,17.3-20.1C363,401.3,337.8,434.2,334.6,432.5z"/>
	<path d="M348.5,421.3c18.4-25.8,8.1-22.8,15.6-40.2c1.6-3.7,7.7-7.3,11.5-8.4c17-4.8,13.2-4.7,14.9-3.9
		c-12.8,12.4-4.5,11.8-12.4,22.8C370.9,401.8,349.2,423.5,348.5,421.3z"/>
	<path d="M367,407.5c6-4.9,15.6-10.1,20.9-22.5c2.9-6.9,23.5-29.6,29.7-29c-3.4,3.6-11.2,20.6-18.3,31.3
		C391.7,398.9,367.9,409,367,407.5z"/>
	<g>
		<path class="st0" d="M469.2,325.8c-1.3-9.3,9.3-14.6,17.1-15.8c1.2-0.1,2.4-0.3,3.6-0.3c-2.2,0.9-4.4,1.7-6.6,2.6
			C477.3,314.8,470.3,318.7,469.2,325.8L469.2,325.8z"/>
	</g>
	<g>
		<path class="st0" d="M521.9,334.1c9.2-5.8,21.8-3.8,28.1,5.2c0.6,0.9,1.2,1.8,1.7,2.7c-0.5-0.5-1-1-1.5-1.5
			C542.6,332.6,532.1,331,521.9,334.1L521.9,334.1z"/>
	</g>
	<g>
		<path class="st0" d="M570.5,405.6c5.4,9.2,5.5,21.5,0.4,30.9C573.2,426.3,573.2,415.8,570.5,405.6L570.5,405.6z"/>
	</g>
	<g>
		<path class="st0" d="M532.1,380.4c9,4,13,15.5,9.4,24.5c0-1.7,0-3.5-0.1-5.2C541,392.3,537.5,385.4,532.1,380.4L532.1,380.4z"/>
	</g>
	<g>
		<path class="st0" d="M473.7,381.2c10.7,2.7,18.2,13.4,18.8,24.2c0.2,2.4,0,5.1-0.3,7.4c-0.2-1.6-0.3-3.3-0.6-4.9
			c-0.1-0.8-0.5-2.8-0.6-3.6c-0.5-1.9-1-3.9-1.7-5.7C486.5,391.2,480.8,385,473.7,381.2L473.7,381.2z"/>
	</g>
</g>
<g id="Body">
	<path d="M492.5,135.5c6.5-19.5-7.9-31.2-16.1-35c-14.5-6.7-28-2.6-36.3,3.4c-8.9,6.4-19.6,19.7-19.3,33.3c0,9.5,0.7,4-0.6,16.9
		c-1.4,14.9-9.9,36.7-18.1,42.9c-7.4,5.6,9.9,1.1,17.8-6.4c2.8-2.6,3.9-4.1,6.3-7.2c4.3-5.6,6-13.3,8.7-20.2
		c0.7-1.7,2.7-2.4,4.3-1.5c7,4,9.4,12.6,10.7,20.7c2.5,16.5,3.8-11.1,3.4-17.5c-0.6-8.6-0.2-21.7,4.5-27.1c0,0,10,9.2,18.9,7.6
		C479.6,144,478.6,132.7,492.5,135.5z"/>
	<g>
		<path class="st0" d="M479.4,110.1c5.5-0.2,10.9,7.1,9.1,12.4c-2.6,7.4-11.8,8.6-16.6,2.6c-3.3-3.7-3-10.5,1.3-13.2
			C475.1,110.6,477.3,110.2,479.4,110.1L479.4,110.1z M479.4,110.4c-2,0.1-4.2,0.7-5.7,2c-3.3,2.7-2.8,8.1,0.1,10.9
			c1.4,1.4,3.3,2.5,5.3,2.7c4,0.4,8.2-3.1,7.9-7.3C486.7,114.8,483.6,110.3,479.4,110.4L479.4,110.4z"/>
	</g>
	<path class="st0" d="M467.4,119.2c1.1,0,2.1-11.7,13.2-11.6c0.1,0,0.1-0.1,0.1-0.1c-0.7-0.8-5.7-3.4-10.4,0.3
		c-5.7,4.5-3.4,10.6-3,11.3C467.3,119.1,467.3,119.2,467.4,119.2z"/>
	<path class="st0" d="M476.7,130.8c3.2-0.7,8.8,0.3,12.9-8.6c0.1-0.1,0.3-0.1,0.3,0c0.7,2.9-0.9,6.8-3.6,8.6
		c-2.7,1.8-7.6,1.4-9.6,0.3C476.6,131.1,476.6,130.9,476.7,130.8z"/>
	<path class="st0" d="M482.6,117.1c0,0.9-1.7,1.3-3.1,1.3s-3.5-1.4-2.3-1.8c1.9-0.7,0-1.9,2.2-1.5
		C480.8,115.3,482.6,116.2,482.6,117.1z"/>
	<path d="M440.8,170.5c-1-1.4-3.2-1-3.5,0.7c-1.8,9.4-7.2,28.2-21.5,29.2c-17.7,1.2-23.3,18.3-16.9,28.2c6.4,10,19,10.3,26.8,5.3
		c10.9-7,20.1-27.7,20.8-39.1C447.1,185.4,445.2,176.9,440.8,170.5z"/>
	<path d="M392,224.1c-7.2-1.3-23.3,7.3-34.7,19.8c-10.8,11.7-37.7,55.1-55.2,57.5c5.4,2.5,42.4,0,75.5-19.9
		c33.3-20,39.1-34.2,37-40.4C405.7,240.3,393.2,235.6,392,224.1z"/>
	<path d="M323.8,280.9c33.5-52.5,50.8-61.1,65.6-60.3c0.1-8.8-0.4-12.4,4.9-16.9c-5.1-0.7-23.4,5.4-36.7,16.4
		C339.6,235.1,324.3,274.7,323.8,280.9z"/>
	<path d="M475.7,145.3c7.9,2.9,13.1,16.3,17.1,19.5c6.4-2.4,7.6-26.4-0.1-30.5C484.1,129.8,477.4,136.9,475.7,145.3z"/>
	<path d="M389.6,184.3c-3.9-6.1-36.1-4.3-43.1,1.7c8.3,1.5,29.3,2.5,36.9,8.5C383.8,192.6,383.4,188.2,389.6,184.3z"/>
	<path d="M349.1,216.1c6.1-7.3,18.9-15.3,33.9-16.4c-5.2-5-38.3-13.8-66.3-0.9c-29,13.3-50.8,56.5-51.8,60.2
		C272.7,253.4,317.2,213.6,349.1,216.1z"/>
	<path d="M264.3,303.8c16.9-13.1,45.1-13.8,53.8-23.3c5.3-5.8,8.4-18.9,9.4-24.5c0.8-4.4,3.2-15.9,16.6-32.2
		c-8.8-1.8-37,12.3-47.3,22.9C287.5,256.3,263.6,296.5,264.3,303.8z"/>
	<path class="st0" d="M491.2,140.1c-0.4-1.1,0-2.8,0.8-3s2.1,0.9,2.4,2.1c0.4,1.1-0.5,0.8-1.4,1
		C492.2,140.4,492.1,142.4,491.2,140.1z"/>
	<path class="st0" d="M493.9,143.9c0.5,0.8,0.9,2.1,1.3,1.8s0.9-1.9,0.4-2.7c-0.5-0.8-1.1-1.4-1.5-1.1
		C493.7,142.1,493.4,143.1,493.9,143.9z"/>
	<path class="st0" d="M496.6,149.6c0,0.8-0.3,1.2-0.6,1.2c-0.4,0-0.4-0.4-0.4-1.3c0-0.8-0.1-1.8,0.2-1.8S496.6,148.7,496.6,149.6z"
		/>
	<ellipse cx="395" cy="192.3" rx="6.2" ry="6.1"/>
	<ellipse cx="412.7" cy="167.8" rx="3.1" ry="3"/>
	<ellipse cx="406.3" cy="179.7" rx="4.7" ry="4.6"/>
	<ellipse cx="416.8" cy="155.3" rx="2.4" ry="2.3"/>
	<ellipse cx="418" cy="145.1" rx="1.5" ry="1.4"/>
	<path class="st0" d="M496.6,153.9c-0.1,0.7-0.3,1.1-0.6,1c-0.3,0-0.3-0.4-0.3-1.2c0.1-0.7,0-1.5,0.3-1.5
		C496.4,152.3,496.7,153.2,496.6,153.9z"/>
	<g>
		<path class="st0" d="M492.7,164.8c-0.4-6.9-1.2-13.7-6.1-18.9C493.6,148.8,495.3,158.3,492.7,164.8L492.7,164.8z"/>
	</g>
	<g>
		<path d="M442.8,72.6c2.2,3.2,4.3,6.5,6.4,9.8c2.3,3.2,4.2,6.7,4.5,10.8c0,0-0.3,0.1-0.3,0.1c-3.2-2.6-5-6.1-6.4-9.8
			c-1.6-3.6-3.1-7.2-4.5-10.8C442.6,72.8,442.8,72.6,442.8,72.6L442.8,72.6z"/>
	</g>
	<g>
		<path d="M454.6,67.4c1.4,3.9,2.8,7.8,4.1,11.8c1.5,3.9,2.6,8,2,12.3c0,0-0.3,0.1-0.3,0.1c-2.5-3.5-3.5-7.6-4.1-11.8
			c-0.8-4.1-1.4-8.2-2-12.3C454.3,67.5,454.6,67.4,454.6,67.4L454.6,67.4z"/>
	</g>
	<g>
		<path d="M464.9,64.2c0.6,4.5,1.1,9,1.5,13.5c0.7,4.6,0.9,9.1-0.6,13.6c0,0-0.3,0-0.3,0c-1.8-4.4-1.9-8.9-1.5-13.5
			c0.1-4.5,0.3-9.1,0.6-13.6C464.6,64.2,464.9,64.2,464.9,64.2L464.9,64.2z"/>
	</g>
	<g>
		<path d="M479.7,67.2c-0.9,4.3-1.8,8.5-2.9,12.7c-0.8,4.4-2.1,8.5-4.9,12.1c0,0-0.3-0.1-0.3-0.1c-0.3-4.6,1.1-8.7,2.9-12.7
			c1.5-4.1,3.2-8.1,4.9-12.1C479.4,67.2,479.7,67.2,479.7,67.2L479.7,67.2z"/>
	</g>
	<g>
		<path d="M489.6,71.1c-1.6,3.9-3.3,7.9-5.1,11.7c-1.6,4-3.5,7.8-6.9,10.7c0,0-0.3-0.1-0.3-0.1c0.5-4.5,2.6-8.2,5.1-11.7
			c2.2-3.6,4.5-7.2,6.9-10.7C489.3,70.9,489.6,71.1,489.6,71.1L489.6,71.1z"/>
	</g>
	<g>
		<path d="M497.2,78c-2.1,3.3-4.3,6.6-6.6,9.8c-2.1,3.4-4.6,6.5-8.2,8.4c0,0-0.2-0.2-0.2-0.2c1.1-3.9,3.7-7,6.6-9.8
			c2.7-2.9,5.4-5.7,8.2-8.4C496.9,77.8,497.2,78,497.2,78L497.2,78z"/>
	</g>
	<g>
		<path d="M503.8,85.8c-2.4,2.7-4.8,5.4-7.3,8c-2.4,2.8-5.1,5.3-8.7,6.4c0,0-0.2-0.2-0.2-0.2c1.5-3.5,4.3-5.9,7.3-8
			c2.9-2.2,5.8-4.4,8.7-6.4C503.6,85.6,503.8,85.8,503.8,85.8L503.8,85.8z"/>
	</g>
	<g>
		<path d="M512.7,93.7c-3.1,2.3-6.2,4.5-9.4,6.6c-3.1,2.4-6.5,4.3-10.5,4.7c0,0-0.1-0.3-0.1-0.3c2.4-3.2,5.8-5.1,9.4-6.6
			c3.4-1.7,6.9-3.2,10.5-4.7C512.5,93.5,512.7,93.7,512.7,93.7L512.7,93.7z"/>
	</g>
	<g>
		<path d="M520.5,103.8c-3.9,1.6-7.9,3.2-11.8,4.6c-4,1.7-8,3-12.4,2.6c0,0-0.1-0.3-0.1-0.3c3.5-2.7,7.6-3.9,11.8-4.6
			c4.1-1,8.3-1.8,12.4-2.6C520.5,103.5,520.5,103.8,520.5,103.8L520.5,103.8z"/>
	</g>
	<path d="M442.8,61.3c1.8,1.1,1.2,10-2.1,10s-9.6-2.9-9.6-5.2c0-2.3,2.3-3.2,5.6-3.2S440.2,59.7,442.8,61.3z"/>
	<path d="M455.3,53.9c-0.8,3.1,0.4,9.3-2.3,9.3s-6.2-5.4-7.1-9.2c-0.4-3.8,0.5-2.4,3.4-3.8c0.7-0.3,1.4-0.4,2.2-0.2
		C453.7,50.6,456.3,50.2,455.3,53.9z"/>
	<path d="M468.8,53.7c0,3-2.1,7.3-4.8,7.3c-5.1-2.3-4.7-7.6-4.7-10.6c0-3,2,0.4,4.7,0.4S469.5,46.3,468.8,53.7z"/>
	<path d="M487.7,52c0,3.7-5.2,9.5-6.9,9.5s-1.4-7.3-1.4-11c0-3.7,2.2,0.8,4,0.8C485.1,51.3,487.7,48.2,487.7,52z"/>
	<path d="M500.7,59.6c0.7,3.2-5.8,6.6-8.3,5.8c-3.1-1-4.1-7.3-2-10.7c2.8-4.4,3.8,3.5,5.1,4.2C497.1,59.7,500.1,56.8,500.7,59.6z"/>
	<path d="M509.5,69c0,1.8-7.9,5.5-9.6,5.5c-1.7,0-0.6-4.1-0.6-5.9s2.5-3,4.5-0.6C504.9,69.3,509.5,67.2,509.5,69z"/>
	<path d="M512.8,81c-1.5,2-3.5,1.8-5.5,1.3c-2-0.5-1.2-4.8,0.3-5.9c2.2-1.6,1.7,1.4,3.7,1.9C513.3,78.8,513.9,79.5,512.8,81z"/>
	<path d="M527.2,88.6c-0.5,2.7-7.2,5.2-10.1,1.9c-3.5-3.9-0.8-5.2,1.6-7.6c4.8-4.7,3.3,0.8,4.8,2.2
		C525.1,86.8,527.9,84.6,527.2,88.6z"/>
	<path d="M532.5,100.1c0,2.9,5.3,4.2,3.5,6.2c-2.3,2.5-12.1-1.3-12.4-4.2c-0.4-4.1,4.8-7.1,7.5-7.1S532.5,97.2,532.5,100.1z"/>
	<g>
		<path class="st0" d="M451.8,102.4c-2.6,1.5-5.2,2.9-7.9,4.1c0,0-0.1-0.2-0.1-0.2c1.2-3.2,4.6-5,7.9-4.1
			C451.7,102.2,451.8,102.4,451.8,102.4L451.8,102.4z"/>
	</g>
	<g>
		<path class="st0" d="M438.8,110.5c-2.4,2.7-4.9,5.4-7.5,7.9c0,0-0.1-0.1-0.1-0.1c0.3-2.1,1.2-3.7,2.5-5.1c1.4-1.4,2.9-2.4,5-2.8
			C438.7,110.4,438.8,110.5,438.8,110.5L438.8,110.5z"/>
	</g>
	<g>
		<path class="st0" d="M428.8,124.2c-1,3.1-2.1,6.1-3.4,9c0,0-0.2-0.1-0.2-0.1c-1.2-3.4,0.2-7.2,3.4-9
			C428.6,124.1,428.8,124.2,428.8,124.2L428.8,124.2z"/>
	</g>
	<g>
		<path class="st0" d="M424.9,141.4c0.1,4,0.1,8,0,12.1c0,0-0.2,0-0.2,0c-1.3-1.9-1.6-3.9-1.7-6c0-2.1,0.4-4.1,1.7-6
			C424.7,141.4,424.9,141.4,424.9,141.4L424.9,141.4z"/>
	</g>
	<g>
		<path class="st0" d="M424.3,160.8c-1,4.2-2,8.3-3.2,12.5c0,0-0.2-0.1-0.2-0.1c-0.7-2.3-0.6-4.5,0-6.7c0.6-2.2,1.5-4.2,3.3-5.8
			C424.1,160.8,424.3,160.8,424.3,160.8L424.3,160.8z"/>
	</g>
	<g>
		<path class="st0" d="M418.4,179.3c-1.8,3.7-3.7,7.3-5.7,10.8c0,0-0.2-0.1-0.2-0.1c-0.2-2.3,0.4-4.3,1.4-6.2c1-1.9,2.3-3.5,4.4-4.6
			C418.2,179.2,418.4,179.3,418.4,179.3L418.4,179.3z"/>
	</g>
	<ellipse class="st0" cx="400.9" cy="251.3" rx="6.2" ry="6.1"/>
	<ellipse class="st0" cx="388.8" cy="264.4" rx="4.7" ry="4.6"/>
	<ellipse class="st0" cx="377.1" cy="274.1" rx="3.1" ry="3"/>
	<ellipse class="st0" cx="367.4" cy="281.2" rx="2.4" ry="2.3"/>
	<ellipse class="st0" cx="358.4" cy="286.7" rx="1.5" ry="1.4"/>
	<path d="M332.6,303c23.1-2.3,13.3-0.2,30.1-8.4c2.2,3.3-1.8,17,0.1,26.1c1.9,9.3,2.5,12.1,7.3,17c5.7,5.6,16.3,19.3,19.8,19.7
		c4.1,0.5,10.7-0.5,13.2,1.7c4.1,3.5,4.9,6.8,3.9,8.1c-4.5-5.2-11.1-7.9-12.6-6.2c1.4,2.4,8.6,8.7,6.7,13c-2.8-3-10.9-10.4-10.9-8.7
		c0,2.1,3.1,9.5-0.1,15.4c-2.4-3.5-3.6-14.3-5.8-14.5c-2.2-0.2-2.6,10.9-8.4,13.1c-1.9-12.8,7.1-15.8,6.2-20.2
		c-0.8-4.4-14.8-13.3-19.5-17.2c-4.1-4.6-1.8-6.7-6.9-18.2C351.9,317.9,334.5,310.6,332.6,303z"/>
	<g>
		<path class="st0" d="M301.4,252.7c5-6.4,11.1-11.8,17.9-16.2c3.4-2.2,7-4.2,11-5.3c1-0.2,3.5-0.9,4.6-0.9c1.5-0.1,3.1-0.3,4.6-0.2
			c1,0.1,2,0.2,3,0.3l0,0.3c-4.9,1.2-9.5,2.4-14,4.3c-2.6,0.9-5.5,2.2-8,3.5c-6.9,3.8-13.3,8.7-18.8,14.3
			C301.7,252.9,301.4,252.7,301.4,252.7L301.4,252.7z"/>
	</g>
	<g>
		<path class="st0" d="M285.9,283.1c9.3-0.3,18.7-3.4,26.2-8.9c3.7-2.8,6.7-6.3,9.5-9.9c2.8-3.7,5.1-7.7,7.4-11.9l0.3,0.1
			c-2.3,15.3-14.7,25.8-29.1,29.6c-4.7,1.2-9.5,1.8-14.3,1.4C285.9,283.4,285.9,283.1,285.9,283.1L285.9,283.1z"/>
	</g>
	<g>
		<path class="st0" d="M280,239.8c16.9-21.2,45.3-47.1,74.7-39.4c4.2,1.2,8.2,3.2,11.9,5.5l-2.3,3.3c-3.3-2.3-6.8-4.1-10.6-5.4
			C325.9,195.2,296.9,220.1,280,239.8L280,239.8z"/>
	</g>
	<path class="st0" d="M440.2,201.2c1.6,3.8-11.1,29.7-23.7,30.7c-10.3,0.8-14-9.7-10.5-13.7C408.8,228.4,429.9,224.1,440.2,201.2z"
		/>
	<circle class="st0" cx="441.5" cy="197.7" r="0.6"/>
	<circle class="st0" cx="442.6" cy="192.7" r="0.7"/>
	<circle class="st0" cx="443.1" cy="188.4" r="0.7"/>
</g>
<g id="tail">
	<path d="M287.4,249c2.8,1.5-20.7,32.1-25.2,38.8c-7,10.2-21.3,19.6-29.3,12.8c-8.4-7.2-3-17.7,6.7-21.1
		C266.7,270.3,271.7,266.4,287.4,249z"/>
	<path d="M194.6,280.4c-2.4-6.6,2.2-12.4,8.6-13c13.4-0.7,13.2,0.5,35.5,0.8c-4.1,2.3-18.5,13.6-25.7,16.3
		C205.7,287.4,197.2,287.7,194.6,280.4z"/>
	<g>
		<path d="M242.6,267.5c6.6,1.7,9.3-3.1,11.3-7.6c1.2-3.5,2.7-7,5-10c2.3-3.2,5.5-5,8.6-7.2c-0.5,1.8-1.5,3.5-2.5,5
			c-2,3-3.2,5.8-4.5,9.1c-1.3,3.1-2.4,6.4-4.7,9C252.4,270.1,246.6,271.8,242.6,267.5L242.6,267.5z"/>
	</g>
	<g>
		<path d="M255.4,331.9c0,0,0.2,0.1,0.2,0.1c0.1-0.1-0.1,0.3-0.1,0.1c0,0,0,0,0,0c-3.7-2-6.3-5.6-7.6-9.6
			c-4.2-12.8,5.5-26.3,17.4-30.3c-2.1,3.6-4.2,6.7-6.1,9.9c-6,9.6-8,19.1-3.6,29.7c0,0,0,0.1,0,0.1s0,0,0,0c0-0.1-0.2,0.2-0.1,0.1
			C255.5,332.1,255.4,331.9,255.4,331.9L255.4,331.9z"/>
	</g>
	<path d="M226.6,298.7c-6.7,1-9.8,13.7-2.1,17.8s14-2.6,14.4-8.4C228.3,309.4,227.4,306.7,226.6,298.7z"/>
	<path d="M241.5,315.9c0-0.6-0.6-1-1.1-0.7c-6.5,4.5-9.7,22.8-8,29.7c2.6,10.2,10.6,11.9,13.6,10.4c2.8-1.4,7.2-9-1-14.2
		C236.1,335.7,241,323.4,241.5,315.9z"/>
	<g>
		<path d="M221.8,282.1c1.2,3-1.8,5.8-4,7.4c-5.3,3.7-11.4,5.4-17.6,6.8c-6.6,1.9-13.4,4.8-18.6,9.3c-3.9,3.5-6.4,8-7.3,13.3
			c-3.6-12.3,7.7-22.7,18.3-26.4C198.4,289.5,221.5,289.2,221.8,282.1L221.8,282.1z"/>
	</g>
	<path d="M228.9,286.5c-4.8,4.7-22.3,12.3-38,18.3c-15.3,5.8-16.4,16.8-9.3,24.3s15.6,1.5,21.5-5.9
		C209.1,315.5,228.1,289.2,228.9,286.5z"/>
	<path d="M186.3,285c-7.7,5.2-43.6,29.7-58.3,32.4c-17.4,3.2-21.9,24.6-10.2,33.7c15.3,11.9,29.3,5,34.3-0.8
		C158.3,343,175.4,293,186.3,285z"/>
	<path d="M220.5,315.2c-2.9,2.4-41.9,35.5-49,44.5c-5.8,7.3-11.1,26.3-0.1,33c9.2,5.6,17.6,3.4,22.1-7.7
		C201,357.9,194.2,361.7,220.5,315.2z"/>
	<path d="M170.9,321.3c-2.2-0.3-7.3,10.7-0.3,17.2c7.1,6.5,18.6,1,17.5-1.4C171.1,333.4,176.8,337.7,170.9,321.3z"/>
	<path d="M189.3,279.1c0.9,0,1.3-1,0.7-1.6c-5.3-5.5-32.7,0.2-40.2,8.4c-10.7,11.8-17.9,13.2-31.3,12.7c-0.7,0-1.1,0.8-0.6,1.3
		c4.1,4.3,28.6,8.8,40.4-1.3C170.8,288,178.8,278.8,189.3,279.1z"/>
	<path d="M169.7,340.5c-12.9,26.9-56.3,50.3-63.9,59.7s-10.9,33.5,0.4,41.7c10.4,7.5,30.1,6.7,36.8-9.4c0.9-2.3,1.5-4.7,1.7-7.2
		C149.7,374.9,161.2,364,169.7,340.5z"/>
	<path d="M226,325.6c-10.2,1.4-39.4,68.5-34.2,116c5.1,45.7,32.9,77.3,65.5,78.8c30.8,1.4,40.9-31.9,33-50.3
		c-7.9-18.4-21.2-18.9-30.8-15c-9.6,4-13.6,18.9-3.7,28.2c9.9,9.3,23.7-0.3,20.6-7.1c-7.3,2-18.4-6.8-13.3-15
		c4.8-4.5,14.4-2,18.6,15c4.2,16.9-5.1,26.5-28,30.5s-37-21.2-44-35.3C202.8,457.4,187.9,415.3,226,325.6z"/>
	<path d="M207.4,395.9c2.4-0.6,9.3,19.5,21.2,20.3c11.9,0.8,16.8-10.4,24.3-4.8c6.6,4.8,3.1,22-16.4,17.5S205.9,399.5,207.4,395.9z"
		/>
	<path d="M205.7,410.5c1.4-4.4,16.9,28.4,23.4,27.1c10-3.7,20.2-3.9,21.2,5.1c1,9-10.5,13.2-21.2,6.8S204.7,416.6,205.7,410.5z"/>
	<path d="M205.1,426.6c2.6-2.4,14,37.2,26.3,39.5c12.2,2.4,13.1,3.2,16.2,7.5c3.1,4.3,3,15.9-12.2,16.2
		C214.8,490.3,202.5,429.1,205.1,426.6z"/>
	<path d="M217.5,359.2c1.6,3.2-0.8,10.7,3.4,12.7c4.7,2.3,7.2-1.6,9.9,3.1c2.1,3.6-2.4,5.9-8.5,4.2
		C216.6,377.6,214.8,362.7,217.5,359.2z"/>
	<path d="M227.8,334.4c0.3,4.2-6.6,23,1,24.1c5.5,0.8,11.6-0.6,12.6,6.1c0.8,5.6-13.6,7.1-18.1,0.7
		C218.6,358.8,222,334.7,227.8,334.4z"/>
	<path d="M211.2,379.4c-0.2-0.3-0.7-0.2-0.7,0.1c-3.6,24.8,23.1,32.8,30.3,30.3c2.3-0.8,14.4-3.1,11.5-23.6
		c-2.2-15-9.5-15.8-16.3-8.8C228.6,385.1,233.3,422.1,211.2,379.4z"/>
	<g>
		<path d="M115.1,320.1c-5.6,4.5-8.1,11.4-7.1,18.2c0.6,3.5,1,7.4,1.3,11c0.3,4.1,0.5,9.2-2.7,12.5c-3.8,4.4-11.3,4.6-15.2,0.2
			c-4-4.6-5.1-12.8,0.1-17.1c2.8-2.3,7.9-2,9.4,1.5c1.4,2.4,0.4,8.3-3.3,6.3c3.9,0.7,2.5-5.7-0.2-6.1c-6.2-0.3-5.2,8.3-2,11.4
			c2.3,2.2,6.4,1.3,7.6-1.7c0.7-2.2,0.5-4.5,0.6-6.9c0-2.6-0.1-5.5-0.2-8C102.5,332.5,106.3,323.2,115.1,320.1L115.1,320.1z"/>
	</g>
	<path d="M84.1,363.4c-1.1,1.6-3,11.2-5.2,14.8c-1.9,3.3-10.5,2.5-13.9,8.1c-1.1,1.8-1.9,3.6-2,5.5c-0.1,2.8,1.7,5.2,4.4,6
		c5.8,1.7,10.9-4.9,14.1-9.8C85.4,382.1,85.8,360.8,84.1,363.4z"/>
	<g>
		<path d="M125.3,356.9c7.7,10.5-8.2,15.5-15.9,17.4c-8.4,1.7-13.8,8.2-13.1,17.2c-5.6-7.8-0.2-18.3,8.5-21
			c5.2-1.6,10.8-2.2,15.9-4.2C125.3,364.6,126.7,361.5,125.3,356.9L125.3,356.9z"/>
	</g>
	<g>
		<path d="M155.3,348.7c1.7,6.7-4.5,13.5-8.9,18c-4.9,5-11,8.7-17.3,11.5c-8.1,3.7-16,7.6-23,12.9c0,0-2.6,2-2.6,2
			c-9.5,7.8-10.5,21.3-9.3,32.8c-3.8-10.8-3.8-24.3,3.8-33.6c4.7-5.2,10.7-9.2,16.8-12.5c7-3.9,14.5-6.2,21.5-9.8
			C142.9,366.1,155.7,357.2,155.3,348.7L155.3,348.7z"/>
	</g>
	<path d="M160.8,391.8c-2.5,2,1.6,11.1,5.5,11.9c5.5,1.1,11.2-2.3,12-5.5C171,399.2,166.7,400.9,160.8,391.8z"/>
	<g>
		<path d="M159.7,381.7c-5.6,7.6-6.4,15.2-3.7,24.2c1.2,4.5,2.5,8.9,2.6,13.6c0.1,5-1,9.5-2.1,13.9c-1.7,8-6.7,12.9-13.8,16.4
			c-1.9,1-3.4,2.2-5,3.6c-3.1,2.8-6,5.7-7,9.9c-1.2,4.2-2.4,8.6-1.8,12.9c-1-2-1.2-4.4-1.3-6.7c-0.1-3.6,0.2-6.8,1-10.4
			c1.5-4.3,4.5-7.8,7.7-10.9c2.6-2.5,6.2-4.3,8.8-6.5c4.7-3.7,5.8-10.4,7-16.1c1.5-6.4,0.3-12-0.8-18.7
			C149.5,397.3,151.6,387.9,159.7,381.7L159.7,381.7z"/>
	</g>
	<path d="M168.8,406.4c-8.9,14.6-17.2,56.6-18.9,76c-2.2,24.9,9.2,36.3,22.1,35.1c14.2-1.3,19.2-12,15.2-25
		c-4.2-13.8-7-23.2-10.4-35C173.3,445.6,168,424.8,168.8,406.4z"/>
	<g>
		<path d="M186.3,398.7c-2.7,10-5.9,20.3-4.6,30.6c1.1,5,3,9.9,4.8,14.7c4.7,12.7,9.9,25.6,11.3,39.3c0.7,13.9-4.2,27.5-11.1,39.3
			c4.1-14.9,8.1-30.9,3.4-46.1c-2.7-10.2-6.6-20.1-10-30.2c-1.7-5.3-3.4-10.6-4-16.2c-0.4-5.9,1-11.3,2.9-16.7
			C180.9,408.2,183.3,403.2,186.3,398.7L186.3,398.7z"/>
	</g>
	<g>
		<path d="M146.4,464.2c-2.5,7.1-4.9,13.3-4.8,20.6c0.1,7.2,2.5,13.6,5.5,20.4c-7.6-3.6-12.3-11.9-12.5-20.3
			C134.4,476.6,139.1,468.2,146.4,464.2L146.4,464.2z"/>
	</g>
	<g>
		<path d="M207.1,493.3c11.2,13.3,4,37.2-14.5,38.3c3.8-4.6,6.8-8,9.2-12.9C205.6,510.6,206,502.3,207.1,493.3L207.1,493.3z"/>
	</g>
	<path d="M92.1,365.2c-4.8,38.6-30.7,61.2-34.2,72.6c-3.7,12-5.6,36.8,11.8,40.5c16.8,3.6,22.9-8.7,22.9-16.6
		c0.1-8-4.7-32.8-4.1-45.2C89.2,404.1,94.5,366.3,92.1,365.2z"/>
	<path d="M95.3,433.2c6.8,16,8.2,18,21.9,19.2c0.7,3.1-10.4,6-16.1,2C95.4,450.3,92.8,434.8,95.3,433.2z"/>
	<path d="M55.7,425.5c-7.9,6-12.5,24.8-12,34.3c0.5,9.8,5,30-0.8,35s-16.5,2.3-12.4-11.9c-7.4,8.2-5.3,25.3,6.5,26.6
		c12.2,1.3,18.2-8.2,16.6-20.4C45.4,444.2,55.9,430.2,55.7,425.5z"/>
	<g>
		<path d="M55.2,534.5c-5.6-7.2-9-18-3.6-26.3c1.9-3.2,4.6-5.3,6.7-8.2c1.1-1.6,2.2-3.3,3.1-5c1.9-3.9,2.7-8.5,3.6-13
			c1.5,2.1,2.5,4.5,3.1,7c1.4,5.1,0.2,11.1-2.6,15.7c-2,3.4-4.5,5.6-6.7,8.3c-1.7,2.3-2.6,4.2-3,7.5
			C55.4,524.8,55.5,529.5,55.2,534.5L55.2,534.5z"/>
	</g>
	<g>
		<path d="M94.9,453.3c9,13,8.7,29.1,3,43.5c-3.5,9.2-8.9,17.3-12.1,26.4c-5.4,13.6-3.9,27.6,5.4,39.7c-8-6.1-13-16.1-13.3-26.3
			c-0.1-7.7,2.1-15.2,5.1-22.3c2.9-6.7,6.8-13.1,9.6-19.6C98.7,481.1,100.2,467.4,94.9,453.3L94.9,453.3z"/>
	</g>
	<g>
		<path d="M77.5,482.5c5.9-0.2,7.8,7.3,7.3,12.1c-0.8,11.2-9.8,19.4-12.2,30c-1.7,8.5,0.6,17.3,0.9,26.4c-1.9-2.6-3.4-5.4-4.7-8.4
			c-4.4-10.4-5-18.7,0.5-29.1c3-5.9,6.8-10.7,8.9-15.9C79.8,493,83,485.9,77.5,482.5L77.5,482.5z"/>
	</g>
	<path d="M110.8,460.5c-4.8,10.7-12.4,69-13.6,81c-1.1,12-0.8,39.2,13.6,49.1s23.5,4.3,29.1-2.8c7.1-9,6.8-25.1-4.2-48
		C108.5,478.9,112.2,467.9,110.8,460.5z"/>
	<g>
		<path d="M121.5,456.8c1.8,10.9,2.9,21.5,5.4,32c0.4,1.5,0.9,3.1,1.4,4.6c2.2,5,5.6,9.3,8.7,13.8c4.6,6.8,9.9,13.7,12.4,21.7
			c0.9,3.5,1.1,7.3,1.1,10.9c0,7-0.6,14-1.9,20.9c-1.5-10-1.9-20.4-4.9-30c-3-6.9-8.3-13.3-12.5-19.5c-3.9-5.8-8.7-12.1-9.9-19.4
			C119.4,480.3,119.9,468.4,121.5,456.8L121.5,456.8z"/>
	</g>
	<g>
		<path d="M156,518.4c4.8,2.3,9.1,5.1,13.2,8.5c4.4,3.5,8.1,8.2,9.4,13.8c1.1,4.2,0.3,8,0.4,11.9c0.2,3.6,1.5,6.9,2.7,10.4
			c0.8,2.4,1.7,4.8,2.6,7.3c-1.9-1.8-3.6-3.8-5.2-6c-2.3-3.3-4.6-7.1-5.3-11.2c-0.7-3.8-0.1-7.5-1-11.2c-0.5-2.1-1.4-4.3-2.5-6.2
			C166.2,529.8,160.5,524.5,156,518.4L156,518.4z"/>
	</g>
	<g>
		<path d="M216.4,506.5c4.5,3.2,3,13.6,2.8,18.6c-0.5,6.3-1.3,12.5-1.7,18.6c-0.3,5.5-0.5,11.7,1.5,16.6c1.9,4.7,5.9,8.2,10.9,11.3
			c9.4,5.8,20.2,10.5,27.8,18.9c9.9,11.2,13.9,26.3,14,40.8c-3.6-11.6-8.4-23.3-16.4-32.4c-3.8-4.3-8.5-7.6-13.7-10.6
			c-5.2-3-10.8-5.6-16.5-9.1c-7.5-4.5-14.4-12-15.4-21.3c-1.3-11.5,2.3-22.8,5.1-33.6c0.8-3,1.6-6,2.2-9
			C217.5,512.4,218.3,509.1,216.4,506.5L216.4,506.5z"/>
	</g>
	<path d="M45.3,524.2c-4.9,4.5,7.9,33.9,19.8,44.4c13.2,11.7,25.8,30.9,26.5,42.4c0.8,11.5-16.6,13.7-11.7-3.6
		c-15.4,0.8-15.1,30.1,8.8,25.6c23.1-4.4,17.5-33.5,6.6-46.3C36.8,529.1,49.4,531.8,45.3,524.2z"/>
	<path d="M100.1,583.9c-1.3,6.6,4.4,16.7,8.8,19.8c4.9,3.4,10.2,1.9,13.2-2.8C110.1,598,106.3,597.3,100.1,583.9z"/>
	<path d="M146.4,511.6c10.4,5.1,30.9,49.3,14.5,74.4c-16.4,25-39.4,32.4-41.6,42.5c-1.3,6-0.2,14.3,8.5,15.8
		c8.8,1.5,10.9-7.2,8.5-11.3c14.1,6,8.8,29.7-9,27.1c-10.7-1.6-19.4-9.3-21.9-20.1c-2.7-11.8,2.6-23.9,12.6-30.7
		c25.3-17,27.5-18.4,35.3-31.7C169.5,537,140.2,512.6,146.4,511.6z"/>
	<g>
		<path d="M152.6,611.6c-0.1,2.8-0.2,5.6-0.1,8.3c0.3,3.8,0.2,7.7,2.1,11c2.2,3.4,5.7,6.2,7.5,10.1c4.9,10.1,0.5,23.8-10.8,26.9
			c-1.4,0.4-2.8,0.7-4.3,0.7c5-2.6,9-6.5,10.5-11.1c1.4-4.4,1.3-9.8-0.7-13.9c-1.6-3.4-5.1-6.5-6.8-10.4
			C147.1,626.8,149.5,617.6,152.6,611.6L152.6,611.6z"/>
	</g>
	<path d="M169.5,585.6c-6.6,10.6-10.8,11-13,16.4c-2,4.8-1.1,9.7,3.2,11.3c4.1,1.4,8.5-2.1,10.3-6.2
		C171.9,602.8,172.2,586.7,169.5,585.6z"/>
	<g>
		<path d="M172.9,565.8c3.5,4.5,6.5,9.2,9.4,14.2c6.1,10.5,10.2,21.1,8.8,33.6c-0.7,8.3-3.8,16.1-3.7,24.3
			c0.4,17.3,13.2,37,22.2,51.6c-12.7-11.1-24.1-25.8-28.7-42.3c-1.6-5.8-1.7-12.3-0.7-18.2c1-5.9,2.7-11.1,3.4-16.3
			c0.7-5.1,0.8-10.3-0.2-15.5c-1-5.2-2.8-10.4-4.7-15.7C176.9,576.4,174.9,571.1,172.9,565.8L172.9,565.8z"/>
	</g>
	<path d="M173.5,615.5c-2.8-1.4-11.8,13.5-6.2,31.1c4.4,13.7,12.1,25.8,13,37.3c-0.6,13.7-9.3,10.3-13.6,12.4
		c10.7,9.2,24.4,4.7,24-9.2c-0.4-16.7-8.6-25.5-13.3-34c-2.1-3.8-3.9-7.9-4.9-12.2C168.2,622.7,175.2,616.4,173.5,615.5z"/>
	<g>
		<path d="M204,664.7c2.4,6.5,7.9,10.8,12.8,15.4c4.2,5.3,3.1,12.1,2.9,18.1c0,1.9,0.1,3.8,0,5.8c-1.3-1.6-2.3-3.3-3.1-5.1
			c-1.6-3.4-1.9-7.5-2.9-10.9c-0.4-1.5-1.1-2.7-1.9-4l0.5,0.6C207.2,680,201.3,672,204,664.7L204,664.7z"/>
	</g>
	<path d="M187,531c-0.6,2.7,5.7,57.2,12.7,102.2c6.8,44.1,37.5,61.1,57.5,53.2s20.9-28.4,13.9-46.6c-7-18.1-9.7-18.8-41.7-44.2
		C197.3,570.4,188.3,525.4,187,531z"/>
	<path d="M228.3,520.1c-2.8,2.5,7.7,17.9,12,20.7c4.3,2.8,10.5,4.5,12.8-0.9c1.7-4,1.7-8.8-6.2-11.3
		C222.8,522.4,230.1,518.4,228.3,520.1z"/>
	<g>
		<path d="M271.2,530.1c18.8-7.2,42.2,0.6,52.7,17.8c3.5,5.7,5.8,11.9,6.6,18.4c-6.6-10.5-13.9-20.1-24.5-26.4
			C295.5,533.6,283.5,531,271.2,530.1L271.2,530.1z"/>
	</g>
	<path d="M226,534.8c-4.5,3.4,4.5,37.3,24.8,39c16.6,1.3,22.6-15.6,16.9-22C264.8,555.1,242.6,571.7,226,534.8z"/>
	<g>
		<path d="M269.5,573.2c5.2,21.8,15.1,37.4,35.6,47.1c5.9,2.8,12,5.1,18.2,7.3c1.8,0.6,3.7,1.3,5.6,2c-7.8,1.8-15.9,1.8-24,0
			c-8.2-1.7-16-5.5-22.3-11.1C270,607.6,264,589.1,269.5,573.2L269.5,573.2z"/>
	</g>
	<path d="M257.6,533.5c3.4-4.3,23,9.6,26.5,20.9c2.1,6.5,13,44.8,35.8,40.5c4.4-2.1,5.3-4.5,6.1-5.9c3-4.9-5-17.4-6.7-2.4
		c-0.3,2.3-4.5-2.8-2.3-7.3c5.3-9.2,14.2-0.3,16.8,4.3c1.8,3.2,1.9,7.7-1.2,13.8c-8.5,16.6-31.2,18.9-40.8,1.1
		C283.6,583.2,281.7,545.5,257.6,533.5z"/>
	<g>
		<path d="M274.2,637.7c14.1,3.8,27.9-0.3,42.1,4c4.7,1.4,9.5,3.8,12.7,7.7c6.2,7.9,9.6,17.8,11.4,27.5c-5.6-7.9-10-15.9-16.5-22.8
			c-5.2-4.9-12.5-6-19.4-7.3C294.2,645.3,282.7,644.7,274.2,637.7L274.2,637.7z"/>
	</g>
	<g>
		<path d="M278.4,646c4.1,5.9,8.7,12.4,16.4,11.7c11.9-1.3,19.6,1.7,26.8,11.6c4.2,5.8,7.6,12.3,10.5,18.9
			c3.2,7.5,5.9,15.1,7.4,23.2c-10.2-12.4-17.8-26.6-27.6-38.9c-3.1-3.5-6.8-6-11.6-6.5c-4.1-0.6-9-0.4-12.9-3
			C281.6,659.1,278.9,652.5,278.4,646L278.4,646z"/>
	</g>
	<path d="M255.6,691.4c5.2-1.8,24.8,7.9,27.8,21.8c3.4,15.5,24.2,32.7,24.2,32.7s-25.6-4.8-33.9-22.4
		C264.9,700.4,259,693.4,255.6,691.4z"/>
	<path d="M249.3,695c-1.6,5.8-1.8,19.4,8.1,32.5c9.9,13.1,25.2,16.5,41.7,27c2-1-19.2-10.5-31.1-29.2S251,694.4,249.3,695z"/>
	<path d="M228.8,688.3c-1.9,0.3-5.7,11.4-3.1,20c0.5,1.7,1.6,4.6,2.6,6.1c6,9.7,27.3,25.1,32.8,27.9c-12.6-13.5-20.4-21.8-22-32.1
		C237.4,699.8,229.2,697.4,228.8,688.3z"/>
	<path d="M283.4,540.6c2.4-2.6,25.5,11.6,30.3,16.6c4.3,4.5,8.3,9.2,3.6,13.9c-4.7,4.7-11.5,0.6-15.2-4.5
		C298.3,561.5,294,548.3,283.4,540.6z"/>
	<path d="M269.9,684.4c2.1-2.7,32.4,15.1,38.7,26.9c6.4,11.8,7.9,22.4,12.4,29.9c4.5,7.6,6.4,7,13.6,14.8
		c-1.8,3.3-23.4-12.9-36.3-30.5c-6.2-8.5-5.8-12.8-9.7-20.9C284.4,695.8,273.5,688.1,269.9,684.4z"/>
	<path d="M277.8,671.4c3.4,2.6,6.5,6,11.3,6.9c5,0.8,11.1,1.4,16.9,5.4c15.7,10.9,26.2,44,24.2,46c-2.6-4.6-10.5-7.9-16.1-17.7
		c-3.7-6.6-7.1-16.1-10.9-19.8c-3.6-3.4-10.1-7.3-17.9-10.9C279.8,678.8,276,672.4,277.8,671.4z"/>
	<path class="st0" d="M136.3,318.4c-5,0.6-27.2,13.3-13.2,27.8c14.3,14.9,30.4-5.4,30.1-10.8C153.2,335.5,136.5,333.5,136.3,318.4z"
		/>
	<g>
		<path class="st0" d="M140.1,323.9c-0.1-4.2,2.1-8.3,5.6-10.5C145.8,317.5,143.6,321.6,140.1,323.9L140.1,323.9z"/>
	</g>
	<g>
		<path class="st0" d="M142.1,328.3c4.2-6.7,10.2-12.2,17.2-15.8C155.1,319.2,149.1,324.6,142.1,328.3L142.1,328.3z"/>
	</g>
	<g>
		<path class="st0" d="M148.3,331.3c2.8-3.9,7.2-6.3,12-6.6C157.5,328.6,153,331,148.3,331.3L148.3,331.3z"/>
	</g>
	<circle cx="128.5" cy="341.3" r="9.4"/>
	<circle class="st0" cx="162" cy="310.4" r="1.4"/>
	<circle class="st0" cx="165.8" cy="306.3" r="1.1"/>
	<circle class="st0" cx="169.3" cy="302.5" r="0.7"/>
	<path class="st0" d="M116.4,402.3c-5,2.5-23.6,24.2-3.4,34.2c20.6,10.3,30-17.1,27.6-22.6C140.5,413.8,122.3,418.1,116.4,402.3z"/>
	<g>
		<path class="st0" d="M123,406.6c-1.4-4.5-0.5-9.5,2.6-13.1C127,398,126,403,123,406.6L123,406.6z"/>
	</g>
	<g>
		<path class="st0" d="M126.6,410.7c1-4.4,3-8.3,5.1-12.1c2.3-3.8,4.7-7.4,8-10.4c-1,4.4-2.9,8.3-5.1,12.1
			C132.3,404,129.9,407.6,126.6,410.7L126.6,410.7z"/>
	</g>
	<g>
		<path class="st0" d="M134.2,411.8c1.7-5,5.6-9.1,10.6-10.9C143.1,405.9,139.1,410,134.2,411.8L134.2,411.8z"/>
	</g>
	<circle cx="117.2" cy="429.7" r="10.5"/>
	<circle class="st0" cx="141.9" cy="385" r="1.6"/>
	<circle class="st0" cx="144.6" cy="379.5" r="1.2"/>
	<circle class="st0" cx="147.2" cy="374.2" r="0.7"/>
	<path class="st0" d="M216.1,645.6c-1,8,10.2,47.4,38.2,31.3c28.7-16.5,3.4-49.5-5.2-51C249.1,625.9,239.7,651.1,216.1,645.6z"/>
	<g>
		<path class="st0" d="M226,639.6c-6.5-1.1-12.5-6-14.8-12.2C217.7,628.5,223.6,633.5,226,639.6L226,639.6z"/>
	</g>
	<g>
		<path class="st0" d="M233.6,637.9c-4.8-4.3-8.5-9.4-11.8-14.8c-3.3-5.4-6.1-11-7.7-17.3c4.8,4.3,8.5,9.4,11.8,14.8
			C229.1,626.1,232,631.6,233.6,637.9L233.6,637.9z"/>
	</g>
	<g>
		<path class="st0" d="M240.2,629c-5.1-5.3-7.8-13.6-6.6-20.8C238.7,613.5,241.3,621.8,240.2,629L240.2,629z"/>
	</g>
	<circle cx="248.7" cy="666.5" r="15.1"/>
	<circle class="st0" cx="210" cy="598.6" r="2.3"/>
	<circle class="st0" cx="202.5" cy="587.8" r="1.7"/>
	<circle class="st0" cx="200.1" cy="577.3" r="1.1"/>
	<path class="st0" d="M155.3,487.8c-2.1,4.6-2.9,30.1,16.8,25.8c20.2-4.4,11.3-28.8,6.5-31.3C178.7,482.3,168.3,495.5,155.3,487.8z"
		/>
	<g>
		<path class="st0" d="M163.1,485c-3.6-2.2-5.9-6.2-5.9-10.4C160.8,476.8,163,480.7,163.1,485L163.1,485z"/>
	</g>
	<g>
		<path class="st0" d="M167.9,485.6c-3.4-7.1-4.9-15.1-4.3-23C167.1,469.8,168.5,477.8,167.9,485.6L167.9,485.6z"/>
	</g>
	<g>
		<path class="st0" d="M173.8,482c-1.8-4.4-1.5-9.5,0.8-13.6C176.3,472.7,176,477.8,173.8,482L173.8,482z"/>
	</g>
	<circle cx="170.8" cy="506.3" r="9.4"/>
	<circle class="st0" cx="162.9" cy="457.3" r="1.4"/>
	<circle class="st0" cx="163" cy="448.7" r="1.1"/>
	<circle class="st0" cx="163.5" cy="441" r="0.7"/>
	<path class="st0" d="M105.2,561.9c-1.8,5.4,0.5,34.3,22.2,27c22.2-7.5,9.2-33.9,3.5-36.1C130.8,552.7,120.8,568.9,105.2,561.9z"/>
	<g>
		<path class="st0" d="M112.7,556.4c-4.2-2.2-7.1-6.5-7.5-11.3C109.5,547.3,112.3,551.6,112.7,556.4L112.7,556.4z"/>
	</g>
	<g>
		<path class="st0" d="M118.2,556.8c-2.4-3.9-3.8-8.1-4.9-12.4c-1.1-4.4-1.8-8.7-1.6-13.3c2.4,3.9,3.8,8.1,4.9,12.4
			C117.6,547.9,118.4,552.3,118.2,556.8L118.2,556.8z"/>
	</g>
	<g>
		<path class="st0" d="M124.5,552.2c-2.4-4.8-2.4-10.6-0.1-15.5C126.8,541.6,126.8,547.4,124.5,552.2L124.5,552.2z"/>
	</g>
	<circle cx="124.9" cy="580.9" r="10.7"/>
	<circle class="st0" cx="110.3" cy="521.7" r="1.6"/>
	<circle class="st0" cx="109.1" cy="512.8" r="1.2"/>
	<circle class="st0" cx="109.8" cy="505.5" r="0.7"/>
	<path class="st0" d="M61.7,446.7c-2.5,4.3-5.8,29.7,14.2,27.3c20.5-2.4,14.1-27.5,9.5-30.5C85.5,443.4,73.9,455.6,61.7,446.7z"/>
	<g>
		<path class="st0" d="M68.9,444.5c-2.8-3.1-3.9-7.6-2.7-11.7C69.1,436,70.1,440.5,68.9,444.5L68.9,444.5z"/>
	</g>
	<g>
		<path class="st0" d="M73.3,446.5c-1.2-7.8-0.3-15.9,2.6-23.2C77.1,431.1,76.2,439.2,73.3,446.5L73.3,446.5z"/>
	</g>
	<g>
		<path class="st0" d="M80,444.7c-0.5-4.7,1.3-9.5,4.7-12.8C85.1,436.6,83.4,441.4,80,444.7L80,444.7z"/>
	</g>
	<circle cx="75.3" cy="466.6" r="9.4"/>
	<circle class="st0" cx="77.6" cy="418.5" r="1.4"/>
	<circle class="st0" cx="80.7" cy="410.7" r="1.1"/>
	<circle class="st0" cx="83.8" cy="404.6" r="0.7"/>
	<path class="st0" d="M174.6,365.4c-3.3,2.2-14.8,19.1,0.3,24.6c15.5,5.6,19.9-14.6,17.8-18.3C192.7,371.6,180.1,376.1,174.6,365.4z
		"/>
	<g>
		<path class="st0" d="M179.2,367.9c-1.5-3-1.4-6.7,0.3-9.5C181.1,361.4,181,365,179.2,367.9L179.2,367.9z"/>
	</g>
	<g>
		<path class="st0" d="M182.2,370.4c0.7-6.3,3-12.3,6.8-17.4C188.3,359.3,186,365.3,182.2,370.4L182.2,370.4z"/>
	</g>
	<g>
		<path class="st0" d="M187.7,370.4c0.6-3.7,2.9-7.1,6.2-8.9C193.4,365.2,191,368.5,187.7,370.4L187.7,370.4z"/>
	</g>
	<circle cx="177.1" cy="384.5" r="7.5"/>
	<circle class="st0" cx="192.2" cy="349.2" r="1.1"/>
	<circle class="st0" cx="196.6" cy="343.8" r="0.9"/>
	<circle class="st0" cx="201.3" cy="338.4" r="0.5"/>
	<path class="st0" d="M192.1,309.2c-3,0.4-16.2,7.9-7.9,16.6c8.6,8.9,18.2-3.2,18-6.4C202.2,319.3,192.2,318.2,192.1,309.2z"/>
	<g>
		<path class="st0" d="M194.4,312.4c0-2.5,1.2-4.9,3.4-6.3C197.8,308.7,196.5,311.1,194.4,312.4L194.4,312.4z"/>
	</g>
	<g>
		<path class="st0" d="M195.5,315.1c2.5-4,6.1-7.3,10.3-9.4C203.3,309.6,199.7,312.9,195.5,315.1L195.5,315.1z"/>
	</g>
	<g>
		<path class="st0" d="M199.2,316.9c1.7-2.3,4.3-3.8,7.1-3.9C204.7,315.2,202.1,316.7,199.2,316.9L199.2,316.9z"/>
	</g>
	<circle cx="187.5" cy="322.8" r="5.6"/>
	<circle class="st0" cx="208.1" cy="304.1" r="0.8"/>
	<circle class="st0" cx="211.7" cy="301.4" r="0.6"/>
	<circle class="st0" cx="214.8" cy="298.6" r="0.4"/>
	<path class="st0" d="M243.8,280.9c-2.9,0-16.6,5.8-9.5,15.2c7.3,9.6,18-1.1,18.1-4.2C252.4,291.9,242.9,289.7,243.8,280.9z"/>
	<g>
		<path class="st0" d="M245.6,284.3c0.3-2.4,1.8-4.6,4-5.7C249.4,281.1,247.8,283.2,245.6,284.3L245.6,284.3z"/>
	</g>
	<g>
		<path class="st0" d="M246.5,287c2.9-3.6,6.7-6.4,11-8C254.6,282.6,250.8,285.4,246.5,287L246.5,287z"/>
	</g>
	<g>
		<path class="st0" d="M249.9,289.2c1.9-2,4.6-3.2,7.4-3C255.4,288.2,252.6,289.3,249.9,289.2L249.9,289.2z"/>
	</g>
	<circle cx="237.8" cy="293.6" r="5.5"/>
	<circle class="st0" cx="259.2" cy="278" r="0.8"/>
	<circle class="st0" cx="261.7" cy="275.9" r="0.6"/>
	<circle class="st0" cx="264" cy="273.9" r="0.4"/>
	<path class="st0" d="M210.6,269.6c-2.2-1-14.5-1.3-12.4,8.2c2.2,9.7,13.9,5.4,15.1,3C213.4,280.8,207,275.9,210.6,269.6z"/>
	<g>
		<path class="st0" d="M210.9,272.8c1-1.8,2.9-2.9,4.9-2.9C214.8,271.6,212.9,272.7,210.9,272.8L210.9,272.8z"/>
	</g>
	<g>
		<path class="st0" d="M210.6,275.1c3.4-1.7,7.2-2.5,11-2.2C218.2,274.6,214.4,275.3,210.6,275.1L210.6,275.1z"/>
	</g>
	<g>
		<path class="st0" d="M212.4,277.9c2.1-0.9,4.5-0.8,6.6,0.3C216.8,279,214.4,278.9,212.4,277.9L212.4,277.9z"/>
	</g>
	<circle cx="201.8" cy="277.1" r="4.5"/>
	<circle class="st0" cx="223.2" cy="272.7" r="0.7"/>
	<circle class="st0" cx="225.8" cy="271.9" r="0.5"/>
	<circle class="st0" cx="228.2" cy="271.3" r="0.3"/>
</g>
</svg>
