<?xml version="1.0" encoding="UTF-8"?>
<svg id="Layer_1" data-name="Layer 1" xmlns="http://www.w3.org/2000/svg" viewBox="0 0 222 222.4">
  <defs>
    <style>
      .cls-1 {
        fill: #ba8e6a;
      }

      .cls-2 {
        fill: #cf9e76;
      }

      .cls-3 {
        fill: #bd7f73;
      }

      .cls-4 {
        fill: #c8dbd7;
      }

      .cls-5 {
        fill: #dfb28b;
      }

      .cls-6 {
        fill: #e09789;
      }

      .cls-7 {
        fill: #42312b;
      }

      .cls-8 {
        fill: #543e36;
      }

      .cls-9 {
        fill: #3c5556;
      }

      .cls-10 {
        fill: #fff;
        isolation: isolate;
        opacity: .46;
      }
    </style>
  </defs>
  <path class="cls-4" d="m217.8,110.8c0,30.13-12.45,57.35-32.49,76.77-5.72,5.58-12.07,10.5-18.92,14.67-16.2,9.87-35.23,15.56-55.59,15.56s-39.12-5.61-55.24-15.35c-6.85-4.13-13.2-9.01-18.93-14.54C16.39,168.45,3.8,141.1,3.8,110.8,3.8,51.71,51.71,3.8,110.8,3.8s107,47.91,107,107Z"/>
  <path class="cls-8" d="m94.16,45.19c-.38,1.75-1.9,3.02-3.7,2.92-5.25-.29-15.96,2.28-26.66,23.69-11.25,22.5-10.48,32.55-9.39,36.17.33,1.08.16,2.24-.48,3.17-1.88,2.76-4.51,9.36,3.01,19.35,1.02,1.35.96,3.22-.14,4.5-3.02,3.52-8.16,10.47-5.99,14.8,2.57,5.14,22.04,8.08,27.55,8.82.94.13,1.89.15,2.83.09l54.97-3.79c.94-.06,1.88.22,2.6.83,2.21,1.87,8.48,5.69,21.15,3.55,1.57-.27,3.11-.77,4.54-1.47l5.26-2.55c2.37-1.15,2.74-4.37.7-6.03h0c-1.35-1.09-1.73-2.99-.9-4.51,2.97-5.41,9.19-18.42,7.49-29.78-.11-.73-.02-1.47.29-2.13,1.46-3.16,5.41-13.27,0-20.88-4.75-6.69-10.32-20.28-16.88-31-3.58-5.85-8.25-10.95-13.76-15.06s-14.37-9.87-20.52-10.07c-.22,0-.43-.03-.64-.08-3.03-.7-28.04-5.96-31.34,9.46h.01Z"/>
  <g>
    <path class="cls-2" d="m185.31,187.57c-5.72,5.58-12.07,10.5-18.92,14.67-16.2,9.87-35.23,15.56-55.59,15.56s-39.12-5.61-55.24-15.35c-6.85-4.13-13.2-9.01-18.93-14.54,7.88-8.39,19.67-11.61,19.67-11.61,0,0,9.58-1.12,23.25-2.3,17.01-1.48,40.35-3.06,59.47-2.71,8.29.15,15.79.66,21.63,1.7l1.65.31c10.33,2.14,17.74,7.83,23.01,14.27h0Z"/>
    <polygon class="cls-2" points="141.3 169.3 75.13 170.59 87.3 191.3 112.3 193.3 136.3 188.3 141.3 169.3"/>
    <path class="cls-2" d="m138.3,181.3h-58s-2-9.71,2-10.85,5-27.15,5-27.15l37-6s6.36,32,10.18,32,3.82,12,3.82,12Z"/>
  </g>
  <path class="cls-1" d="m166.92,201.91c4.1-2.99,7.98-6.26,11.61-9.8-5.27-6.44-12.68-12.13-23.01-14.27l-1.65-.31c-5.43-.97-12.29-1.48-19.88-1.66l.53-2.03-6.18.12c-.2-.08-.41-.12-.64-.12-3.82,0-10.18-32-10.18-32l-30.4,4.93c.13-2.11.18-3.47.18-3.47l37-6s6.36,32,10.18,32c.23,0,.44.04.64.12l6.18-.12-.53,2.03c7.59.18,14.45.69,19.88,1.66l1.65.31c10.33,2.14,17.74,7.83,23.01,14.27-5.57,5.44-11.74,10.24-18.39,14.34Z"/>
  <path class="cls-5" d="m144.93,102.14c1.4,24.78-4.15,47.78-33.56,60.09-4.35,1.82-9.29,1.58-13.5-.55-21.7-10.99-28.46-31.22-29.82-55.2-1.48-26.19,15.83-48.97,36.23-50.13s39.17,19.59,40.65,45.78h0Z"/>
  <path class="cls-6" d="m166.39,202.24c-16.2,9.87-35.23,15.56-55.59,15.56s-39.12-5.61-55.24-15.35c1.84-7.34,2.77-16.42.74-26.15l18.83-5.71s1.58,1.46,4.42,3.41c9.66,6.59,33.85,18.7,59.47-2.71.76-.63,1.52-1.3,2.28-1.99l19.35,3.69,1.65.31s-.62,14.96,4.09,28.94h0Z"/>
  <path class="cls-1" d="m111.37,162.23c-2.76,1.15-5.75,1.48-8.64,1.02.76-.2,1.51-.44,2.24-.75,29.41-12.31,34.96-35.31,33.56-60.09h0c-1.39-24.62-18.05-44.43-36.98-45.77.9-.14,1.81-.24,2.73-.29,20.4-1.16,39.17,19.59,40.65,45.78h0c1.4,24.79-4.15,47.79-33.56,60.1Z"/>
  <g>
    <path class="cls-9" d="m149.05,94.65l2.49-3.26-2.49-4.5h-4.01s-26-8-36,7h-.5l-6.5-.5c-10-15-36-7-36-7h-4.01l-2.49,4.5,2.49,3.26s-1.99,4.24,3.01,13.24,15.5,8.05,15.5,8.05c16.18-.82,20.5-14.79,21.33-18.27.13-.55.55-.97,1.1-1.11.22-.05,1.31-.13,1.56-.17,1.33,0,2.46.24,3.37.73.35.19.65.43.75.81.76,3.02,5.29,17.67,21.88,18.51,0,0,10.5.95,15.5-8.05s3.01-13.24,3.01-13.24h.01Zm-69.02,18.74c-8.01,0-14-8.54-14-16s7.99-11,16-11,16,3.54,16,11-9.99,16-18,16Zm48.74-.05c-8.01,0-14-8.54-14-16s7.99-11,16-11,16,3.54,16,11-9.99,16-18,16Z"/>
    <path class="cls-10" d="m82.03,86.34c-8.01,0-16,3.54-16,11s5.99,16,14,16,18-8.54,18-16-7.99-11-16-11Z"/>
    <path class="cls-10" d="m130.77,86.34c-8.01,0-16,3.54-16,11s5.99,16,14,16,18-8.54,18-16-7.99-11-16-11Z"/>
  </g>
  <path class="cls-8" d="m94.54,56.31s6.76,5.46,12.76,7.73c4.36,1.64,8.96.9,11.16.37.96-.23,1.97-.15,2.88.24,4.69,2,7.66,5.01,8.47,5.91.2.21.4.41.62.6,1.79,1.54,9.36,7.66,12.87,4.15,4-4-19.52-28.98-48.76-18.99h0Z"/>
  <path class="cls-8" d="m96.57,57.85s-4.74,2.69-7.11,7.32c-4.16,8.13-19.16,15.13-19.16,15.13l3-14,23.27-8.45h0Z"/>
  <path class="cls-7" d="m177.69,112.82c-.31.66-.4,1.4-.29,2.13,1.7,11.36-4.52,24.37-7.49,29.78-.3.54-.44,1.13-.44,1.71,0,1.06.47,2.1,1.34,2.8,2.04,1.66,1.67,4.88-.7,6.03l-5.26,2.55c-1.43.7-2.97,1.2-4.54,1.47-2.79.47-5.27.65-7.47.63.11-.05.23-.1.34-.16l5.26-2.55c2.37-1.15,2.74-4.37.7-6.03-.87-.7-1.34-1.74-1.34-2.8,0-.58.14-1.17.44-1.71,2.97-5.41,9.19-18.42,7.49-29.78-.11-.73-.02-1.47.29-2.13,1.46-3.16,5.41-13.27,0-20.88-4.75-6.69-10.32-20.28-16.88-31-3.58-5.85-8.25-10.95-13.76-15.06-5.51-4.11-14.37-9.87-20.52-10.07-.22,0-.43-.03-.64-.08-1.26-.29-6.34-1.38-12.08-1.43,8.68-3.74,21.62-1,23.75-.51.21.05.42.08.64.08,6.15.2,15.01,5.96,20.52,10.07,5.51,4.11,10.18,9.21,13.76,15.06,6.56,10.72,12.13,24.31,16.88,31,5.41,7.61,1.46,17.72,0,20.88Z"/>
  <path class="cls-3" d="m166.39,202.24c-1.61.98-3.25,1.92-4.92,2.82-4.55-13.84-3.94-28.47-3.94-28.47l-1.65-.31-18.64-3.56c.59-.45,1.18-.93,1.78-1.43.76-.63,1.52-1.3,2.28-1.99l19.35,3.69,1.65.31s-.62,14.96,4.09,28.94Z"/>
</svg>